<svg width="39" height="40" viewBox="0 0 39 40" fill="none" xmlns="http://www.w3.org/2000/svg">
<g clip-path="url(#clip0_195_417)">
<path d="M17.1337 40C12.8812 40 8.62861 40.0048 4.37605 39.9977C2.15074 39.9929 0.452052 38.5636 0.0675748 36.3887C0.0116508 36.0708 0.0069905 35.7386 0.0069905 35.4135C0.00466033 27.3566 0.0116508 19.2997 0 11.2405C0 9.85424 0.461373 8.71418 1.4214 7.74143C3.46496 5.67164 5.49919 3.58751 7.51712 1.48904C8.48414 0.482826 9.61427 -0.00474531 10.9961 3.48037e-05C16.6001 0.0191553 22.2018 0.00481492 27.8059 0.00959503C29.9613 0.00959503 31.6134 1.29306 32.0911 3.34373C32.1843 3.74764 32.2146 4.17786 32.2146 4.59372C32.2215 9.98808 32.2215 15.3824 32.2146 20.7768C32.2146 21.1066 32.2868 21.262 32.62 21.3743C36.7491 22.7845 39.3262 26.8356 38.9674 31.317C38.6272 35.5665 35.4069 39.142 31.2336 39.8686C30.637 39.9714 30.0219 39.9929 29.4137 39.9953C25.3196 40.0048 21.2278 40 17.1337 40ZM30.5298 20.8605C30.5298 20.7171 30.5298 20.5713 30.5298 20.4255C30.5298 15.1673 30.5298 9.90921 30.5298 4.65109C30.5298 2.79879 29.4976 1.74 27.6987 1.74C22.1343 1.74 16.5721 1.74 11.0077 1.74C10.8609 1.74 10.7164 1.75195 10.5696 1.74478C10.2621 1.73044 10.1665 1.86428 10.1712 2.18216C10.1875 3.4465 10.1898 4.70845 10.1758 5.97279C10.1479 8.55166 8.342 10.4087 5.83008 10.4398C4.69063 10.4541 3.55117 10.4422 2.41172 10.4422C1.93326 10.4422 1.69325 10.6947 1.6917 11.1998C1.6917 19.283 1.6917 27.3686 1.6917 35.4518C1.6917 37.1846 2.75193 38.2649 4.45062 38.2649C10.9005 38.2649 17.3528 38.2649 23.8027 38.2649H24.2291C20.7618 35.3036 19.408 31.6205 20.9156 27.273C22.4745 22.7773 25.8905 20.7983 30.5275 20.8605H30.5298ZM22.0457 30.4231C22.0387 34.7419 25.4547 38.2601 29.6584 38.2672C33.8666 38.2744 37.299 34.7706 37.306 30.4565C37.313 26.1377 33.8969 22.6195 29.691 22.6124C25.4804 22.6052 22.0504 26.1066 22.0434 30.4207L22.0457 30.4231ZM3.00592 8.6855C4.02187 8.6855 5.01452 8.70462 6.00717 8.68072C7.3843 8.64726 8.43054 7.57174 8.4655 6.15682C8.4888 5.17929 8.47249 4.20176 8.47016 3.22183C8.47016 3.17403 8.45385 3.12862 8.44918 3.10711C6.63865 4.96179 4.83743 6.80692 3.00592 8.6855Z" fill="#1C7F3C"/>
<path d="M16.1171 15.6621C18.8993 15.6621 21.6792 15.6621 24.4614 15.6621C25.0952 15.6621 25.496 16.0755 25.4261 16.6229C25.3725 17.0363 25.0743 17.3375 24.6642 17.3853C24.5337 17.3996 24.3985 17.3925 24.268 17.3925C18.8248 17.3925 13.3815 17.3925 7.93821 17.3925C7.85899 17.3925 7.77976 17.3925 7.70053 17.3925C7.1646 17.3757 6.78944 17.0196 6.78711 16.5249C6.78711 16.0253 7.14829 15.6668 7.69587 15.6644C9.64156 15.6573 11.5896 15.6621 13.5353 15.6597C14.3951 15.6597 15.2573 15.6597 16.1171 15.6597V15.6621Z" fill="#1C7F3C"/>
<path d="M13.5617 20.8795C15.5074 20.8795 17.4554 20.8747 19.4011 20.8819C20.0233 20.8819 20.4217 21.3193 20.3309 21.8714C20.2656 22.2705 19.9813 22.5549 19.5852 22.6027C19.4664 22.6171 19.3475 22.6123 19.2287 22.6123C15.4538 22.6123 11.6813 22.6123 7.90642 22.6123C7.7736 22.6123 7.64078 22.6195 7.51029 22.6003C7.08154 22.5334 6.77163 22.1486 6.78561 21.716C6.79959 21.2762 7.12348 20.9297 7.56389 20.8891C7.69438 20.8771 7.82953 20.8795 7.96001 20.8795C9.82648 20.8795 11.6953 20.8795 13.5617 20.8795Z" fill="#1C7F3C"/>
<path d="M12.7318 26.0969C14.3862 26.0969 16.0406 26.0945 17.695 26.0969C18.2053 26.0969 18.5339 26.3383 18.6248 26.7494C18.7483 27.3158 18.3755 27.8058 17.7859 27.8225C17.2174 27.8392 16.6488 27.8273 16.0779 27.8273C13.3772 27.8273 10.6789 27.8273 7.97825 27.8273C7.87339 27.8273 7.7662 27.8297 7.66134 27.8273C7.15337 27.8034 6.78986 27.4425 6.7852 26.9645C6.78054 26.4817 7.13706 26.1112 7.64969 26.1017C8.36505 26.0873 9.07809 26.0969 9.79345 26.0969C10.7721 26.0969 11.7531 26.0969 12.7318 26.0969Z" fill="#1C7F3C"/>
<path d="M12.6948 33.0473C11.0403 33.0473 9.38592 33.0521 7.7315 33.0473C6.98818 33.0449 6.55244 32.359 6.8973 31.7519C7.09304 31.4077 7.40528 31.3121 7.77578 31.3145C9.24378 31.3217 10.7141 31.3169 12.1821 31.3169C14.0206 31.3169 15.8615 31.3145 17.7 31.3169C18.2266 31.3169 18.5598 31.5798 18.6274 32.0172C18.7206 32.6051 18.3338 33.0425 17.6953 33.0449C16.2273 33.0497 14.757 33.0449 13.289 33.0449C13.0909 33.0449 12.8928 33.0449 12.6924 33.0449L12.6948 33.0473Z" fill="#1C7F3C"/>
<path d="M28.4056 31.6348C28.5384 31.5058 28.6432 31.4078 28.7434 31.305C29.9877 30.0287 31.2274 28.7452 32.4857 27.4833C32.6698 27.2993 32.9447 27.1606 33.1964 27.1081C33.5203 27.0387 33.8302 27.2276 33.9304 27.5383C34.0143 27.794 33.9747 28.1095 33.9257 28.3867C33.9024 28.5254 33.7393 28.6425 33.6275 28.7572C32.1501 30.2749 30.6705 31.7926 29.1908 33.3079C28.6199 33.891 28.2122 33.8887 27.6366 33.2983C26.9352 32.5789 26.2315 31.8595 25.5301 31.1377C25.0921 30.686 25.0501 30.1888 25.4113 29.8112C25.7818 29.424 26.2828 29.4623 26.7348 29.9212C27.2871 30.4828 27.8347 31.0517 28.4009 31.6372L28.4056 31.6348Z" fill="#1C7F3C"/>
</g>
<defs>
<clipPath id="clip0_195_417">
<rect width="39" height="40" fill="white"/>
</clipPath>
</defs>
</svg>
