<svg width="46" height="38" viewBox="0 0 46 38" fill="none" xmlns="http://www.w3.org/2000/svg">
<g clip-path="url(#clip0_195_409)">
<path d="M9.60729 10.7544C8.02557 10.7544 6.56052 10.7544 5.09546 10.7544C4.94082 10.7544 4.78617 10.7625 4.63153 10.749C4.1893 10.7114 3.86644 10.3809 3.86916 9.9778C3.86916 9.57472 4.19201 9.23881 4.63695 9.20925C4.94353 9.18776 5.25282 9.20119 5.56211 9.20119C6.87252 9.20119 8.18564 9.19851 9.49605 9.20119C9.75379 9.20119 10.0142 9.23881 10.3371 9.26569C10.3995 9.17432 10.489 9.03727 10.5786 8.90022C13.8912 3.86437 18.5523 0.884241 24.5644 0.145255C34.7113 -1.10162 43.9655 5.80992 45.7209 15.8386C47.4817 25.9076 40.7071 35.7133 30.5738 37.6105C23.9268 38.8547 18.129 37.0811 13.2536 32.4134C12.8304 32.0076 12.7544 31.6905 12.9742 31.3251C13.2564 30.8548 13.7935 30.8441 14.2765 31.2445C15.3047 32.0936 16.2814 33.0315 17.4046 33.7355C27.5515 40.0881 41.1331 34.8158 43.9357 23.0054C46.1984 13.4739 40.3463 4.26208 30.7339 1.99675C23.1428 0.212436 14.9466 3.88856 11.3247 10.7222C10.8824 11.5579 10.527 12.4366 10.1201 13.2938C9.84604 13.8716 9.44993 14.0651 8.99685 13.8608C8.53563 13.6512 8.43253 13.1998 8.7174 12.6032C8.99956 12.0147 9.28172 11.4262 9.60458 10.7517L9.60729 10.7544Z" fill="#1C7F3C"/>
<path d="M26.0426 12.6704C26.0426 10.7007 26.0426 8.73097 26.0426 6.76124C26.0426 6.60806 26.0371 6.45489 26.0561 6.30441C26.105 5.87445 26.4061 5.60573 26.8239 5.60842C27.2417 5.60842 27.5348 5.87983 27.5836 6.31516C27.6026 6.48177 27.5972 6.65106 27.5972 6.81767C27.5972 10.5905 27.6026 14.3607 27.5917 18.1336C27.5917 18.4802 27.6758 18.7167 27.9661 18.9451C29.5587 20.1973 31.1323 21.4765 32.714 22.7448C32.8334 22.8416 32.9609 22.9329 33.064 23.0431C33.3597 23.3495 33.376 23.7713 33.1155 24.0804C32.8659 24.3787 32.4156 24.4485 32.0737 24.2094C31.759 23.989 31.4687 23.7364 31.1703 23.4973C29.6374 22.2665 28.1099 21.0304 26.5662 19.8131C26.1945 19.5202 26.0344 19.1896 26.0371 18.7194C26.0534 16.704 26.0453 14.6885 26.0453 12.6731L26.0426 12.6704Z" fill="#1C7F3C"/>
<path d="M7.605 19.1601C5.45897 19.1601 3.33192 19.1601 1.20488 19.1601C1.00683 19.1601 0.800636 19.1601 0.608008 19.1171C0.203762 19.0311 0.0111341 18.749 0.000281813 18.3593C-0.0105704 17.9831 0.293293 17.6714 0.6894 17.623C0.841332 17.6042 0.995976 17.6096 1.15062 17.6096C5.79267 17.6096 10.4347 17.6096 15.0768 17.6096C15.2151 17.6096 15.3562 17.6069 15.4919 17.6203C15.9043 17.6607 16.1837 17.9428 16.2054 18.3298C16.2298 18.7221 15.9911 19.0419 15.5895 19.1225C15.4105 19.1574 15.2233 19.1601 15.0388 19.1601C13.1261 19.1601 11.2161 19.1601 9.20028 19.1601C9.25726 19.8776 9.30338 20.5682 9.37392 21.2588C9.42275 21.756 9.27082 22.0811 8.88014 22.2289C8.38636 22.4143 7.90886 22.1376 7.84104 21.584C7.74337 20.7993 7.68911 20.0093 7.60771 19.1628L7.605 19.1601Z" fill="#1C7F3C"/>
<path d="M14.5873 27.4498C13.1982 27.4498 11.8119 27.4498 10.4228 27.4498C9.81506 27.4498 9.48949 27.173 9.4922 26.6759C9.49492 26.1922 9.83405 25.9047 10.4364 25.902C13.2281 25.8966 16.0198 25.8966 18.8116 25.902C19.3949 25.902 19.7584 26.2218 19.753 26.6893C19.7476 27.1569 19.3867 27.4471 18.7953 27.4498C17.3926 27.4498 15.9873 27.4498 14.5846 27.4498H14.5873Z" fill="#1C7F3C"/>
<path d="M5.12274 27.4471C4.87585 27.4471 4.62896 27.4606 4.38207 27.4444C3.9724 27.4149 3.69024 27.1273 3.66583 26.7404C3.64141 26.3481 3.87202 25.9799 4.27084 25.945C4.85143 25.8966 5.44017 25.8966 6.02077 25.945C6.41959 25.9799 6.66376 26.3642 6.6312 26.7377C6.60136 27.1193 6.30835 27.4122 5.90682 27.4391C5.64636 27.4579 5.3832 27.4418 5.12003 27.4418L5.12274 27.4471Z" fill="#1C7F3C"/>
<path d="M41.3042 18.2354C41.7926 18.2381 42.1507 18.5659 42.1507 19.0039C42.1507 19.4446 41.7953 19.7698 41.3042 19.7751C40.7942 19.7805 40.4198 19.4366 40.4361 18.9824C40.4496 18.5417 40.8132 18.2327 41.3042 18.2354Z" fill="#1C7F3C"/>
<path d="M27.5941 32.8594C27.5941 33.3619 27.2848 33.6978 26.8181 33.6978C26.3515 33.6978 26.0449 33.3673 26.0449 32.8594C26.0449 32.3542 26.3515 32.021 26.8181 32.021C27.2821 32.021 27.5941 32.3569 27.5941 32.8594Z" fill="#1C7F3C"/>
</g>
<defs>
<clipPath id="clip0_195_409">
<rect width="46" height="38" fill="white"/>
</clipPath>
</defs>
</svg>
