<svg width="48" height="48" viewBox="0 0 48 48" fill="none" xmlns="http://www.w3.org/2000/svg">
<g clip-path="url(#clip0_195_405)">
<path d="M47.9992 26.8112C47.7711 27.1739 47.5843 27.5778 47.3013 27.8911C46.9551 28.273 46.4661 28.4187 45.9414 28.4159C45.0045 28.4104 44.0676 28.4159 43.128 28.4159C42.5181 28.4159 42.3972 28.5561 42.1801 29.1056C41.6334 30.4961 41.0674 31.8782 40.4603 33.2439C40.2597 33.6973 40.2597 34.0216 40.6224 34.3706C41.2872 35.0081 41.9356 35.6648 42.5813 36.3243C43.4742 37.2366 43.4907 38.421 42.6005 39.3305C41.518 40.4352 40.4246 41.5316 39.3201 42.6115C38.4299 43.4798 37.2376 43.4661 36.3474 42.6005C35.677 41.9465 35.0122 41.2842 34.361 40.611C34.0258 40.2648 33.6934 40.2153 33.2758 40.4544C31.9433 41.2183 30.5339 41.8036 29.0503 42.202C28.6079 42.3202 28.4074 42.5895 28.4156 43.0511C28.4294 43.9882 28.4266 44.9252 28.4156 45.8622C28.4046 47.1482 27.5502 47.9918 26.2562 47.9946C24.7396 48.0001 23.2258 48.0028 21.7092 47.9946C20.4481 47.9891 19.5937 47.1372 19.58 45.876C19.5717 44.9554 19.5635 44.0321 19.5827 43.1116C19.5937 42.617 19.4041 42.3202 18.9151 42.1883C17.4315 41.7899 16.0248 41.1963 14.6923 40.4352C14.2912 40.2071 13.9642 40.2675 13.6455 40.5973C13.0054 41.2595 12.3488 41.908 11.6921 42.5538C10.7443 43.4853 9.56565 43.488 8.61779 42.5538C7.54905 41.5013 6.49129 40.4406 5.43629 39.3717C4.50217 38.4264 4.50492 37.2394 5.43629 36.2996C6.07369 35.6538 6.70834 35.0081 7.36222 34.3816C7.71939 34.0381 7.78807 33.6973 7.53531 33.2577C6.77977 31.9387 6.19732 30.5455 5.80169 29.0754C5.67806 28.6138 5.41156 28.4022 4.92802 28.4077C3.99115 28.4214 3.05428 28.4187 2.11467 28.4077C0.856355 28.3967 0.00191087 27.5421 -0.00358395 26.2808C-0.0118262 24.7502 -0.0118262 23.2197 -0.00358395 21.6864C0.00191087 20.4333 0.864598 19.5815 2.12841 19.5732C3.04879 19.5677 3.97192 19.5595 4.8923 19.576C5.39233 19.5842 5.67256 19.3781 5.80444 18.8945C6.19732 17.4271 6.78252 16.0312 7.53806 14.715C7.77708 14.2973 7.72763 13.9621 7.38145 13.6268C6.71933 12.9866 6.07094 12.3298 5.4253 11.6731C4.51316 10.7498 4.50492 9.5572 5.41431 8.63391C6.48855 7.543 7.56828 6.45759 8.66175 5.38592C9.56565 4.49835 10.7553 4.51209 11.6674 5.40515C12.3378 6.06189 13.0027 6.72139 13.6538 7.39462C13.978 7.72711 14.3077 7.76558 14.7033 7.54026C16.0358 6.77634 17.4452 6.1883 18.9288 5.78985C19.3931 5.6662 19.5909 5.38317 19.58 4.90504C19.5635 4.12464 19.6184 3.33874 19.5662 2.56109C19.481 1.29157 19.9701 0.423241 21.1817 -0.0136719H26.8056C28.02 0.420493 28.5063 1.28882 28.4211 2.55835C28.3689 3.336 28.4239 4.11914 28.4074 4.89954C28.3964 5.37767 28.5915 5.66345 29.0558 5.78711C30.5256 6.17731 31.9186 6.75986 33.2373 7.51278C33.6714 7.76009 34.0121 7.72711 34.3638 7.36439C35.0012 6.6994 35.6578 6.05365 36.3144 5.4079C37.2376 4.5011 38.4272 4.49835 39.3531 5.41065C40.4328 6.47408 41.5043 7.543 42.5675 8.62292C43.4797 9.55171 43.4769 10.7333 42.5675 11.6621C41.9219 12.3216 41.2763 12.9756 40.6114 13.6131C40.246 13.9621 40.2542 14.2891 40.4548 14.7397C41.0592 16.1054 41.6252 17.4876 42.1719 18.8753C42.389 19.4221 42.5098 19.5622 43.1225 19.5622C44.0594 19.5622 44.9962 19.5677 45.9331 19.5622C46.4743 19.5622 46.9716 19.7216 47.326 20.1201C47.598 20.4251 47.7711 20.8153 47.9882 21.1698V22.5767C47.7546 22.8927 47.4909 23.1592 47.0541 22.9971C46.6227 22.8405 46.5568 22.4777 46.5815 22.0766C46.587 21.9831 46.5815 21.8897 46.5815 21.7963C46.5733 21.189 46.3672 20.9747 45.7683 20.9719C44.8616 20.9664 43.955 20.9719 43.0511 20.9719C41.8944 20.9664 41.2295 20.4031 40.8339 19.3259C40.3421 17.9822 39.7872 16.6605 39.1855 15.3635C38.7129 14.344 38.7898 13.4647 39.5784 12.6678C40.2267 12.0138 40.8834 11.3653 41.5318 10.7086C41.9329 10.3019 41.9356 9.98862 41.5318 9.58193C40.4877 8.52674 39.4382 7.47705 38.3832 6.43286C37.9821 6.03442 37.6689 6.04266 37.2568 6.44935C36.6002 7.09785 35.9545 7.75459 35.2979 8.40309C34.5149 9.17799 33.6027 9.32088 32.6494 8.78779C31.3499 8.06235 29.9844 7.49904 28.5502 7.09785C27.5887 6.82855 27.0144 6.05365 27.0035 5.05067C26.9925 4.09716 27.0035 3.14364 26.998 2.19288C26.9952 1.61857 26.7754 1.39599 26.2095 1.39324C24.7259 1.38775 23.2423 1.38775 21.7559 1.39324C21.1899 1.39324 20.9784 1.61857 20.9756 2.20112C20.9701 3.12166 20.9784 4.04495 20.9729 4.96549C20.9674 6.06189 20.3959 6.74337 19.3766 7.12533C18.0084 7.63643 16.654 8.197 15.327 8.80703C14.3379 9.26043 13.456 9.17525 12.673 8.39759C12.0191 7.74909 11.3707 7.09235 10.7141 6.44385C10.3047 6.04266 9.99149 6.03716 9.58762 6.43835C8.53537 7.48255 7.48311 8.53224 6.43909 9.58743C6.03797 9.99137 6.04347 10.3019 6.45008 10.7141C7.10946 11.3818 7.77708 12.0385 8.43646 12.7063C9.17002 13.451 9.31838 14.3687 8.8156 15.2783C8.08754 16.5945 7.51058 17.9685 7.10397 19.4193C6.82648 20.4031 6.05445 20.9637 5.01319 20.9719C4.07632 20.9801 3.13945 20.9719 2.19984 20.9747C1.62014 20.9774 1.40034 21.1917 1.3976 21.7578C1.3921 23.2417 1.3921 24.7255 1.3976 26.2094C1.3976 26.7754 1.62288 26.9898 2.19984 26.9925C3.12022 26.998 4.04335 26.9898 4.96648 26.9925C6.08468 27.0008 6.75504 27.5723 7.14243 28.633C7.62872 29.963 8.16721 31.2765 8.7689 32.557C9.27167 33.6314 9.20299 34.4942 8.37602 35.3296C7.73862 35.9726 7.09298 36.6101 6.45558 37.2531C6.05171 37.6625 6.04346 37.9758 6.44459 38.377C7.4886 39.4294 8.53811 40.4791 9.59312 41.5261C9.99699 41.9272 10.3102 41.9245 10.7196 41.5206C11.3762 40.8748 12.0246 40.2181 12.6785 39.5668C13.4642 38.7892 14.3406 38.704 15.3325 39.1574C16.6622 39.7647 18.0139 40.3252 19.3821 40.8391C20.4069 41.221 20.9729 41.9053 20.9784 42.9989C20.9839 43.9057 20.9784 44.8125 20.9784 45.7166C20.9784 46.3596 21.1844 46.5712 21.8081 46.5712C23.2615 46.5739 24.7149 46.5739 26.1682 46.5712C26.7947 46.5712 27.0007 46.3568 27.0035 45.7248C27.0062 44.818 27.0007 43.9112 27.0035 43.0072C27.009 41.8888 27.5887 41.2128 28.6382 40.8308C29.9679 40.3472 31.2812 39.8059 32.5615 39.2068C33.6549 38.693 34.5011 38.7672 35.3666 39.63C35.9985 40.2593 36.6249 40.8913 37.2568 41.5178C37.6689 41.9245 37.9794 41.9327 38.3832 41.5343C39.4382 40.4901 40.4877 39.4404 41.5318 38.3852C41.9356 37.9785 41.9329 37.6653 41.5318 37.2586C40.8751 36.5909 40.2048 35.9341 39.5454 35.2664C38.7953 34.508 38.658 33.5929 39.18 32.6559C39.9025 31.3534 40.4685 29.9905 40.8724 28.5588C41.1499 27.5723 41.9191 27.009 42.9577 27.0008C43.8945 26.9898 44.8314 27.0008 45.771 26.998C46.3672 26.9953 46.5733 26.7782 46.5815 26.1736C46.5815 26.0802 46.587 25.9868 46.5815 25.8934C46.5568 25.4922 46.6255 25.1294 47.0541 24.9728C47.4909 24.8134 47.7574 25.0772 47.9882 25.3932V26.8002L47.9992 26.8112Z" fill="#1C7F3C"/>
<path d="M10.7754 23.9974C10.7919 17.5316 15.7015 11.7995 21.9628 10.9614C22.636 10.8707 22.9904 11.0493 23.0591 11.511C23.125 11.9616 22.8173 12.2474 22.1552 12.3573C18.8775 12.8987 16.2647 14.5337 14.358 17.2376C9.26706 24.4645 13.7151 34.552 22.4821 35.6978C29.1116 36.5662 35.1614 31.7052 35.7439 25.0361C36.2851 18.8616 31.9689 13.3218 25.8642 12.3573C25.757 12.3408 25.6499 12.3189 25.5427 12.2914C25.1196 12.187 24.8806 11.8517 24.9548 11.4753C25.0317 11.0933 25.3696 10.8652 25.801 10.9229C27.7489 11.184 29.5677 11.8297 31.1886 12.9399C35.2163 15.6905 37.2852 19.5293 37.1862 24.4068C37.0516 31.0787 31.7601 36.6046 25.1306 37.1405C18.0286 37.7148 11.8194 32.6944 10.9045 25.6296C10.8331 25.0883 10.8193 24.5414 10.7781 23.9946L10.7754 23.9974Z" fill="#1C7F3C"/>
<path d="M23.0175 24.1183C23.1411 23.9232 23.2126 23.7528 23.3335 23.6319C24.6962 22.2579 26.0561 20.8785 27.4408 19.5265C28.8942 18.1086 31.2103 18.7159 31.7213 20.6422C31.9521 21.5133 31.7955 22.3431 31.1553 22.9916C28.9959 25.1817 26.8309 27.3663 24.6302 29.5124C23.6934 30.4246 22.2235 30.4219 21.2702 29.5096C19.7481 28.0532 18.2563 26.5639 16.8001 25.0415C15.8413 24.0386 15.921 22.4833 16.8935 21.5325C17.8854 20.5598 19.4321 20.5323 20.4404 21.505C21.2812 22.3156 22.0834 23.1647 23.0203 24.1155L23.0175 24.1183ZM30.4795 21.3621C30.4053 20.7988 30.1086 20.3811 29.614 20.219C29.081 20.0431 28.6799 20.2657 28.3145 20.6312C26.7512 22.203 25.1825 23.7693 23.6137 25.3356C23.1137 25.8357 22.795 25.8357 22.3004 25.3466C21.3828 24.4343 20.4734 23.511 19.5475 22.6014C19.031 22.0931 18.3414 22.0793 17.8771 22.541C17.4046 23.0081 17.4101 23.6841 17.9293 24.2089C19.3113 25.6076 20.7014 26.998 22.1026 28.3802C22.6356 28.9051 23.2703 28.9023 23.8033 28.3747C25.8858 26.3056 27.9601 24.2309 30.0234 22.1453C30.2267 21.9392 30.3284 21.6287 30.4767 21.3649L30.4795 21.3621Z" fill="#1C7F3C"/>
</g>
<defs>
<clipPath id="clip0_195_405">
<rect width="48" height="48" fill="white"/>
</clipPath>
</defs>
</svg>
