<svg width="46" height="48" viewBox="0 0 46 48" fill="none" xmlns="http://www.w3.org/2000/svg">
<g clip-path="url(#clip0_195_402)">
<path d="M12.5809 26.1319C14.4027 25.3858 16.1654 24.6625 17.8972 23.9533C15.0577 22.4243 13.2219 19.9989 12.5219 16.6913C12.2998 16.6601 12.0748 16.6459 11.864 16.592C11.0065 16.3764 10.3627 15.6275 10.2643 14.7396C10.1659 13.8517 10.6551 12.9553 11.4873 12.5724C11.7459 12.4532 11.8668 12.3426 11.8865 12.0249C12.1395 7.51737 14.324 4.32607 18.3695 2.42831C18.6198 2.312 18.7716 2.18719 18.8615 1.91203C19.1511 1.03548 19.8568 0.609976 20.6693 0.326305C22.0384 -0.150263 23.3991 -0.110549 24.7402 0.44261C25.4796 0.748975 26.0503 1.22554 26.3033 2.03684C26.3455 2.17584 26.5085 2.31768 26.6491 2.38008C30.3067 4.02254 32.4631 6.83656 33.135 10.8136C33.1575 10.9413 33.1715 11.0689 33.1772 11.1966C33.2165 11.8717 33.2025 12.4731 34.0149 12.8589C34.7684 13.2163 34.9989 14.2489 34.774 15.0772C34.5463 15.9197 33.8266 16.5409 32.9522 16.6346C32.733 16.6573 32.5699 16.6714 32.508 16.9523C31.8052 20.0982 30.0171 22.4101 27.2142 23.9363C27.1861 23.9504 27.1664 23.9788 27.0849 24.0526C30.4023 24.8979 33.3065 26.4553 35.8339 28.8239C35.8873 28.6367 35.9323 28.492 35.9689 28.3502C36.6886 25.6128 39.4213 23.9845 42.1399 24.6766C42.4997 24.7674 42.8596 24.8752 42.972 25.3064C43.0845 25.7291 42.854 26.0042 42.5813 26.2765C41.8166 27.0339 41.0744 27.814 40.3012 28.5601C40.0679 28.787 40.0145 28.997 40.1269 29.2806C40.1494 29.3402 40.1578 29.4054 40.1803 29.465C40.2731 29.7146 40.2984 30.0862 40.4755 30.1912C40.8073 30.3869 41.2262 30.4522 41.617 30.5231C41.7154 30.5401 41.8587 30.3983 41.9571 30.3018C42.7415 29.5189 43.5175 28.7275 44.299 27.9445C44.9653 27.2779 45.5979 27.4566 45.8369 28.37C46.6775 31.5784 44.3271 34.7356 41.0322 34.8264C40.7623 34.8349 40.4924 34.8264 40.2113 34.8264C40.5402 35.7597 40.9197 36.6646 41.1699 37.6035C41.4511 38.6588 41.6423 39.7396 41.8166 40.8204C41.9346 41.5551 41.6254 41.8728 40.8832 41.8756C38.3895 41.8813 35.8958 41.8756 33.4021 41.8785C33.2446 41.8785 33.09 41.8926 33.0028 41.8955C32.9326 42.6642 32.9494 43.4131 32.7836 44.1195C32.1313 46.9023 29.2468 48.5788 26.517 47.8157C25.637 47.5689 25.4767 46.9505 26.129 46.2867C26.8937 45.5066 27.6556 44.7237 28.44 43.9634C28.6705 43.7393 28.7436 43.5294 28.6171 43.2401C28.603 43.2117 28.5974 43.1777 28.589 43.1465C28.3725 42.321 28.0267 42.0288 27.1805 42.0061C27.0511 42.0033 26.8909 42.1139 26.7869 42.216C25.9884 43.0075 25.204 43.8131 24.4084 44.6074C23.7787 45.2343 23.1096 45.0698 22.9353 44.1961C22.7891 43.4642 22.7694 42.7039 22.6878 41.9097H19.0893C19.1933 42.4543 18.8812 42.7976 18.5242 43.138C18.035 43.6032 17.5683 44.0883 17.0988 44.5733C16.7924 44.8882 16.4297 44.9988 16.0614 44.7577C15.3304 44.2812 14.6754 44.3776 13.8882 44.7237C13.2388 45.0102 12.8592 45.3478 12.6568 46.0172C12.4375 46.7377 12.2548 46.8257 11.4957 46.8257C10.7928 46.8257 10.09 46.8172 9.38715 46.8285C8.91202 46.837 8.55498 46.6555 8.44533 46.1818C8.25697 45.3761 7.77903 44.9762 7.01152 44.6613C6.30305 44.3719 5.74077 44.3095 5.1054 44.7095C4.64433 44.9988 4.23949 44.9024 3.86557 44.4996C3.35109 43.9464 2.81411 43.4188 2.27433 42.8883C1.9482 42.5706 1.81045 42.1962 2.06066 41.8047C2.53579 41.0643 2.43739 40.4062 2.0944 39.6119C1.81045 38.9566 1.48433 38.5709 0.815214 38.3723C0.109554 38.1652 0.0139669 37.9581 0.0139669 37.1979C0.0139669 36.4887 0.022401 35.7767 0.0139669 35.0675C0.00553267 34.5909 0.177028 34.2222 0.649342 34.1144C1.47589 33.9243 1.86949 33.4137 2.17593 32.6194C2.4402 31.9386 2.47675 31.4138 2.13938 30.7812C1.79077 30.1316 1.86105 29.9671 2.39522 29.4253C2.91532 28.9005 3.43824 28.3814 3.95273 27.8481C4.26198 27.5275 4.62465 27.4368 4.99294 27.6665C5.70423 28.1119 6.33398 28.0693 7.11554 27.7176C7.78747 27.4141 8.20636 27.0793 8.40878 26.3673C8.60277 25.6865 8.77989 25.6128 9.49961 25.6128C10.1715 25.6128 10.8435 25.6326 11.5126 25.6071C12.0214 25.5872 12.4319 25.6922 12.5949 26.1262L12.5809 26.1319ZM35.9042 31.1926C30.3939 24.6199 20.5006 23.2583 13.6408 27.5247C13.6633 27.5446 13.683 27.5672 13.7083 27.5814C14.4814 28.0523 15.2517 28.2424 16.0811 27.6665C16.4381 27.4169 16.8092 27.5559 17.1129 27.8708C17.602 28.3785 18.1053 28.875 18.6029 29.3771C19.1933 29.9728 19.2551 30.1203 18.8728 30.855C18.5663 31.4422 18.6085 31.9188 18.8362 32.5513C19.1455 33.4052 19.5813 33.9385 20.4556 34.1456C20.8661 34.242 21.0235 34.5739 21.0151 34.9938C21.0066 35.5412 21.0151 36.0916 21.0151 36.6391C21.0179 38.168 21.1219 38.0376 19.6768 38.6049C19.525 38.6645 19.3254 38.7524 19.2664 38.8801C19.064 39.3283 18.9121 39.802 18.7266 40.3013C18.9009 40.3098 19.0387 40.3239 19.1792 40.3239C20.4415 40.3239 21.7039 40.3126 22.9662 40.3325C23.2811 40.3381 23.4441 40.2218 23.6156 39.9665C24.802 38.1907 26.8318 37.3681 28.9207 37.8078C29.2075 37.8673 29.3902 37.7993 29.5926 37.595C31.6084 35.5469 33.6326 33.5073 35.6568 31.4649C35.744 31.3769 35.8255 31.2805 35.907 31.1897L35.9042 31.1926ZM4.82707 29.292C4.77365 29.2948 4.73148 29.2863 4.71462 29.3033C4.36881 29.638 3.98646 29.9444 3.71095 30.3302C3.62379 30.4522 3.79248 30.8068 3.90775 31.0195C4.20294 31.567 4.20294 32.0606 3.85152 32.6024C3.6013 32.9854 3.39607 33.4364 3.31173 33.8846C3.16835 34.6562 2.73821 35.0647 2.01849 35.2434C1.85543 35.2831 1.58835 35.3824 1.5771 35.4788C1.52931 35.9582 1.49838 36.4518 1.5771 36.9199C1.6024 37.0702 1.97351 37.1979 2.20404 37.2631C2.80849 37.4333 3.11774 37.8021 3.26956 38.4233C3.39607 38.9481 3.63504 39.4559 3.90212 39.9268C4.16639 40.3949 4.19451 40.8062 3.95554 41.2913C3.58725 42.043 3.60974 42.0543 4.19451 42.6444C4.73711 43.1919 4.74835 43.2146 5.46245 42.8515C5.95725 42.599 6.37896 42.616 6.8569 42.9025C7.26455 43.1493 7.70875 43.3904 8.16701 43.4755C8.9795 43.623 9.3759 44.1053 9.56989 44.8513C9.60925 44.9988 9.70484 45.2371 9.79199 45.2456C10.2671 45.2854 10.7591 45.3279 11.2174 45.2371C11.3776 45.2059 11.5069 44.8059 11.5744 44.5535C11.729 43.9691 12.0973 43.7053 12.6596 43.5379C13.25 43.3649 13.7898 43.0217 14.3746 42.8202C14.6641 42.721 15.0127 42.7238 15.322 42.7692C15.5806 42.8061 15.8196 42.9791 16.0698 43.0812C16.1514 43.1153 16.2891 43.1607 16.3313 43.1238C16.6799 42.7947 17.0707 42.4855 17.3209 42.0884C17.4137 41.938 17.186 41.5664 17.0735 41.3054C16.9132 40.9282 16.7895 40.5849 16.9976 40.1594C17.3265 39.4843 17.5542 38.7581 17.8804 38.0829C18.0069 37.8191 18.2571 37.5922 18.4989 37.4163C18.6985 37.2716 18.9712 37.2319 19.2045 37.1298C19.2973 37.0873 19.4435 37.0078 19.4463 36.9397C19.466 36.4575 19.5278 35.9554 19.4154 35.5015C19.3676 35.3171 18.9234 35.215 18.6451 35.1101C18.2683 34.9682 17.9928 34.7697 17.8466 34.3527C17.6049 33.6577 17.2731 32.9939 17.0341 32.2989C16.9386 32.0209 16.9498 31.689 16.9835 31.3883C17.0088 31.1755 17.1353 30.9656 17.2478 30.7727C17.3996 30.5089 17.3856 30.299 17.1353 30.1061C17.0088 30.0097 16.8879 29.8962 16.798 29.7657C16.4747 29.2948 16.1036 29.2381 15.6313 29.5529C15.128 29.8877 14.6473 29.8338 14.1159 29.5217C13.6127 29.2267 13.042 29.0338 12.4825 28.8523C12.0664 28.719 11.7712 28.5204 11.6447 28.0835C11.5885 27.8821 11.5266 27.6694 11.4085 27.5048C11.3073 27.3658 11.1358 27.2467 10.9728 27.19C10.8153 27.1361 10.6214 27.2041 10.4499 27.1729C9.88477 27.0765 9.56146 27.2807 9.44338 27.8708C9.33092 28.4438 8.96263 28.7502 8.37786 28.8977C7.8437 29.031 7.32078 29.2693 6.84003 29.5473C6.35647 29.8281 5.92914 29.8707 5.44839 29.5898C5.24316 29.4707 5.01262 29.3913 4.81301 29.3033L4.82707 29.292ZM26.2443 3.94028C26.1852 4.3828 26.129 4.77994 26.0784 5.17708C25.9491 6.18411 25.8254 7.19115 25.6876 8.19818C25.6201 8.68893 25.28 8.96976 24.8386 8.92438C24.4 8.87899 24.1357 8.53008 24.1638 8.03081C24.1695 7.93437 24.1863 7.83792 24.2004 7.74431C24.4056 6.16142 24.6108 4.58137 24.8189 2.99849C24.8723 2.58433 24.8301 2.21839 24.4112 2.01131C23.1855 1.40142 21.9541 1.39291 20.7255 1.99429C20.3544 2.17584 20.2082 2.47653 20.2757 2.91055C20.3966 3.67362 20.4837 4.44237 20.5793 5.21112C20.6974 6.13873 20.8183 7.06633 20.9195 7.99394C20.9757 8.51589 20.7311 8.85346 20.2982 8.9187C19.8371 8.98679 19.5138 8.72297 19.4098 8.18683C19.3845 8.06202 19.376 7.93153 19.3592 7.80388C19.1933 6.52736 19.0274 5.25367 18.8615 3.97432C16.0024 4.70335 12.952 9.44917 13.4637 12.3426H16.6405C16.6405 11.8632 16.6405 11.415 16.6405 10.9668C16.6405 9.80659 16.6349 8.64354 16.649 7.48333C16.6546 7.0096 16.9639 6.69756 17.3771 6.68338C17.782 6.66919 18.1109 6.97839 18.1643 7.4351C18.1812 7.57978 18.1756 7.72445 18.1756 7.86912C18.1756 9.19103 18.1756 10.5129 18.1756 11.8377C18.1756 12.0079 18.1924 12.1781 18.2009 12.3398H26.9302C26.9302 12.127 26.9302 11.9511 26.9302 11.7781C26.9302 10.391 26.9162 9.00381 26.9415 7.61665C26.9471 7.36702 27.0399 7.03229 27.2142 6.89897C27.4026 6.75429 27.754 6.71742 27.9986 6.77982C28.3612 6.87627 28.4653 7.22235 28.4653 7.59112C28.4653 9.00948 28.4653 10.4307 28.4653 11.849C28.4653 12.0164 28.4653 12.1866 28.4653 12.3398H31.6815C31.8136 8.89885 29.3846 5.13737 26.2443 3.94595V3.94028ZM30.9421 16.7026H14.1328C14.8047 20.24 18.2655 23.7887 23.163 23.5107C26.8403 23.3008 30.7088 19.9592 30.9449 16.7026H30.9421ZM40.498 26.2425C40.4699 26.1971 40.4446 26.1517 40.4165 26.1035C40.2787 26.129 40.1382 26.1432 40.0004 26.1801C37.9903 26.7077 36.8488 28.8154 37.5095 30.838C37.6782 31.3543 37.5882 31.7145 37.2115 32.0918C34.8837 34.4179 32.5671 36.7554 30.2646 39.107C29.8681 39.5098 29.5055 39.6176 28.946 39.4247C27.1214 38.8006 25.1675 39.7708 24.4984 41.5834C24.4084 41.8274 24.3662 42.0912 24.3044 42.3465C24.3438 42.3692 24.3831 42.3919 24.4225 42.4146C24.9904 41.8359 25.5695 41.2657 26.1262 40.6757C26.4242 40.358 26.7587 40.27 27.1664 40.3835C27.7821 40.5566 28.395 40.7353 29.0135 40.8828C29.4605 40.9877 29.691 41.2629 29.795 41.6941C29.9131 42.1791 30.0171 42.6699 30.183 43.138C30.4276 43.8301 30.3067 44.3634 29.7304 44.8485C29.1906 45.3024 28.7239 45.8442 28.1616 46.4144C30.5007 46.1108 31.9233 43.9436 31.2429 41.799C31.0405 41.1636 31.1698 40.7551 31.6253 40.3041C33.9137 38.029 36.1825 35.737 38.4373 33.4279C38.8534 32.9995 39.2441 32.9116 39.8036 33.096C41.5382 33.669 43.4191 32.8095 44.1528 31.133C44.2878 30.821 44.3524 30.4777 44.448 30.1487L44.3215 30.0749C43.7536 30.6564 43.1773 31.2294 42.6206 31.8195C42.3142 32.1429 41.9852 32.2592 41.5439 32.123C40.9338 31.9358 40.3153 31.7769 39.694 31.6237C39.2723 31.5188 39.0417 31.2606 38.9377 30.8436C38.7943 30.265 38.6566 29.6863 38.4794 29.1189C38.322 28.614 38.4148 28.2197 38.8084 27.8594C39.3847 27.3318 39.9357 26.773 40.4952 26.2283L40.498 26.2425ZM22.5248 15.1084C25.8507 15.1084 29.1737 15.1084 32.4996 15.1084C33.045 15.1084 33.3037 14.9013 33.2924 14.4985C33.284 14.1156 33.0282 13.9198 32.5165 13.9198C25.8675 13.9198 19.2158 13.9198 12.5668 13.9198C12.0636 13.9198 11.7965 14.1269 11.7881 14.5042C11.7825 14.8815 12.0524 15.0971 12.5472 15.1084C12.6737 15.1112 12.803 15.1084 12.9295 15.1084C16.1261 15.1084 19.3226 15.1084 22.522 15.1084H22.5248ZM38.755 35.5072C37.1581 37.1185 35.5725 38.7184 34.0009 40.3013H40.1916C39.9498 38.5879 39.4437 36.9908 38.755 35.5072Z" fill="#1C7F3C"/>
<path d="M10.5178 41.6205C7.54899 41.6205 5.1565 39.2007 5.16212 36.2052C5.16493 33.2181 7.5996 30.7729 10.5375 30.7956C13.4782 30.8183 15.8707 33.238 15.8848 36.1995C15.8988 39.1695 13.4754 41.6205 10.5178 41.6205ZM10.5375 40.0716C12.6348 40.0631 14.3469 38.3327 14.3497 36.2165C14.3497 34.0947 12.587 32.3246 10.4925 32.3444C8.36711 32.3671 6.67746 34.106 6.69433 36.2591C6.70838 38.3781 8.42333 40.0773 10.5375 40.0688V40.0716Z" fill="#1C7F3C"/>
</g>
<defs>
<clipPath id="clip0_195_402">
<rect width="46" height="48" fill="white"/>
</clipPath>
</defs>
</svg>
