<svg width="148" height="48" viewBox="0 0 148 48" fill="none" xmlns="http://www.w3.org/2000/svg">
<path d="M62.5188 31.884L68.8172 27.093C68.24 25.8826 67.5508 24.986 66.7327 24.4089C65.6792 23.6916 64.5305 23.333 63.2865 23.333C61.5438 23.333 60.0869 23.9214 58.9158 25.1037C57.7446 26.2861 57.1562 27.7542 57.1562 29.5081C57.1562 31.234 57.739 32.6685 58.9045 33.8172C60.0701 34.9659 61.5046 35.5431 63.2136 35.5431C64.6369 35.5431 65.8977 35.1284 66.996 34.2991C67.5396 33.8676 68.0495 33.2624 68.5314 32.4779L66.2788 31.1835C65.4158 32.3491 64.3848 32.9318 63.1912 32.9318C62.7261 32.9318 62.3003 32.8422 61.908 32.6685C61.5158 32.4948 61.146 32.237 60.7929 31.9008C60.1037 31.2003 59.7619 30.399 59.7619 29.5081C59.7619 28.5667 60.1317 27.7262 60.8658 26.9921C61.5998 26.258 62.446 25.8882 63.4042 25.8882C64.2671 25.8882 65.0012 26.2412 65.6064 26.9417L61.2244 30.2702L62.5188 31.884Z" fill="black"/>
<path d="M106.813 23.2432C105.087 23.2432 103.613 23.8483 102.381 25.0643C101.154 26.2803 100.537 27.7596 100.537 29.5191C100.537 31.2282 101.125 32.6627 102.297 33.8282C103.468 34.9937 104.919 35.5765 106.645 35.5765C107.222 35.5765 107.984 35.4252 108.942 35.1226V32.2984C108.253 32.6683 107.609 32.8476 107.004 32.8476C105.984 32.8476 105.126 32.5114 104.432 31.8277C103.737 31.1497 103.389 30.3316 103.389 29.3734C103.389 28.8803 103.468 28.4376 103.63 28.0566C103.787 27.6755 104.028 27.3113 104.348 26.9807C105.003 26.3251 105.793 26.0001 106.718 26.0001C107.71 26.0001 108.511 26.3699 109.122 27.104C109.738 27.838 110.046 28.7738 110.046 29.9057V35.3636H112.848V29.8105C112.848 27.8605 112.282 26.2803 111.15 25.0699C110.013 23.8483 108.573 23.2432 106.813 23.2432Z" fill="black"/>
<path d="M69.6953 25.9946H73.5505V35.3581H76.3299V25.9946H79.9441V23.4058H69.6953V25.9946Z" fill="black"/>
<path d="M113.09 25.9946H116.945V35.3581H119.724V25.9946H123.344V23.4058H113.09V25.9946Z" fill="black"/>
<path d="M147.943 33.6824C147.943 32.8362 147.787 32.0966 147.478 31.4578C147.165 30.819 146.699 30.2362 146.077 29.7095C145.887 29.5638 145.724 29.4517 145.584 29.3733C145.45 29.2948 145.259 29.1884 145.024 29.0595C145.949 28.6112 146.655 28.0677 147.142 27.4176C147.63 26.7732 147.871 26.0336 147.871 25.2043L147.966 23.6017H145.142L145.069 24.8232C145.069 25.6245 144.649 26.3362 143.814 26.9638C142.973 27.597 142.037 27.9108 141.001 27.9108L140.524 27.8883L140.513 23.4111H137.723V35.3578H140.502V30.3763L140.911 30.3539C142.138 30.3539 143.147 30.6733 143.926 31.3121C144.71 31.9509 145.097 32.7634 145.097 33.7552L145.147 35.3578H147.999L147.943 33.6824Z" fill="black"/>
<path d="M90.0313 28.1743L84.7584 17.8022H81.6484V35.3581H84.7584V24.0053L88.7425 31.8447H91.3201L95.2986 24.0053V35.3581H98.4142V17.8022H95.2986L90.0313 28.1743Z" fill="black"/>
<path d="M128.392 31.9791C127.871 31.4524 127.613 30.7912 127.613 29.9899V23.4058H124.834V30.0627C124.834 31.6093 125.355 32.8813 126.392 33.8675C127.428 34.8593 128.762 35.3525 130.393 35.3525C130.981 35.3525 131.536 35.2852 132.046 35.1563V32.2761C131.586 32.6011 131.031 32.7636 130.37 32.7636C129.569 32.7692 128.913 32.5059 128.392 31.9791Z" fill="black"/>
<path d="M133.145 26.7455V29.9955V34.7529V35.3581H135.924V30.0627V23.4058H133.145V26.7455Z" fill="black"/>
<path d="M55.9787 30.3038C55.9787 30.287 55.9787 30.2646 55.9787 30.2478C55.9787 30.1357 55.9731 30.0236 55.9619 29.9172C55.8835 28.7124 55.424 27.6645 54.5779 26.7736C53.6477 25.793 52.5214 25.2999 51.2158 25.2999H48.414V27.984H50.7843C50.8011 27.984 50.8179 27.984 50.8347 27.9896C50.93 27.9896 51.0196 28.0008 51.1093 28.0176C51.1765 28.0288 51.2438 28.0456 51.3054 28.068C51.3446 28.0792 51.3783 28.0904 51.4175 28.1072C51.7145 28.2249 51.989 28.421 52.2468 28.7012C52.6671 29.1719 52.88 29.7098 52.8912 30.3206C52.8856 30.937 52.6727 31.4861 52.2468 31.9568C51.8153 32.4387 51.3278 32.6741 50.7843 32.6741H47.3101V31.0155V27.984V25.2999V21.9266V20.7778H47.8312H50.0782H50.7114H54.8244V18.0938H51.2382H50.0782H44.1777V35.3582H51.2158C52.527 35.3582 53.6477 34.8651 54.5779 33.8845C55.5136 32.9038 55.9787 31.7271 55.9787 30.3542C55.9787 30.343 55.9787 30.3262 55.9787 30.315V30.3038Z" fill="black"/>
<path d="M45.5117 2.48236L38.328 6.62896L44.0156 9.91262V16.4743L51.2049 12.3277V5.76602L45.5117 2.48236ZM49.4902 11.3359L45.7303 13.4989V8.91519L44.8729 8.42208L41.7574 6.62896L45.5061 4.466L49.4846 6.75784V11.3359H49.4902ZM34.9995 14.1377L25.171 8.46691L24.3136 7.9738L23.4507 8.46691L13.9471 13.9528L11.3303 15.4713L13.9752 16.9394L23.1201 22.005V35.3133L25.6865 33.8284L34.9995 28.449L35.8569 27.9559V14.6364L34.9995 14.1377ZM34.1422 26.9697L24.8292 32.3491V21.002L14.8045 15.4377L24.3193 9.95184L34.1478 15.6226V26.9697H34.1422ZM34.9995 14.1377L25.171 8.46691L24.3136 7.9738L23.4507 8.46691L13.9471 13.9528L11.3303 15.4713L13.9752 16.9394L23.1201 22.005V35.3133L25.6865 33.8284L34.9995 28.449L35.8569 27.9559V14.6364L34.9995 14.1377ZM34.1422 26.9697L24.8292 32.3491V21.002L14.8045 15.4377L24.3193 9.95184L34.1478 15.6226V26.9697H34.1422ZM34.9995 14.1377L25.171 8.46691L24.3136 7.9738L23.4507 8.46691L13.9471 13.9528L11.3303 15.4713L13.9752 16.9394L23.1201 22.005V35.3133L25.6865 33.8284L34.9995 28.449L35.8569 27.9559V14.6364L34.9995 14.1377ZM34.1422 26.9697L24.8292 32.3491V21.002L14.8045 15.4377L24.3193 9.95184L34.1478 15.6226V26.9697H34.1422ZM34.9995 14.1377L25.171 8.46691L24.3136 7.9738L23.4507 8.46691L13.9471 13.9528L11.3303 15.4713L13.9752 16.9394L23.1201 22.005V35.3133L25.6865 33.8284L34.9995 28.449L35.8569 27.9559V14.6364L34.9995 14.1377ZM34.1422 26.9697L24.8292 32.3491V21.002L14.8045 15.4377L24.3193 9.95184L34.1478 15.6226V26.9697H34.1422ZM20.408 0L0 11.7786V35.3414L20.408 47.1256L40.816 35.347V11.7786L20.408 0ZM39.1013 34.3551L20.408 45.1419L1.72028 34.3551V12.7704L20.408 1.97804L39.1013 12.7704V34.3551ZM11.3303 15.4713L13.9752 16.9394L23.1201 22.005V35.3133L25.6865 33.8284L34.9995 28.449L35.8569 27.9559V14.6364L34.9995 14.1433L25.171 8.46691L24.3136 7.9738L23.4507 8.46691L13.9471 13.9528L11.3303 15.4713ZM24.3193 9.95184L34.1478 15.6226V26.9697L24.8348 32.3491V21.002L14.8101 15.4377L24.3193 9.95184Z" fill="black"/>
<path d="M49.4907 6.75222V11.3359L45.7307 13.4989V8.91518L44.8734 8.42207L41.7578 6.62894L45.5066 4.46599L49.4907 6.75222ZM39.1017 12.7704V34.3551L20.4084 45.1419L1.7207 34.3551V12.7704L20.4084 1.97803L39.1017 12.7704ZM35.8573 14.6364L35 14.1433L25.1714 8.4669L24.3141 7.97379L23.4511 8.4669L13.9476 13.9527L11.3307 15.4713L13.9756 16.9394L23.1205 22.005V35.3133L25.6869 33.8284L35 28.449L35.8573 27.9559V14.6364Z" fill="#1C7F3C"/>
</svg>
