<svg width="50" height="50" viewBox="0 0 50 50" fill="none" xmlns="http://www.w3.org/2000/svg">
<path d="M49.5484 25.6838C49.4049 26.659 49.304 27.6433 49.1101 28.6081C48.2012 33.1499 46.0319 37.0298 42.8865 40.3741C40.306 43.119 37.2653 45.2098 33.8083 46.6869C33.6907 46.7376 33.5718 46.787 33.3559 46.878C33.8148 47.0861 34.2026 47.2577 34.5866 47.4384C35.1128 47.6868 35.2809 48.0651 35.0831 48.5293C34.8904 48.9805 34.4651 49.1353 33.9544 48.9129C32.9499 48.476 31.9493 48.0313 30.9525 47.5776C30.3604 47.3084 30.2143 46.8234 30.5647 46.2708C31.1529 45.3411 31.7515 44.4192 32.3591 43.5025C32.6577 43.0513 33.1387 42.9447 33.5252 43.2113C33.904 43.4726 33.9725 43.9095 33.6985 44.3698C33.5537 44.6117 33.3972 44.847 33.2447 45.085C33.2718 45.1201 33.299 45.1552 33.3274 45.1903C34.2492 44.7092 35.1968 44.2723 36.0876 43.7379C41.3959 40.5522 45.1864 36.1041 47.0532 30.1242C48.4546 25.637 48.1741 21.1732 46.6512 16.7614C46.5878 16.5781 46.5141 16.3973 46.4572 16.2127C46.2956 15.6926 46.4908 15.257 46.9446 15.1075C47.3661 14.9696 47.794 15.1855 47.9608 15.6861C48.2827 16.6522 48.6395 17.6144 48.8541 18.6065C49.1243 19.8534 49.2665 21.1277 49.4643 22.3889C49.4889 22.5462 49.5212 22.7023 49.5496 22.8596V25.6825L49.5484 25.6838Z" fill="#1C7F3C"/>
<path d="M13.5432 31.2282C13.0959 30.045 12.7003 28.9709 12.2789 27.9073C12.231 27.7864 12.05 27.6512 11.9221 27.6408C11.5058 27.6057 11.0843 27.6369 10.6654 27.6239C9.61568 27.5914 8.82836 26.8229 8.80379 25.7762C8.78181 24.8686 8.78311 23.9597 8.80638 23.0522C8.83223 22.0002 9.62861 21.2253 10.6654 21.2097C11.149 21.2019 11.6312 21.2097 12.0979 21.2097C12.4456 20.3554 12.7559 19.5103 13.1308 18.6937C13.5665 17.7419 13.5911 17.7536 12.8438 17.0033C11.7398 15.8942 11.7424 14.8956 12.8632 13.7839C13.392 13.2599 13.9195 12.7359 14.4702 12.2366C15.2989 11.4837 16.3564 11.5072 17.1605 12.2912C17.5174 12.6397 17.838 13.0259 18.0823 13.295C19.2989 12.8321 20.3809 12.4277 21.454 12.0013C21.5639 11.957 21.6867 11.7893 21.6944 11.671C21.7242 11.251 21.6983 10.8284 21.7087 10.4071C21.7358 9.2369 22.4947 8.47104 23.6634 8.45024C24.4856 8.43594 25.3079 8.43984 26.1301 8.45024C27.2341 8.46454 27.9788 9.18619 28.0383 10.2914C28.0667 10.8219 27.8974 11.4785 28.1508 11.8478C28.3873 12.1924 29.0738 12.2067 29.5444 12.4095C30.1805 12.6813 30.7984 12.9946 31.5922 13.3691C31.8456 13.0727 32.1378 12.6865 32.4752 12.3432C33.2225 11.5826 34.3472 11.5514 35.119 12.2886C35.7732 12.914 36.4054 13.5655 37.0078 14.2403C37.7318 15.0504 37.6827 16.1257 36.9277 16.9136C36.6484 17.2062 36.3459 17.4766 36.0809 17.7809C35.9981 17.8758 35.9348 18.0761 35.9787 18.1775C36.2127 18.7275 36.5075 19.2515 36.7337 19.8041C36.9535 20.3411 37.1138 20.9015 37.3116 21.4866C37.8171 21.4866 38.3317 21.4775 38.8462 21.4879C39.958 21.5127 40.726 22.2681 40.7505 23.3863C40.7699 24.2614 40.7686 25.1378 40.7479 26.0129C40.7234 27.0986 39.9477 27.8618 38.8695 27.893C38.3873 27.9073 37.7848 27.7448 37.4577 27.9775C37.1358 28.2064 37.1125 28.8409 36.9225 29.2817C36.6807 29.846 36.4325 30.4116 36.1313 30.9447C35.9594 31.249 35.9904 31.4271 36.2438 31.6404C36.4907 31.8471 36.7066 32.0916 36.9328 32.323C37.6814 33.0889 37.7525 34.1655 37.035 34.9469C36.3795 35.6595 35.6801 36.3382 34.9484 36.9727C34.2115 37.6125 33.1514 37.5332 32.4377 36.857C32.1443 36.5788 31.8534 36.2966 31.5845 35.9962C31.4048 35.7947 31.2664 35.7817 31.0092 35.8961C30.0693 36.3135 29.1061 36.6763 28.1624 37.0846C28.0279 37.1431 27.8767 37.3277 27.8612 37.4681C27.8185 37.8361 27.8521 38.2132 27.8456 38.5851C27.8237 39.819 27.0583 40.5914 25.8418 40.5823C24.8916 40.5745 23.9388 40.5641 22.9911 40.4977C22.156 40.4405 21.5212 39.7358 21.4734 38.8841C21.4488 38.4472 21.4462 38.0078 21.4669 37.5709C21.4798 37.2952 21.3751 37.1899 21.1243 37.0898C20.1831 36.7166 19.251 36.3213 18.328 35.9052C18.1017 35.8038 17.9634 35.783 17.7889 35.978C17.5419 36.2563 17.2704 36.5111 17.0054 36.7712C16.2504 37.5097 15.1683 37.5592 14.3939 36.8323C13.7113 36.1913 13.0584 35.5126 12.4379 34.8117C11.7618 34.0472 11.8212 32.9536 12.5361 32.2125C12.8943 31.8419 13.2743 31.4934 13.5445 31.2308L13.5432 31.2282ZM24.6291 38.9842C25.0157 38.9842 25.4035 38.979 25.7901 38.9855C26.1172 38.992 26.2477 38.8477 26.2387 38.5136C26.2206 37.8647 26.2283 37.2159 26.2361 36.5671C26.2413 36.1042 26.4585 35.7908 26.9239 35.7037C28.3679 35.4319 29.6944 34.8702 30.9329 34.0823C31.3414 33.8235 31.7228 33.869 32.068 34.2214C32.4985 34.6609 32.951 35.0783 33.3634 35.5334C33.6543 35.8545 33.8753 35.8272 34.1598 35.5334C34.6433 35.0341 35.141 34.5478 35.6555 34.0797C35.949 33.8118 35.9749 33.6025 35.6749 33.3229C35.2496 32.9263 34.8449 32.5063 34.4403 32.0877C34.0434 31.6781 34.0046 31.3543 34.3149 30.8719C35.0751 29.69 35.6206 28.4209 35.9283 27.0466C36.0576 26.4692 36.3213 26.2794 36.9277 26.2742C37.5081 26.269 38.0886 26.2612 38.6691 26.2781C39.013 26.2872 39.1759 26.1702 39.1681 25.8048C39.1539 25.0585 39.1565 24.3121 39.1681 23.5671C39.1733 23.216 39.0272 23.0678 38.6768 23.073C38.0162 23.0847 37.3543 23.073 36.6937 23.0756C36.1985 23.0769 35.9012 22.8324 35.8133 22.35C35.5573 20.9431 35.0078 19.6585 34.2619 18.4492C33.9232 17.9018 33.9632 17.6236 34.4209 17.1581C34.8398 16.7303 35.2574 16.3012 35.6904 15.889C35.94 15.6511 35.9723 15.4547 35.715 15.1973C35.1888 14.672 34.673 14.135 34.1688 13.5876C33.9258 13.3236 33.7267 13.3275 33.4836 13.5811C33.0699 14.0141 32.6446 14.4353 32.2179 14.854C31.8146 15.248 31.5082 15.2987 31.0518 14.9996C29.8508 14.2117 28.5515 13.6695 27.1592 13.3379C26.6278 13.2118 26.4378 12.9569 26.43 12.4069C26.4223 11.775 26.4171 11.1418 26.4326 10.5086C26.4404 10.1848 26.3434 10.0301 25.9956 10.0379C25.2536 10.0535 24.5115 10.047 23.7707 10.0405C23.4501 10.0379 23.3027 10.1601 23.3105 10.502C23.3273 11.1665 23.3143 11.8322 23.3143 12.4966C23.3143 12.9855 23.0829 13.3145 22.6059 13.4003C21.1734 13.6604 19.869 14.2299 18.6369 14.9931C18.1638 15.287 17.8638 15.248 17.4669 14.8618C17.0157 14.4223 16.5658 13.9789 16.1328 13.52C15.8897 13.2625 15.6906 13.2612 15.4424 13.5122C14.9175 14.0401 14.3849 14.5602 13.8393 15.0647C13.5639 15.3195 13.6105 15.5146 13.8561 15.7499C14.2763 16.153 14.6835 16.5691 15.0895 16.9864C15.5057 17.4142 15.5432 17.7367 15.2187 18.2425C14.4689 19.4114 13.9272 20.6649 13.6234 22.0237C13.4915 22.6153 13.2459 22.8077 12.6409 22.8181C12.0449 22.8285 11.4476 22.8272 10.8503 22.8181C10.5336 22.8129 10.372 22.9247 10.3771 23.2693C10.3888 24.0313 10.3875 24.7945 10.3771 25.5565C10.3733 25.8867 10.5116 26.0207 10.8426 26.0129C11.4877 25.9985 12.1328 26.0037 12.7779 26.0129C13.2575 26.0194 13.5678 26.2456 13.6596 26.7397C13.9285 28.1752 14.4857 29.4936 15.2653 30.7224C15.5251 31.132 15.4812 31.5195 15.1321 31.8666C14.6848 32.3113 14.253 32.7716 13.7915 33.202C13.5109 33.4646 13.5264 33.6688 13.7889 33.9301C14.306 34.4424 14.8141 34.9638 15.3041 35.5022C15.5704 35.7947 15.7746 35.7531 16.0242 35.4891C16.4353 35.0549 16.8684 34.6401 17.2885 34.2149C17.6363 33.8625 18.0203 33.8261 18.4236 34.0927C19.6221 34.8832 20.9188 35.4332 22.3163 35.7544C22.8502 35.8766 23.0312 36.1341 23.0377 36.6893C23.0441 37.2575 23.0597 37.8257 23.0325 38.3926C23.0118 38.8282 23.154 39.0298 23.6091 38.9933C23.9452 38.9673 24.2865 38.9881 24.6252 38.9868L24.6291 38.9842Z" fill="#1C7F3C"/>
<path d="M3.90788 17.0474C3.47608 18.453 3.00808 19.8287 2.63187 21.2291C1.82386 24.2353 2.13801 27.2337 2.9861 30.1566C5.28989 38.0934 10.4482 43.3075 18.209 45.9327C20.5167 46.7142 22.9148 47.0132 25.3505 46.9911C25.5767 46.9885 25.803 46.9768 26.0279 46.9846C26.5192 47.0041 26.8308 47.311 26.8333 47.7674C26.8359 48.2212 26.5295 48.5683 26.0396 48.5605C24.7506 48.5384 23.4539 48.5644 22.1766 48.4175C17.5005 47.8779 13.2989 46.1238 9.64538 43.1371C4.79345 39.1713 1.8704 34.0743 0.840028 27.8487C0.231112 24.1689 0.871055 20.6934 2.1768 17.2815C2.25049 17.0877 2.31642 16.8901 2.42631 16.5806C1.98934 16.7926 1.64157 16.9655 1.28993 17.1332C0.755995 17.3868 0.309974 17.2724 0.0901956 16.8329C-0.126997 16.396 0.0514112 15.9695 0.589222 15.6952C1.53685 15.2115 2.48707 14.7317 3.44117 14.2597C4.0475 13.9593 4.44827 14.1023 4.73269 14.7239C5.19681 15.7394 5.65447 16.7575 6.10307 17.7795C6.33707 18.3113 6.19874 18.7183 5.74238 18.9237C5.2886 19.1278 4.89688 18.9575 4.65124 18.4387C4.4431 18.0005 4.24401 17.5584 4.03974 17.1189C4.03586 17.1098 4.01776 17.1059 3.90917 17.0487L3.90788 17.0474Z" fill="#1C7F3C"/>
<path d="M44.16 11.0962C42.8478 9.40851 41.4127 8.01853 39.8109 6.80669C36.1988 4.07355 32.1717 2.28699 27.6701 1.78119C21.2849 1.06344 15.5228 2.71737 10.5248 6.80669C9.28372 7.8222 8.24688 9.08865 7.10921 10.2329C6.94243 10.4006 6.76403 10.5943 6.5533 10.6698C6.2288 10.7868 5.91335 10.6815 5.70133 10.3798C5.45182 10.0235 5.49319 9.66206 5.76985 9.3552C6.63604 8.39561 7.45956 7.38791 8.40331 6.51153C12.4886 2.72518 17.3315 0.604453 22.8544 0.101252C28.354 -0.400648 33.4257 0.99063 38.1548 3.76799C40.681 5.25158 42.8995 7.11355 44.9111 9.46182C44.9111 9.06394 44.9046 8.78959 44.9124 8.51523C44.9279 7.97303 45.2589 7.60635 45.7217 7.61155C46.1664 7.61675 46.5038 7.95612 46.5155 8.48273C46.54 9.60095 46.5465 10.7205 46.5387 11.8387C46.5349 12.3549 46.1768 12.7073 45.6338 12.7151C44.4405 12.732 43.2472 12.732 42.0553 12.7151C41.5032 12.7073 41.1787 12.3601 41.1968 11.8725C41.2149 11.4083 41.5394 11.1106 42.0747 11.1015C42.7327 11.0897 43.3907 11.0989 44.1613 11.0989L44.16 11.0962Z" fill="#1C7F3C"/>
<path d="M17.5717 24.5863C17.5859 20.6413 20.9213 17.353 24.8282 17.457C25.0364 17.4622 25.2497 17.4856 25.4488 17.5441C25.8095 17.6494 26.0318 17.8926 26.0163 18.2905C26.0008 18.6805 25.7927 18.9419 25.41 18.9978C24.9329 19.068 24.4455 19.0654 23.9711 19.1395C21.5639 19.5179 19.6828 21.2954 19.2743 23.5617C18.8554 25.884 19.9013 28.1217 21.9698 29.3336C23.9866 30.5155 26.655 30.2867 28.4455 28.7797C30.4054 27.1283 30.9639 24.5694 29.8728 22.1795C29.7112 21.8259 29.6181 21.4579 29.9206 21.1952C30.1223 21.021 30.4907 20.8858 30.7273 20.9495C30.9717 21.0145 31.216 21.3084 31.3401 21.5606C33.0182 25.0115 31.5405 29.2165 28.0615 30.9381C23.6647 33.1121 18.5258 30.4999 17.6712 25.6512C17.6091 25.3015 17.604 24.9426 17.5729 24.5876L17.5717 24.5863Z" fill="#1C7F3C"/>
<path d="M29.4126 19.3722C29.3893 20.1082 28.7765 20.4697 28.2258 20.1771C27.9413 20.0263 27.6699 19.8494 27.4061 19.6622C27.0648 19.4191 26.973 18.9861 27.1657 18.6285C27.3596 18.2696 27.7746 18.1006 28.1572 18.2865C28.5024 18.4543 28.8386 18.6597 29.1359 18.9016C29.2923 19.0303 29.3583 19.2721 29.4126 19.3709V19.3722Z" fill="#1C7F3C"/>
</svg>
