<svg width="46" height="50" viewBox="0 0 46 50" fill="none" xmlns="http://www.w3.org/2000/svg">
<path d="M9.59032 49.8404C8.9827 49.5959 8.31819 49.4399 7.77779 49.0888C6.43197 48.2151 5.81401 46.9083 5.8153 45.2986C5.81789 37.8702 5.8153 30.4431 5.8153 23.0147C5.8153 22.8236 5.8153 22.6337 5.8153 22.4335C5.19863 22.3919 4.61815 22.3958 4.05319 22.3061C1.76491 21.9407 0.064865 19.976 0.0144452 17.6511C-0.0308033 15.5733 -0.0088273 13.5085 0.675071 11.4996C2.39193 6.4624 7.12363 2.99071 12.4255 2.9296C13.1016 2.9218 13.7777 2.9296 14.481 2.9296C14.525 2.69555 14.5599 2.47841 14.609 2.26386C14.9038 0.984408 16.0066 0.0248161 17.3071 0.0183148C20.9348 -0.00378962 24.5637 -0.0076904 28.1913 0.0183148C29.7065 0.0300171 30.7395 1.12744 31.0097 2.927C31.6108 2.927 32.221 2.9244 32.8312 2.927C38.9307 2.9504 43.9908 7.08783 45.2384 13.0963C45.5978 14.8244 45.6249 16.5862 45.3948 18.3234C45.0897 20.6313 43.0936 22.3256 40.7769 22.388C40.4394 22.3971 40.1007 22.388 39.6844 22.388V22.9653C39.6844 30.3118 39.6844 37.6582 39.6844 45.006C39.6844 47.6351 38.5157 49.1486 35.9922 49.7897C35.9624 49.7975 35.9366 49.8222 35.9094 49.8391H9.58773L9.59032 49.8404ZM37.74 28.2327C37.1505 28.2327 36.6062 28.2327 36.0607 28.2327C34.6489 28.2353 33.8952 29.0063 33.8732 30.4262C33.8642 30.9723 33.8629 31.5418 33.7142 32.058C33.3264 33.4012 31.9482 34.2464 30.5998 34.05C29.1777 33.8433 28.1138 32.6652 28.0814 31.2181C28.0569 30.0829 28.0763 28.9478 28.0724 27.8127C28.0711 27.1664 27.7841 26.684 27.201 26.4162C26.2288 25.9676 25.1778 26.6932 25.1726 27.8218C25.1623 29.9139 25.1855 32.006 25.1636 34.0981C25.1429 36.016 23.3756 37.3618 21.5359 36.8937C20.2457 36.566 19.3692 35.3997 19.3666 33.9681C19.3601 30.6915 19.3653 27.4161 19.3627 24.1394C19.3627 23.9457 19.3679 23.7468 19.3278 23.5595C19.1701 22.821 18.4849 22.3191 17.7648 22.3984C17.0149 22.4803 16.4668 23.0953 16.4642 23.9015C16.4565 26.3174 16.4707 28.7346 16.4565 31.1504C16.4474 32.6704 15.3304 33.9005 13.8618 34.0578C12.3763 34.2165 11.0228 33.2205 10.7332 31.7005C10.6375 31.1973 10.675 30.668 10.6556 30.1518C10.6207 29.2053 9.9898 28.4212 9.06931 28.273C8.65173 28.2054 8.21476 28.2613 7.78942 28.2613V42.0115H37.7426V28.2301L37.74 28.2327ZM7.79201 15.5902V26.2875C8.12944 26.2875 8.44876 26.2823 8.76938 26.2875C10.6323 26.3252 12.1876 27.6293 12.5056 29.4731C12.6013 30.027 12.5573 30.603 12.5987 31.1673C12.6388 31.7187 13.0693 32.1282 13.5735 32.1204C14.0906 32.1126 14.4888 31.7083 14.5237 31.1491C14.5327 31.0035 14.5263 30.8579 14.5263 30.711C14.5263 28.4407 14.5237 26.1691 14.5276 23.8989C14.5302 22.7937 14.9464 21.8679 15.8152 21.1905C16.9051 20.3414 18.119 20.1879 19.3614 20.7835C20.6025 21.379 21.2787 22.4218 21.2903 23.8053C21.3187 27.0975 21.3006 30.3898 21.3019 33.682C21.3019 33.8602 21.2929 34.0422 21.3239 34.2152C21.4053 34.6702 21.7919 35.0135 22.2198 35.0382C22.6581 35.0629 23.0834 34.7626 23.1946 34.3205C23.2373 34.1514 23.2334 33.9668 23.2347 33.79C23.2373 31.7629 23.2217 29.7345 23.2411 27.7074C23.2592 25.8129 24.7886 24.3215 26.658 24.3371C28.4615 24.3527 29.9586 25.8129 30.0013 27.6332C30.0284 28.784 29.9987 29.936 30.0155 31.088C30.0232 31.677 30.4434 32.1087 30.9631 32.1191C31.5139 32.1295 31.9224 31.6979 31.9431 31.0789C31.9508 30.8527 31.9444 30.6251 31.9444 30.3976C31.9495 27.9349 33.5901 26.2888 36.0452 26.2836C36.6037 26.2836 37.1609 26.2836 37.7142 26.2836V15.5876H7.79201V15.5902ZM39.6857 20.4441C40.0723 20.4441 40.4071 20.4532 40.742 20.4428C42.1873 20.396 43.4504 19.2882 43.5215 17.8384C43.5849 16.5329 43.6004 15.1976 43.4065 13.9103C42.6282 8.75736 38.0801 4.15184 31.0071 4.9203C30.6994 6.89799 29.6561 7.79387 27.6626 7.79387C24.3413 7.79387 21.0201 7.79387 17.6988 7.79387C15.8605 7.79387 14.7512 6.80567 14.5133 4.9658C14.5108 4.9411 14.4772 4.9203 14.4384 4.87609C13.7816 4.87609 13.1055 4.86959 12.4293 4.87609C7.96783 4.9294 3.97174 7.86408 2.51474 12.1107C1.92263 13.8375 1.9291 15.611 1.94462 17.395C1.96142 19.4845 3.77007 20.8875 5.8166 20.3674C5.8166 18.5418 5.8166 16.7111 5.8166 14.8803C5.8166 13.9701 6.14239 13.6333 7.02926 13.6333C17.5088 13.6333 27.9883 13.6333 38.4679 13.6333C39.3561 13.6333 39.6857 13.9714 39.687 14.8738C39.6883 16.7059 39.687 18.5366 39.687 20.4428L39.6857 20.4441ZM37.7426 44.0321H7.75064C7.75064 44.4183 7.75064 44.7733 7.75064 45.1269C7.75064 46.9291 8.70474 47.8926 10.4888 47.8926C16.5987 47.8926 22.7085 47.8926 28.8171 47.8926C30.9773 47.8926 33.1376 47.9004 35.2979 47.8887C36.6037 47.8822 37.647 46.9304 37.7362 45.6639C37.7737 45.1334 37.7426 44.599 37.7426 44.0321ZM22.7111 5.84738C24.4499 5.84738 26.19 5.85128 27.9289 5.84608C28.6606 5.84348 29.0304 5.47161 29.0394 4.74216C29.0459 4.17525 29.0472 3.60833 29.0394 3.04142C29.0291 2.33668 28.6606 1.9583 27.9599 1.957C24.481 1.9518 21.002 1.9518 17.5243 1.957C16.8533 1.957 16.4758 2.34188 16.4642 3.01021C16.4539 3.56022 16.459 4.11153 16.4629 4.66284C16.4668 5.49111 16.8159 5.84478 17.6394 5.84738C19.3304 5.84998 21.0214 5.84738 22.7124 5.84738H22.7111Z" fill="#1C7F3C"/>
</svg>
