<svg width="46" height="46" viewBox="0 0 46 46" fill="none" xmlns="http://www.w3.org/2000/svg">
<g clip-path="url(#clip0_2014_86)">
<path d="M0 22.7287C0.259952 22.1943 0.696094 22.0152 1.27377 22.0268C2.40889 22.047 3.54402 22.0239 4.67625 22.0383C5.42723 22.047 5.94135 22.645 5.68718 23.2545C5.57742 23.5202 5.26259 23.8755 5.02863 23.8871C3.58734 23.9449 2.14027 23.942 0.696095 23.8813C0.459249 23.8698 0.233957 23.4827 0 23.2689C0 23.0898 0 22.9107 0 22.7287Z" fill="#1C7F3C"/>
<path d="M22.7314 46.0002C22.1999 45.7403 22.018 45.3041 22.0295 44.7263C22.0526 43.591 22.0237 42.4558 22.0411 41.3234C22.0526 40.5001 22.7891 39.9801 23.4217 40.3788C23.673 40.5377 23.9272 40.9074 23.9387 41.1905C23.9936 42.4731 23.9676 43.7586 23.9618 45.0412C23.9618 45.5149 23.6528 45.7894 23.2715 46.0031H22.7314V46.0002Z" fill="#1C7F3C"/>
<path d="M25.0969 19.1582C25.3107 19.1582 25.4695 19.1582 25.6313 19.1582C27.5318 19.1582 29.4353 19.1611 31.3358 19.1582C31.7922 19.1582 32.2081 19.2189 32.4565 19.6608C32.7164 20.123 32.5287 20.513 32.2687 20.9088C28.5774 26.5042 24.8919 32.0997 21.2092 37.7009C20.955 38.088 20.6604 38.3826 20.1607 38.3249C19.6004 38.2613 19.2567 37.8164 19.3289 37.2012C19.4762 35.9677 19.6495 34.74 19.8141 33.5094C20.1839 30.7362 20.5536 27.963 20.9204 25.1927C20.929 25.1205 20.9204 25.0454 20.9204 24.9154C20.7471 24.9154 20.5853 24.9154 20.4265 24.9154C18.4797 24.9154 16.533 24.9096 14.5891 24.9183C14.1385 24.9183 13.7515 24.8288 13.5291 24.3983C13.298 23.9477 13.4655 23.5722 13.7457 23.1995C17.4861 18.2223 21.2179 13.2421 24.9554 8.26194C25.3656 7.71308 25.7382 7.55998 26.2061 7.7333C26.6567 7.90085 26.8935 8.3226 26.8069 8.85413C26.4256 11.1709 26.0386 13.4847 25.6544 15.8015C25.4724 16.905 25.2876 18.0056 25.0969 19.164V19.1582ZM16.2932 23.0002H16.8362C18.497 23.0002 20.1579 23.0002 21.8216 23.0002C22.7169 23.0002 23.0867 23.4566 22.9653 24.3463C22.5841 27.1455 22.2144 29.9476 21.8447 32.7496C21.8302 32.871 21.8447 32.9923 21.8447 33.2436C24.5453 29.1445 27.1708 25.1581 29.8454 21.0908C29.5855 21.0908 29.4266 21.0908 29.2649 21.0908C27.5578 21.0908 25.8537 21.0965 24.1467 21.0908C23.3379 21.0879 22.9076 20.6199 23.0289 19.8833C23.2397 18.5862 23.465 17.2892 23.6817 15.9922C23.8752 14.8338 24.0658 13.6754 24.2564 12.517C24.2333 12.5055 24.2102 12.4968 24.1842 12.4853C21.576 15.9633 18.9679 19.4384 16.2932 23.006V23.0002Z" fill="#1C7F3C"/>
<path d="M23.9676 2.88893C23.9676 3.47245 23.9763 4.05308 23.9676 4.6366C23.956 5.31834 23.5748 5.74876 22.9971 5.74298C22.4223 5.7401 22.044 5.30968 22.0411 4.62216C22.0324 3.45801 22.0353 2.29385 22.0411 1.12681C22.044 0.436404 22.4166 0.00887323 22.9884 -0.00268166C23.5777 -0.0113478 23.9618 0.427738 23.9676 1.13836C23.9734 1.72188 23.9676 2.30252 23.9676 2.88604V2.88893Z" fill="#1C7F3C"/>
<path d="M43.1752 22.0325C43.7586 22.0325 44.3392 22.0238 44.9226 22.0325C45.5754 22.044 45.9971 22.4253 46.0029 22.9858C46.0087 23.5491 45.5899 23.9506 44.9458 23.9564C43.7355 23.9708 42.5253 23.9708 41.318 23.9564C40.671 23.9506 40.2551 23.5462 40.2608 22.9829C40.2666 22.4225 40.6883 22.044 41.3411 22.0325C41.9534 22.0209 42.5657 22.0325 43.1781 22.0325H43.1752Z" fill="#1C7F3C"/>
<path d="M9.96773 11.0698C9.8493 11.0033 9.58357 10.9167 9.40161 10.7433C8.51777 9.89118 7.65415 9.01878 6.79342 8.1435C6.35728 7.69864 6.34861 7.13534 6.73854 6.74536C7.13136 6.3496 7.69748 6.35249 8.1394 6.7858C9.02612 7.6553 9.90129 8.53925 10.7736 9.42031C11.0884 9.74096 11.1635 10.1223 10.9758 10.5325C10.8111 10.8965 10.5078 11.0611 9.96773 11.0698Z" fill="#1C7F3C"/>
<path d="M36.0352 11.0669C35.4777 11.0669 35.1658 10.8791 35.0069 10.4978C34.8423 10.1021 34.9174 9.73232 35.2235 9.42323C35.8561 8.78482 36.4915 8.1493 37.127 7.51667C37.3927 7.25091 37.6469 6.97937 37.927 6.73094C38.343 6.36118 38.8946 6.37274 39.2586 6.7396C39.6254 7.10936 39.6572 7.66688 39.2672 8.0713C38.3718 8.9957 37.4591 9.90275 36.5349 10.8011C36.376 10.9571 36.1276 11.0207 36.0323 11.0698L36.0352 11.0669Z" fill="#1C7F3C"/>
<path d="M11.0711 36.0458C10.9989 36.1671 10.8978 36.4415 10.7129 36.6322C9.88107 37.493 9.02901 38.3365 8.17694 39.1771C7.7148 39.6336 7.14291 39.6538 6.74432 39.2551C6.34572 38.8565 6.36883 38.2845 6.82519 37.8223C7.68881 36.9499 8.55821 36.0833 9.43049 35.2196C9.7511 34.9018 10.1352 34.8325 10.5425 35.0232C10.9036 35.1907 11.0711 35.4911 11.0711 36.0429V36.0458Z" fill="#1C7F3C"/>
<path d="M36.0294 34.9249C36.1478 34.9943 36.4251 35.0896 36.6186 35.2716C37.4909 36.1122 38.3459 36.973 39.195 37.8396C39.6456 38.299 39.6572 38.8796 39.247 39.2725C38.8513 39.6509 38.291 39.6335 37.8462 39.1945C36.971 38.3336 36.1074 37.4612 35.2409 36.5917C34.9231 36.274 34.8365 35.8955 35.0185 35.4825C35.1773 35.1185 35.4719 34.9394 36.0294 34.9278V34.9249Z" fill="#1C7F3C"/>
</g>
<defs>
<clipPath id="clip0_2014_86">
<rect width="46" height="46" fill="white" transform="translate(0 0.000244141)"/>
</clipPath>
</defs>
</svg>
