<svg width="33" height="46" viewBox="0 0 33 46" fill="none" xmlns="http://www.w3.org/2000/svg">
<g clip-path="url(#clip0_2014_76)">
<path d="M12.9629 0.000210494C13.388 0.220658 13.5275 0.572483 13.5117 1.03787C13.4893 1.815 13.5072 2.59436 13.505 3.37372C13.505 4.21766 13.2846 4.44033 12.4388 4.45814C12.3061 4.46037 12.1756 4.47373 12.0249 4.48264V5.93225C12.2296 5.93225 12.4073 5.93225 12.585 5.93225C17.5898 5.93225 22.5968 5.92779 27.6016 5.93447C30.2356 5.93893 32.3207 7.58003 32.8673 10.0695C32.9528 10.4614 32.9932 10.8712 32.9932 11.272C33 21.0629 33.0045 30.8539 32.9932 40.6427C32.991 43.2346 31.3782 45.2787 28.9174 45.8488C28.4811 45.949 28.02 45.9891 27.5701 45.9891C20.19 45.998 12.81 45.998 5.43213 45.9935C2.3168 45.9935 0.0179802 43.7712 0.0112322 40.6872C-0.00676247 30.8806 -0.00451314 21.0763 0.0112322 11.2697C0.0134815 9.22782 0.917715 7.65352 2.71043 6.59136C2.85439 6.50675 2.97811 6.27962 2.98935 6.11039C3.02534 5.57597 3.00285 5.03932 3.00285 4.47596C2.72168 4.4626 2.48325 4.4626 2.24707 4.43365C1.78146 4.37798 1.53178 4.12859 1.52504 3.66765C1.51154 2.71015 1.52504 1.75043 1.51829 0.79293C1.51604 0.392117 1.74772 0.164989 2.07162 -0.00646973H12.9629V0.000210494ZM1.52054 25.9751C1.52054 30.825 1.52504 35.677 1.51829 40.5269C1.51829 41.4354 1.70723 42.2771 2.27181 43.0119C3.09507 44.0852 4.21299 44.5172 5.5491 44.5127C9.29874 44.5038 13.0506 44.5083 16.8003 44.5083C20.37 44.5083 23.9374 44.5172 27.5071 44.5061C29.8824 44.4994 31.4772 42.9585 31.4817 40.656C31.4929 35.4766 31.4884 30.295 31.4749 25.1156C31.4749 24.9219 31.3692 24.6769 31.2298 24.5389C25.5592 18.9097 19.8819 13.2872 14.1955 7.67578C14.0561 7.53773 13.8087 7.43752 13.6085 7.4353C10.8868 7.41971 8.16282 7.40189 5.44338 7.44198C4.8428 7.45088 4.19275 7.5689 3.65291 7.82052C2.17959 8.50413 1.52279 9.73775 1.52279 11.3321C1.52279 16.2131 1.52279 21.0941 1.52279 25.9729L1.52054 25.9751ZM31.4862 22.6818C31.4862 22.448 31.4862 22.3433 31.4862 22.2387C31.4862 18.6024 31.4907 14.9661 31.4862 11.3299C31.4817 9.00515 29.9206 7.43975 27.5678 7.42862C23.8947 7.41303 20.2215 7.42416 16.5483 7.42639C16.4269 7.42639 16.3054 7.44866 16.0895 7.47092C17.0342 8.39725 17.8934 9.26122 18.7819 10.094C18.9551 10.2566 19.2453 10.379 19.4815 10.3813C21.6431 10.4035 23.8047 10.3902 25.9663 10.3946C27.6061 10.3969 28.4878 11.272 28.4901 12.8864C28.4901 15.0418 28.4901 17.1951 28.4946 19.3506C28.4946 19.5065 28.5013 19.7113 28.5958 19.8071C29.5203 20.7467 30.4627 21.6686 31.4862 22.6818ZM26.9965 18.0791C26.9965 16.2665 27.0123 14.4451 26.9875 12.6236C26.9808 12.1048 26.6479 11.8687 26.0585 11.8665C24.7584 11.8598 23.4583 11.8665 22.1604 11.8665C21.6678 11.8665 21.1752 11.8665 20.7164 11.8665C22.8105 13.9396 24.8979 16.0038 26.9988 18.0813L26.9965 18.0791ZM11.9709 1.5233H3.02984V2.93951H11.9709V1.5233ZM10.4931 4.48932H4.54814V5.92334H10.4931V4.48932Z" fill="#1C7F3C"/>
<path d="M3.00286 25.9172C3.00286 21.3368 3.00286 16.7542 3.00286 12.1738C3.00286 11.1183 3.31326 10.2053 4.18601 9.53065C4.74609 9.09866 5.3894 8.90493 6.08444 8.90271C8.24606 8.89157 10.4099 8.90271 12.5715 8.8938C12.9944 8.8938 13.2733 9.10534 13.5477 9.377C18.656 14.4406 23.7732 19.4953 28.8792 24.5611C30.1928 25.866 29.9926 25.3539 29.9971 27.2421C30.0061 31.4039 29.9971 35.5657 30.0016 39.7275C30.0016 40.8008 29.698 41.7271 28.805 42.4085C28.2426 42.8382 27.5993 43.0253 26.902 43.0275C19.9763 43.032 13.0484 43.0364 6.12268 43.0275C4.24449 43.0253 3.00735 41.7271 3.0051 39.7965C2.99836 35.1693 3.0051 30.5444 3.0051 25.9172H3.00286ZM4.51666 25.9774C4.51666 30.5889 4.51666 35.1983 4.51666 39.8099C4.51666 40.9678 5.07224 41.5378 6.22165 41.5378C13.0709 41.5423 19.9224 41.5423 26.7716 41.5378C27.93 41.5378 28.4878 40.9722 28.4878 39.821C28.4878 35.4343 28.4923 31.0499 28.4766 26.6632C28.4766 26.4427 28.3641 26.1644 28.2067 26.0085C23.0512 20.887 17.8867 15.7744 12.7132 10.673C12.5558 10.5171 12.2746 10.408 12.0497 10.4058C10.1445 10.3857 8.23931 10.3924 6.33412 10.3946C5.0475 10.3946 4.51666 10.9201 4.51666 12.1916C4.51666 16.7876 4.51666 21.3836 4.51666 25.9774Z" fill="#1C7F3C"/>
<path d="M15.7476 38.5674C13.514 38.6008 11.3884 37.002 10.7788 34.8732C10.176 32.7645 10.6483 30.8072 11.6336 28.9434C12.7245 26.877 13.8784 24.8418 15.0143 22.7976C15.3877 22.1229 16.1075 22.094 16.4674 22.7531C17.7427 25.0778 19.0451 27.3914 20.2485 29.7539C20.9638 31.1568 21.1662 32.7044 20.9121 34.2609C20.5027 36.7682 18.3523 38.5295 15.7498 38.5674H15.7476ZM15.7386 24.5278C14.6612 26.5319 13.5567 28.409 12.6255 30.3663C11.908 31.8738 11.683 33.4882 12.495 35.0825C13.1586 36.3852 14.5689 37.1846 16.022 37.0821C17.4818 36.9797 18.8157 35.9621 19.2745 34.5971C19.6637 33.4392 19.6029 32.2523 19.1666 31.1612C18.6312 29.8207 17.9092 28.5515 17.2434 27.2622C16.7845 26.3738 16.2807 25.5053 15.7408 24.5256L15.7386 24.5278Z" fill="#1C7F3C"/>
<path d="M18.7325 33.4214C18.5953 35.1605 17.4526 36.2761 15.7903 36.3228V34.9089C16.7688 34.6572 17.059 34.3722 17.2839 33.4214H18.7325Z" fill="#1C7F3C"/>
</g>
<defs>
<clipPath id="clip0_2014_76">
<rect width="33" height="46" fill="white" transform="translate(0 0.000244141)"/>
</clipPath>
</defs>
</svg>
