<svg width="49" height="49" viewBox="0 0 49 49" fill="none" xmlns="http://www.w3.org/2000/svg">
<g clip-path="url(#clip0_2014_67)">
<path d="M49 48.5142C48.7754 48.8618 48.4678 49.0003 48.0401 49.0003C44.2591 48.988 40.4811 48.9941 36.7 48.9911C36.5739 48.9911 36.4416 49.0034 36.3185 48.9726C35.9493 48.8803 35.734 48.6311 35.7463 48.2496C35.7586 47.8681 35.9832 47.6312 36.3616 47.5665C36.5 47.5419 36.6477 47.5573 36.7923 47.5573C40.1888 47.5573 43.5884 47.5573 46.9849 47.5573H47.5325V24.7895H46.9449C36.0201 24.7895 25.0922 24.7895 14.1675 24.7895C13.3922 24.7895 13.0414 24.5618 13.0507 24.0634C13.0599 23.5742 13.4106 23.3527 14.189 23.3527C25.083 23.3527 35.977 23.3527 46.871 23.3527C47.0772 23.3527 47.2833 23.3527 47.5263 23.3527V21.5313C47.3418 21.5313 47.1572 21.5313 46.9726 21.5313C42.65 21.5313 38.3275 21.5313 34.005 21.5313C33.8604 21.5313 33.7158 21.5374 33.5743 21.5282C33.1589 21.4974 32.8728 21.2143 32.8605 20.8328C32.8482 20.439 33.1497 20.119 33.5866 20.1036C34.0973 20.0852 34.608 20.0975 35.1187 20.0975C36.5216 20.0975 37.9245 20.0975 39.4166 20.0975C39.4166 19.6821 39.4443 19.2883 39.4012 18.9006C39.3858 18.7776 39.1951 18.6453 39.0566 18.5745C36.0293 17.0085 32.9989 15.4516 29.9655 13.8917C28.6918 13.2364 27.4181 12.5718 26.1321 11.9411C25.9168 11.8365 25.6337 11.858 25.3784 11.8519C24.7815 11.8365 24.1816 11.8396 23.5847 11.8396C23.3755 11.8396 23.1325 11.7996 22.9602 11.8857C18.6038 14.1071 14.2598 16.347 9.90646 18.5745C9.66034 18.7007 9.55266 18.836 9.5865 19.1252C9.62034 19.4206 9.59573 19.7252 9.59573 20.0944C9.82032 20.0944 10.0049 20.0944 10.1895 20.0944C16.8871 20.0944 23.5878 20.0944 30.2854 20.0944C30.43 20.0944 30.5746 20.0852 30.7162 20.0975C31.1315 20.1344 31.4053 20.4175 31.4084 20.8082C31.4084 21.199 31.1407 21.4882 30.7254 21.5251C30.5685 21.5374 30.4054 21.5313 30.2485 21.5313C20.8528 21.5313 11.4601 21.5313 2.06437 21.5313C1.8767 21.5313 1.68595 21.5313 1.4706 21.5313V23.3527C1.65826 23.3527 1.83055 23.3527 2.00284 23.3527C4.85786 23.3527 7.71289 23.3527 10.5679 23.3527C10.7279 23.3527 10.894 23.3373 11.0448 23.3773C11.4078 23.4757 11.6201 23.7157 11.5986 24.1096C11.577 24.4972 11.3524 24.7187 10.974 24.7772C10.8325 24.7987 10.6879 24.7864 10.5433 24.7864C7.70366 24.7864 4.86402 24.7864 2.02745 24.7864C1.85516 24.7864 1.68288 24.7864 1.47675 24.7864V47.5542H2.05514C12.4231 47.5542 22.791 47.5542 33.1589 47.5542C33.3189 47.5542 33.4789 47.5389 33.6358 47.5604C34.0357 47.6158 34.2757 47.8434 34.2849 48.2557C34.2942 48.6711 34.0573 48.9049 33.6635 48.9757C33.525 49.0003 33.3774 48.9849 33.2328 48.9849C22.5141 48.9849 11.7955 48.9849 1.0768 48.9849C0.206139 48.9849 0.00616455 48.788 0.00616455 47.9204C0.00616455 38.9886 0.00616455 30.0599 0.00616455 21.1282C0.00616455 20.2944 0.212293 20.0913 1.05219 20.0913C2.29511 20.0913 3.53803 20.0913 4.86402 20.0913C4.86402 19.8052 4.86709 19.5437 4.86402 19.2791C4.84556 18.2761 5.25781 17.5069 6.14385 17.0454C7.0299 16.5839 7.8944 16.7008 8.71276 17.2792C8.82352 17.3592 9.05118 17.393 9.16501 17.3346C13.4199 15.1624 17.6686 12.9749 21.9173 10.7904C21.9419 10.7781 21.9542 10.7442 21.9019 10.8119C21.7327 10.1658 21.5327 9.59969 21.4404 9.01511C21.3635 8.52899 21.6558 8.20286 22.068 8.16286C22.4864 8.11979 22.7725 8.43053 22.871 8.93204C22.9448 9.3074 23.0956 9.66738 23.2463 10.1535C24.0924 9.51662 24.8677 9.3474 25.5783 10.0704C26.4213 9.26125 26.3259 8.09209 25.3845 7.4829C24.48 6.89832 23.9416 6.11376 23.7909 4.97537C23.031 4.97537 22.2711 4.98767 21.5142 4.97537C20.299 4.95075 19.2499 4.17234 19.0345 2.98472C18.893 2.19708 18.9422 1.36636 18.9792 0.557182C18.9884 0.363348 19.2776 0.181821 19.4376 -0.00585938C22.8187 -0.00585938 26.1998 -0.00585938 29.5809 -0.00585938C29.7409 0.181821 30.0301 0.363348 30.0362 0.557182C30.0701 1.36329 30.1224 2.194 29.9778 2.98165C29.7624 4.17234 28.7164 4.95075 27.5042 4.97537C26.7659 4.99075 26.0275 4.97537 25.2799 4.97537C25.3937 5.62763 25.5599 5.86454 26.1352 6.24298C27.0151 6.82448 27.5166 7.62751 27.5842 8.69206C27.6335 9.43355 27.4058 10.0981 27.012 10.7165C27.0735 10.7627 27.1105 10.7935 27.1504 10.815C31.3684 12.9841 35.5832 15.1563 39.8073 17.31C39.9427 17.3777 40.2042 17.3377 40.3365 17.2484C41.1487 16.7008 41.9947 16.5962 42.8654 17.0454C43.7145 17.4854 44.1391 18.2176 44.1452 19.1776C44.1452 19.4729 44.1452 19.7683 44.1452 20.0883C45.4804 20.0883 46.7387 20.1036 47.9971 20.079C48.437 20.0698 48.7754 20.1806 49.0062 20.5621V48.5019L49 48.5142ZM28.6241 1.46482H20.3759C20.3759 1.80633 20.3605 2.12324 20.379 2.43706C20.419 3.05241 20.8743 3.53238 21.4865 3.53853C23.4924 3.55699 25.5014 3.55699 27.5073 3.53853C28.1226 3.53238 28.578 3.05549 28.621 2.44322C28.6426 2.12939 28.6241 1.81249 28.6241 1.46482ZM8.15283 20.0729C8.10361 19.4575 8.37434 18.796 7.71289 18.3653C7.37139 18.1438 7.00528 18.1592 6.68532 18.3991C6.0854 18.8483 6.34998 19.4821 6.30383 20.0698H8.15283V20.0729ZM42.7023 20.0729C42.647 19.4545 42.9208 18.7899 42.2532 18.3653C41.9117 18.1468 41.5456 18.1653 41.2256 18.4084C40.6287 18.8607 40.9056 19.4945 40.838 20.0729H42.6993H42.7023Z" fill="#1C7F3C"/>
<path d="M22.3941 36.2195C22.3941 33.7151 22.388 31.2137 22.3972 28.7092C22.4034 27.6016 23.2279 26.7124 24.2985 26.6109C25.3538 26.5124 26.3136 27.2139 26.5536 28.2692C26.5905 28.4385 26.6028 28.6169 26.6028 28.7892C26.6028 33.715 26.6059 38.644 26.6028 43.5698C26.6028 44.6374 25.9537 45.4589 24.9569 45.6958C24.0462 45.9143 23.0402 45.462 22.6372 44.5944C22.4833 44.259 22.4064 43.8621 22.4034 43.4898C22.3818 41.0654 22.3941 38.644 22.3941 36.2195ZM23.8309 36.1641C23.8309 38.5394 23.8309 40.9115 23.8309 43.2868C23.8309 43.4314 23.8155 43.576 23.8401 43.7175C23.9047 44.0713 24.1201 44.2928 24.4892 44.299C24.8584 44.3052 25.0769 44.0867 25.1538 43.736C25.1815 43.6129 25.1661 43.4837 25.1661 43.3544C25.1661 38.5732 25.1661 33.795 25.1661 29.0138C25.1661 28.9184 25.1692 28.823 25.1661 28.7277C25.1353 28.3185 24.9169 28.0754 24.5077 28.0477C24.1508 28.0231 23.8678 28.3123 23.8339 28.7092C23.8216 28.8354 23.8309 28.9646 23.8309 29.0907C23.8309 31.4475 23.8309 33.8074 23.8309 36.1641Z" fill="#1C7F3C"/>
<path d="M7.85441 36.155C7.85441 38.6594 7.86056 41.1608 7.85133 43.6653C7.84825 44.6344 7.22679 45.4067 6.30076 45.6651C5.41779 45.9113 4.44253 45.5605 3.98412 44.7544C3.79646 44.4221 3.65801 44.0068 3.65493 43.6283C3.6334 38.6533 3.6334 33.6782 3.64571 28.7031C3.64571 27.5186 4.59328 26.6017 5.7439 26.5986C6.92222 26.5986 7.84518 27.5155 7.85133 28.737C7.86056 31.2076 7.85441 33.6813 7.85133 36.1519L7.85441 36.155ZM6.41766 36.1796C6.41766 34.5551 6.41766 32.9305 6.41766 31.303C6.41766 30.4599 6.42382 29.6138 6.41459 28.7708C6.40844 28.337 6.13155 28.0478 5.75621 28.0447C5.38087 28.0447 5.11014 28.3308 5.07937 28.7616C5.07322 28.857 5.07937 28.9523 5.07937 29.0477C5.07937 33.7951 5.07937 38.5425 5.07937 43.293C5.07937 43.453 5.03015 43.656 5.11014 43.7606C5.27012 43.9699 5.48855 44.2498 5.70391 44.2683C5.91619 44.2868 6.18692 44.0468 6.36536 43.8591C6.45766 43.7606 6.41766 43.5237 6.41766 43.3514C6.41766 40.9608 6.41766 38.5702 6.41766 36.1826V36.1796Z" fill="#1C7F3C"/>
<path d="M41.1456 36.1365C41.1456 33.6505 41.1394 31.1614 41.1487 28.6754C41.1517 27.7893 41.7086 27.0293 42.5239 26.7309C43.3422 26.4325 44.3052 26.6324 44.8128 27.337C45.0959 27.7278 45.3327 28.257 45.3358 28.7246C45.3727 33.6843 45.3635 38.6409 45.3543 43.6006C45.3543 44.8221 44.4221 45.742 43.2438 45.7389C42.0593 45.7389 41.1487 44.8221 41.1456 43.5975C41.1364 41.1115 41.1456 38.6225 41.1456 36.1365ZM42.5823 36.1734C42.5823 38.5302 42.5823 40.89 42.5823 43.2468C42.5823 43.3914 42.5731 43.536 42.5885 43.6775C42.6254 44.0437 42.8377 44.2683 43.2007 44.296C43.5945 44.3236 43.8252 44.099 43.9083 43.7268C43.9391 43.5883 43.9237 43.4406 43.9237 43.2991C43.9237 38.5517 43.9237 33.8012 43.9237 29.0538C43.9237 28.9092 43.936 28.7646 43.9083 28.6262C43.8375 28.2754 43.6191 28.0477 43.2499 28.0539C42.8654 28.0601 42.6346 28.2847 42.5885 28.6723C42.5731 28.8139 42.5823 28.9585 42.5823 29.1031C42.5823 31.4598 42.5823 33.8197 42.5823 36.1765V36.1734Z" fill="#1C7F3C"/>
<path d="M14.1029 36.2041C14.1029 38.6285 14.109 41.0499 14.1029 43.4744C14.0998 44.6312 13.5183 45.4158 12.5031 45.6804C11.3801 45.9727 10.1864 45.2404 9.95262 44.1051C9.90032 43.859 9.88494 43.6005 9.88494 43.3452C9.88186 38.5608 9.88494 33.7796 9.87878 28.9953C9.87878 28.3523 9.99262 27.7554 10.4602 27.2785C11.0879 26.6385 11.8447 26.4262 12.6907 26.7277C13.5276 27.0262 14.0136 27.6477 14.0844 28.5492C14.1121 28.9153 14.0998 29.2814 14.0998 29.6476C14.0998 31.832 14.0998 34.0165 14.0998 36.201L14.1029 36.2041ZM11.3217 36.1764C11.3217 38.5332 11.3217 40.893 11.3217 43.2498C11.3217 43.9759 11.534 44.3051 11.9985 44.3051C12.4631 44.3051 12.663 43.9913 12.663 43.2498C12.663 38.5332 12.663 33.8196 12.663 29.103C12.663 28.943 12.6661 28.783 12.6477 28.6261C12.6046 28.2784 12.3831 28.0784 12.0477 28.0538C11.6847 28.0261 11.4386 28.22 11.3586 28.5799C11.3217 28.7491 11.3248 28.9276 11.3248 29.103C11.3248 31.4597 11.3248 33.8196 11.3248 36.1764H11.3217Z" fill="#1C7F3C"/>
<path d="M16.1487 36.1549C16.1487 33.6842 16.1364 31.2136 16.1549 28.7399C16.1672 27.2047 17.6132 26.2078 19.0038 26.7431C19.8713 27.0754 20.3667 27.8446 20.3667 28.8969C20.3697 32.1028 20.3667 35.3057 20.3667 38.5116C20.3667 40.1854 20.379 41.8591 20.3636 43.5329C20.3482 45.0866 18.9668 46.1112 17.5639 45.6281C16.681 45.3266 16.1549 44.5574 16.1518 43.5205C16.1457 41.0653 16.1518 38.6101 16.1518 36.1549H16.1487ZM18.9268 36.1825C18.9268 33.8073 18.9268 31.4352 18.9268 29.0599C18.9268 28.8722 18.9576 28.6261 18.8592 28.5061C18.6961 28.3092 18.4469 28.0969 18.21 28.0631C17.887 28.02 17.6532 28.263 17.6009 28.6076C17.5793 28.7492 17.5855 28.8938 17.5855 29.0384C17.5855 33.7858 17.5855 38.5332 17.5855 43.2836C17.5855 43.4282 17.5793 43.5729 17.5978 43.7144C17.6409 44.0621 17.8531 44.262 18.1916 44.2959C18.5361 44.3267 18.7822 44.1574 18.8745 43.8251C18.9238 43.6467 18.9238 43.4467 18.9238 43.259C18.9268 40.9023 18.9238 38.5424 18.9238 36.1856L18.9268 36.1825Z" fill="#1C7F3C"/>
<path d="M32.8482 36.2195C32.8482 38.7055 32.8605 41.1946 32.842 43.6806C32.8359 44.7236 32.0975 45.5481 31.0976 45.7204C30.1131 45.8897 29.1102 45.3205 28.7841 44.3575C28.6733 44.0344 28.6395 43.6713 28.6364 43.3267C28.6272 39.77 28.6302 36.2164 28.6302 32.6597C28.6302 31.3521 28.6179 30.0445 28.6364 28.7369C28.6487 27.8477 29.061 27.1739 29.8762 26.7955C30.6577 26.4355 31.4053 26.5493 32.076 27.0785C32.639 27.5247 32.8543 28.1339 32.8512 28.8477C32.842 31.3029 32.8482 33.7581 32.8482 36.2133H32.8451L32.8482 36.2195ZM31.4114 36.2195C31.4114 34.4504 31.4114 32.6813 31.4114 30.9152C31.4114 30.183 31.4145 29.4507 31.4053 28.7154C31.3991 28.3215 31.1745 28.0939 30.793 28.0477C30.4362 28.0046 30.1408 28.2754 30.0824 28.6723C30.0639 28.7984 30.0701 28.9277 30.0701 29.0538C30.0701 33.8012 30.0701 38.5486 30.0701 43.296C30.0701 43.4683 30.0701 43.6498 30.1162 43.8159C30.2085 44.1482 30.4515 44.3236 30.7961 44.2928C31.1376 44.2652 31.3499 44.0652 31.396 43.7206C31.4176 43.5637 31.4084 43.4037 31.4084 43.2437C31.4084 40.9023 31.4084 38.5609 31.4084 36.2164L31.4114 36.2195Z" fill="#1C7F3C"/>
<path d="M34.8941 36.1518C34.8941 33.6966 34.8787 31.2413 34.9002 28.7861C34.9156 27.0478 36.6661 26.0355 38.0967 26.9155C38.7766 27.3339 39.1089 27.9708 39.1089 28.7584C39.1151 33.6996 39.1212 38.6439 39.1089 43.5852C39.1058 44.8466 38.1644 45.7543 36.9676 45.742C35.7955 45.7297 34.9094 44.822 34.9033 43.5667C34.8879 41.0961 34.9002 38.6255 34.9002 36.1518H34.8941ZM36.3339 36.1795C36.3339 38.0748 36.3339 39.97 36.3339 41.8653C36.3339 42.456 36.3277 43.0437 36.3431 43.6344C36.3523 44.0252 36.5646 44.2713 36.9553 44.2959C37.3737 44.3205 37.6014 44.0744 37.6629 43.6744C37.6814 43.5483 37.6752 43.419 37.6752 43.2929C37.6752 38.5455 37.6752 33.7981 37.6752 29.0507C37.6752 28.8938 37.6752 28.7307 37.6414 28.5769C37.5583 28.2169 37.3122 28.0262 36.9492 28.0538C36.6138 28.0785 36.3923 28.2815 36.3523 28.6292C36.3339 28.7861 36.337 28.9461 36.337 29.1061C36.337 31.4629 36.337 33.8227 36.337 36.1795H36.3339Z" fill="#1C7F3C"/>
</g>
<defs>
<clipPath id="clip0_2014_67">
<rect width="49" height="49" fill="white" transform="translate(0 0.000244141)"/>
</clipPath>
</defs>
</svg>
