<svg width="113" height="37" viewBox="0 0 113 37" fill="none" xmlns="http://www.w3.org/2000/svg">
<path d="M47.7336 25.2298L52.5425 21.5718C52.1018 20.6477 51.5756 19.9632 50.9509 19.5225C50.1466 18.9749 49.2696 18.701 48.3198 18.701C46.9892 18.701 45.8768 19.1503 44.9826 20.053C44.0884 20.9557 43.6392 22.0767 43.6392 23.4158C43.6392 24.7335 44.0842 25.8288 44.9741 26.7059C45.864 27.5829 46.9592 28.0236 48.2641 28.0236C49.3508 28.0236 50.3135 27.707 51.152 27.0738C51.567 26.7444 51.9564 26.2823 52.3243 25.6833L50.6044 24.695C49.9455 25.5849 49.1583 26.0299 48.247 26.0299C47.8919 26.0299 47.5668 25.9614 47.2673 25.8288C46.9678 25.6962 46.6854 25.4994 46.4159 25.2427C45.8896 24.7079 45.6287 24.0961 45.6287 23.4158C45.6287 22.697 45.911 22.0553 46.4715 21.4948C47.032 20.9344 47.678 20.652 48.4096 20.652C49.0685 20.652 49.6289 20.9215 50.091 21.4563L46.7453 23.9977L47.7336 25.2298Z" fill="white"/>
<path d="M81.554 18.6326C80.2363 18.6326 79.1111 19.0946 78.1699 20.023C77.2329 20.9514 76.7623 22.0809 76.7623 23.4243C76.7623 24.7292 77.2115 25.8245 78.1057 26.7144C78.9999 27.6043 80.108 28.0493 81.4257 28.0493C81.8664 28.0493 82.4482 27.9337 83.1798 27.7027V25.5464C82.6536 25.8288 82.1616 25.9657 81.6995 25.9657C80.9208 25.9657 80.2662 25.709 79.7357 25.187C79.2052 24.6693 78.94 24.0447 78.94 23.3131C78.94 22.9366 78.9999 22.5986 79.1239 22.3077C79.2437 22.0168 79.4277 21.7387 79.6716 21.4862C80.1721 20.9857 80.7754 20.7375 81.4813 20.7375C82.2386 20.7375 82.8504 21.0199 83.3167 21.5804C83.7873 22.1408 84.0227 22.8553 84.0227 23.7195V27.8867H86.1618V23.6468C86.1618 22.1579 85.7297 20.9514 84.8655 20.0273C83.997 19.0946 82.8974 18.6326 81.554 18.6326Z" fill="white"/>
<path d="M53.2142 20.7332H56.1577V27.8823H58.2798V20.7332H61.0393V18.7566H53.2142V20.7332Z" fill="white"/>
<path d="M86.3458 20.7332H89.2893V27.8823H91.4114V20.7332H94.1752V18.7566H86.3458V20.7332Z" fill="white"/>
<path d="M112.957 26.6031C112.957 25.9571 112.837 25.3923 112.602 24.9046C112.362 24.4169 112.007 23.9719 111.532 23.5697C111.387 23.4585 111.263 23.3729 111.156 23.313C111.053 23.2531 110.908 23.1719 110.728 23.0735C111.434 22.7312 111.973 22.3162 112.345 21.8199C112.718 21.3279 112.902 20.7631 112.902 20.1299L112.974 18.9063H110.818L110.762 19.839C110.762 20.4508 110.441 20.9942 109.804 21.4733C109.162 21.9568 108.448 22.1964 107.656 22.1964L107.293 22.1793L107.284 18.7609H105.153V27.8823H107.276V24.0789L107.588 24.0618C108.525 24.0618 109.295 24.3056 109.89 24.7934C110.489 25.2811 110.784 25.9015 110.784 26.6587L110.822 27.8823H113L112.957 26.6031Z" fill="white"/>
<path d="M68.7403 22.3975L64.7144 14.4783H62.3399V27.8824H64.7144V19.2144L67.7563 25.1999H69.7244L72.762 19.2144V27.8824H75.1408V14.4783H72.762L68.7403 22.3975Z" fill="white"/>
<path d="M98.0301 25.3025C97.6322 24.9003 97.4354 24.3955 97.4354 23.7837V18.7566H95.3133V23.8393C95.3133 25.0201 95.7112 25.9913 96.5027 26.7443C97.2942 27.5016 98.3124 27.8781 99.5574 27.8781C100.007 27.8781 100.43 27.8267 100.82 27.7283V25.5292C100.469 25.7774 100.045 25.9015 99.5403 25.9015C98.9285 25.9057 98.4279 25.7047 98.0301 25.3025Z" fill="white"/>
<path d="M101.658 21.3065V23.7879V27.4203V27.8823H103.78V23.8393V18.7566H101.658V21.3065Z" fill="white"/>
<path d="M42.7407 24.0234C42.7407 24.0105 42.7407 23.9934 42.7407 23.9806C42.7407 23.895 42.7364 23.8094 42.7279 23.7282C42.668 22.8083 42.3172 22.0083 41.6711 21.328C40.9609 20.5793 40.101 20.2028 39.1041 20.2028H36.9649V22.2521H38.7747C38.7875 22.2521 38.8003 22.2521 38.8132 22.2564C38.8859 22.2564 38.9544 22.265 39.0228 22.2778C39.0741 22.2863 39.1255 22.2992 39.1726 22.3163C39.2025 22.3249 39.2282 22.3334 39.2581 22.3462C39.4849 22.4361 39.6945 22.5858 39.8913 22.7998C40.2122 23.1591 40.3748 23.5699 40.3833 24.0362C40.379 24.5068 40.2165 24.9261 39.8913 25.2855C39.5619 25.6534 39.1897 25.8331 38.7747 25.8331H36.1221V24.5667V22.2521V20.2028V17.6272V16.7501H36.52H38.2356H38.719H41.8594V14.7008H39.1212H38.2356H33.7305V27.8824H39.1041C40.1052 27.8824 40.9609 27.506 41.6711 26.7572C42.3856 26.0085 42.7407 25.1101 42.7407 24.0619C42.7407 24.0533 42.7407 24.0405 42.7407 24.0319V24.0234Z" fill="white"/>
<path d="M34.7489 2.78106L29.264 5.94705L33.6066 8.45417V13.4641L39.0957 10.2981V5.28818L34.7489 2.78106ZM37.7865 9.54088L34.9157 11.1923V7.69262L34.2611 7.31613L31.8824 5.94705L34.7446 4.2956L37.7822 6.04545V9.54088H37.7865ZM26.7227 11.6801L19.2184 7.35035L18.5638 6.97386L17.905 7.35035L10.6489 11.5389L8.65085 12.6983L10.6702 13.8192L17.6525 17.6869V27.848L19.612 26.7142L26.7227 22.607L27.3773 22.2305V12.0608L26.7227 11.6801ZM26.0681 21.4775L18.9574 25.5847V16.9211L11.3034 12.6726L18.5681 8.48412L26.0724 12.8138V21.4775H26.0681ZM26.7227 11.6801L19.2184 7.35035L18.5638 6.97386L17.905 7.35035L10.6489 11.5389L8.65085 12.6983L10.6702 13.8192L17.6525 17.6869V27.848L19.612 26.7142L26.7227 22.607L27.3773 22.2305V12.0608L26.7227 11.6801ZM26.0681 21.4775L18.9574 25.5847V16.9211L11.3034 12.6726L18.5681 8.48412L26.0724 12.8138V21.4775H26.0681ZM26.7227 11.6801L19.2184 7.35035L18.5638 6.97386L17.905 7.35035L10.6489 11.5389L8.65085 12.6983L10.6702 13.8192L17.6525 17.6869V27.848L19.612 26.7142L26.7227 22.607L27.3773 22.2305V12.0608L26.7227 11.6801ZM26.0681 21.4775L18.9574 25.5847V16.9211L11.3034 12.6726L18.5681 8.48412L26.0724 12.8138V21.4775H26.0681ZM26.7227 11.6801L19.2184 7.35035L18.5638 6.97386L17.905 7.35035L10.6489 11.5389L8.65085 12.6983L10.6702 13.8192L17.6525 17.6869V27.848L19.612 26.7142L26.7227 22.607L27.3773 22.2305V12.0608L26.7227 11.6801ZM26.0681 21.4775L18.9574 25.5847V16.9211L11.3034 12.6726L18.5681 8.48412L26.0724 12.8138V21.4775H26.0681ZM15.5818 0.885742L0 9.87887V27.8694L15.5818 36.8668L31.1636 27.8737V9.87887L15.5818 0.885742ZM29.8544 27.1164L15.5818 35.3523L1.31346 27.1164V10.6361L15.5818 2.39601L29.8544 10.6361V27.1164ZM8.65085 12.6983L10.6702 13.8192L17.6525 17.6869V27.848L19.612 26.7142L26.7227 22.607L27.3773 22.2305V12.0608L26.7227 11.6843L19.2184 7.35035L18.5638 6.97386L17.905 7.35035L10.6489 11.5389L8.65085 12.6983ZM18.5681 8.48412L26.0724 12.8138V21.4775L18.9617 25.5847V16.9211L11.3077 12.6726L18.5681 8.48412Z" fill="white"/>
<path d="M37.7865 6.04104V9.54074L34.9157 11.1922V7.69249L34.2611 7.31599L31.8823 5.94692L34.7446 4.29547L37.7865 6.04104ZM29.8544 10.636V27.1163L15.5818 35.3521L1.31342 27.1163V10.636L15.5818 2.39587L29.8544 10.636ZM27.3772 12.0607L26.7226 11.6842L19.2184 7.35022L18.5638 6.97373L17.9049 7.35022L10.6488 11.5387L8.65081 12.6982L10.6702 13.8191L17.6525 17.6868V27.8479L19.612 26.7141L26.7226 22.6069L27.3772 22.2304V12.0607Z" fill="white"/>
</svg>
