<svg width="42" height="52" viewBox="0 0 42 52" fill="none" xmlns="http://www.w3.org/2000/svg">
<g clip-path="url(#clip0_190_447)">
<path d="M34.1346 21.4508C33.0228 21.4508 31.9031 21.4666 30.7913 21.4312C30.6336 21.4273 30.4168 21.1875 30.3379 21.0067C29.1157 18.3499 25.6502 17.7801 23.7026 19.9456C23.4109 20.2718 23.1861 20.6687 22.993 21.0657C22.8589 21.3447 22.7052 21.443 22.4016 21.4351C21.4514 21.4115 20.5013 21.4351 19.5551 21.3919C19.3698 21.384 19.1095 21.219 19.0307 21.0539C18.2816 19.5015 17.0673 18.6368 15.3326 18.6329C13.6215 18.6329 12.423 19.4858 11.6581 21.0028C11.5753 21.1679 11.323 21.3408 11.1416 21.3447C10.1757 21.3762 9.20586 21.329 8.23993 21.3604C7.85356 21.3722 7.74317 21.1757 7.60518 20.8888C6.86398 19.3403 5.33821 18.4914 3.5956 18.6447C1.99887 18.7823 0.618977 19.9181 0.17741 21.498C0.063076 21.9028 0.00394058 22.3391 0.00394058 22.7596C-0.0039444 31.1308 -0.00788879 39.5021 0 47.8733C0 49.9917 1.44691 51.6777 3.45761 51.9568C5.42889 52.2319 7.32132 50.9978 7.84962 49.0642C7.97184 48.624 7.99944 48.1563 8.07829 47.6729H11.3033C11.3191 49.1624 11.8198 50.4279 13.0893 51.3004C13.8699 51.8349 14.7412 52.0432 15.6835 51.9803C17.6981 51.8467 18.873 50.5144 19.4013 47.7358C19.5196 47.724 19.6457 47.7004 19.7719 47.7004C20.7181 47.7004 21.6604 47.7004 22.65 47.7004C22.65 49.0995 23.0955 50.2393 24.1442 51.0961C24.8893 51.7052 25.7527 52 26.7226 51.9882C28.9186 51.9646 30.2591 50.5694 30.7204 47.7829H33.9257C33.9966 48.2153 34.0321 48.6436 34.1425 49.0484C34.6629 50.9664 36.4765 52.1847 38.4635 51.9725C40.3757 51.7642 41.8857 50.141 41.9921 48.1799C42 48.0698 42 47.9559 42 47.8458C42 39.4903 42 31.1387 42 22.7832C42 21.4194 41.5111 20.2796 40.4151 19.4425C38.4044 17.9019 35.5027 18.5936 34.3948 20.8692C34.3041 21.05 34.2292 21.2386 34.1346 21.4508ZM17.8795 35.2968C17.8795 39.5453 17.8874 43.7938 17.8755 48.0423C17.8755 49.296 16.9372 50.3493 15.7347 50.5223C14.4692 50.707 13.2746 49.9799 12.9119 48.7694C12.8093 48.4196 12.7817 48.0384 12.7817 47.6729C12.7739 39.4353 12.7739 31.1976 12.7817 22.96C12.7817 22.681 12.7975 22.4019 12.8409 22.1308C13.0065 21.1168 13.866 20.2757 14.8831 20.1106C16.5153 19.8473 17.8755 20.9871 17.8795 22.6613C17.8913 26.8745 17.8795 31.0837 17.8795 35.2968ZM1.44691 35.3125C1.44691 34.7544 1.44691 34.2003 1.44691 33.6422C1.44691 30.0068 1.44297 26.3675 1.44691 22.7321C1.44691 21.3683 2.31822 20.3072 3.55618 20.1067C5.23965 19.8395 6.56435 21.0303 6.56435 22.8343C6.56435 30.2387 6.56435 37.6392 6.56435 45.0436C6.56435 46.0262 6.58012 47.0087 6.5604 47.9952C6.53675 49.131 5.85469 50.0664 4.82962 50.4161C3.13038 50.9939 1.45086 49.7559 1.44691 47.893C1.43509 43.6995 1.44691 39.506 1.44691 35.3125ZM24.1166 35.3518C24.1166 35.0924 24.1166 34.833 24.1166 34.5737C24.1166 30.6042 24.1087 26.6347 24.1205 22.6613C24.1245 21.0107 25.4531 19.8709 27.0617 20.1028C28.3667 20.2914 29.2182 21.3565 29.2182 22.85C29.2222 31.1623 29.2182 39.4746 29.2182 47.7829C29.2182 47.9677 29.2064 48.1563 29.1828 48.3371C29.0329 49.3707 28.4534 50.0703 27.4756 50.4122C25.8198 50.986 24.1324 49.7677 24.1245 47.9834C24.1087 43.7702 24.1205 39.561 24.1205 35.3479L24.1166 35.3518ZM35.4278 35.1553H35.4987C35.4987 30.9422 35.4987 26.7251 35.4987 22.512C35.4987 21.0735 36.7249 19.9613 38.1639 20.0753C39.5872 20.1893 40.5452 21.274 40.5452 22.795C40.5452 30.223 40.5452 37.647 40.5452 45.0751C40.5452 46.0576 40.557 47.0441 40.5413 48.0266C40.5215 49.1506 39.8198 50.086 38.7829 50.424C37.0758 50.9821 35.4357 49.7362 35.4317 47.8537C35.4199 43.6209 35.4317 39.3881 35.4317 35.1553H35.4278ZM19.3698 46.2462V22.9011H22.6224V46.2423H19.3698V46.2462ZM30.7046 46.2777V22.9482H33.9375V46.2738H30.7046V46.2777ZM8.08223 46.1912V22.8264H11.2993V46.1873H8.08223V46.1912Z" fill="#1C7F3C"/>
<path d="M20.167 2.3914e-05C19.9895 0.169021 19.6781 0.330158 19.6189 0.558107C19.5598 0.786057 19.7057 1.1044 19.8397 1.34021C19.9186 1.47777 20.1512 1.52493 20.3128 1.61532C22.0476 2.59786 22.5167 4.26425 21.4719 5.95029C20.9949 6.7206 20.4114 7.4241 19.8752 8.15905C19.0394 9.30665 18.4086 10.525 18.5347 12.0067C18.6057 12.8281 18.9093 13.5512 19.4928 14.1408C19.8121 14.463 20.1788 14.5377 20.5297 14.2194C20.8766 13.9049 20.8727 13.5237 20.5612 13.1857C19.8437 12.4036 19.8082 11.4997 20.1709 10.5918C20.4153 9.97871 20.7899 9.41277 21.1605 8.86254C21.673 8.09223 22.2959 7.38873 22.769 6.59484C24.212 4.17779 23.3131 1.3913 20.7465 0.212253C20.5967 0.14151 20.4351 0.0943479 20.167 -0.00390625V2.3914e-05Z" fill="#1C7F3C"/>
<path d="M12.3947 14.5179C12.6312 14.3371 12.923 14.2232 12.9979 14.0266C13.0807 13.8066 13.0688 13.4253 12.9309 13.2642C12.0122 12.207 12.1423 11.0908 12.7613 10.01C13.266 9.12966 13.9165 8.33184 14.5118 7.5065C15.1347 6.64187 15.663 5.74186 15.7931 4.64927C16.006 2.8414 14.5946 0.656228 12.8481 0.113865C12.4499 -0.0079701 12.1384 0.113865 11.957 0.47544C11.7717 0.844876 11.89 1.16715 12.2251 1.39117C12.5642 1.61912 12.9427 1.79205 13.2541 2.04751C14.4172 3.0104 14.7129 4.31521 13.9677 5.62789C13.4749 6.49252 12.8402 7.28248 12.2527 8.08817C11.5904 8.99604 11.0266 9.95107 10.8807 11.0869C10.7349 12.1873 10.9793 13.1935 11.7323 14.0345C11.894 14.2153 12.1345 14.3293 12.3947 14.514V14.5179Z" fill="#1C7F3C"/>
<path d="M27.8262 0.015625C27.6685 0.164971 27.3925 0.318248 27.2821 0.550127C27.1244 0.876331 27.2466 1.20646 27.5817 1.4069C27.8656 1.57983 28.1731 1.72525 28.4373 1.92175C29.7344 2.88857 30.0813 4.2995 29.2692 5.69864C28.7684 6.55935 28.1298 7.34538 27.5463 8.15499C26.8524 9.11395 26.2807 10.124 26.194 11.3345C26.123 12.3367 26.3714 13.2485 27.0416 14.0188C27.4359 14.4708 27.8459 14.5415 28.2007 14.235C28.5398 13.9402 28.5358 13.555 28.1652 13.1109C27.566 12.3996 27.4556 11.5782 27.7946 10.7646C28.0943 10.0375 28.5319 9.36156 28.9577 8.69343C29.5057 7.83665 30.1957 7.05848 30.6648 6.1624C32.1196 3.36805 30.1405 0.939214 28.2756 0.157111C28.1731 0.113879 28.0667 0.0902981 27.8262 0.0195552V0.015625Z" fill="#1C7F3C"/>
</g>
<defs>
<clipPath id="clip0_190_447">
<rect width="42" height="52" fill="white" transform="matrix(-1 0 0 1 42 0)"/>
</clipPath>
</defs>
</svg>
