<svg width="60" height="48" viewBox="0 0 60 48" fill="none" xmlns="http://www.w3.org/2000/svg">
<g clip-path="url(#clip0_193_84)">
<path d="M12.956 35.8575C14.9951 37.0534 17.106 38.2905 19.1716 39.5277C19.8815 39.9513 20.4064 39.955 21.1087 39.5351C23.1743 38.3018 25.2852 37.0647 27.3243 35.865C28.9594 34.9053 30.5907 33.9494 32.2182 32.9822C32.7355 32.6748 33.1396 32.6748 33.6607 32.9822C36.9799 34.9503 40.488 37.0122 44.0942 39.104C44.6002 39.3964 44.7928 39.7263 44.7852 40.2812C44.7626 42.0356 44.7663 43.8201 44.7701 45.5445V48H46.6695V47.3477C46.6695 46.7254 46.6695 46.1068 46.6695 45.4845C46.6695 43.8276 46.6771 42.1106 46.6544 40.4236C46.6469 39.7676 46.8583 39.3889 47.4134 39.0665C49.2147 38.0281 51.0083 36.9747 52.802 35.9213C54.6976 34.8116 56.5895 33.6982 58.4927 32.5998C59.2064 32.1874 59.482 31.7151 59.4745 30.9166C59.4405 26.3655 59.4405 21.702 59.4745 17.0609C59.482 16.2474 59.2102 15.7751 58.5078 15.3702C54.7165 13.1809 50.8309 10.9053 46.628 8.40487C45.9747 8.01874 45.4687 8.01874 44.8192 8.40487C42.5158 9.78069 40.1594 11.1603 37.8824 12.4948C36.4664 13.3233 35.0541 14.1518 33.6418 14.9841C33.2793 15.1978 32.879 15.3777 32.3277 15.0515C28.9065 13.0197 25.3116 10.9091 21.6449 8.77976C21.2409 8.54733 21.0785 8.24742 21.0823 7.75258C21.0936 5.97563 21.0898 4.19869 21.0898 2.42174V0H19.1904V0.629803C19.1904 1.25961 19.1904 1.88941 19.1904 2.51921C19.1867 4.19119 19.1829 5.92315 19.2093 7.62512C19.2206 8.31865 18.9148 8.6373 18.4503 8.90722C16.7019 9.9194 14.9611 10.9428 13.2203 11.9663C11.2341 13.1321 9.24781 14.298 7.254 15.4527C6.63093 15.8126 6.38926 16.2399 6.39681 16.9822C6.40814 18.4967 6.40059 20.0112 6.39681 21.5258C6.38926 24.0337 6.38171 26.6242 6.44212 29.1696C6.47611 30.6054 6.04185 31.4564 4.89012 32.2062C3.68553 32.9934 2.56024 33.8557 1.37075 34.7704C0.917606 35.119 0.460691 35.4677 0 35.8163L1.1253 37.3046L2.55646 36.2399C4.0065 35.164 5.37725 34.1443 6.7631 33.0872C7.23134 32.731 7.61273 32.7085 8.12629 33.0159C9.73493 33.9681 11.3474 34.9166 12.9598 35.8613L12.956 35.8575ZM33.8721 17.7769C33.8721 17.3121 33.9779 16.941 34.499 16.6373C38.0448 14.5829 41.5944 12.4986 45.0533 10.448C45.5367 10.1593 45.9219 10.1631 46.4241 10.4592C50.204 12.6973 53.6365 14.7104 56.9142 16.6111C57.3976 16.8922 57.5826 17.2259 57.5751 17.8069C57.5562 19.3215 57.56 20.8622 57.5638 22.3505V24.0037V25.657C57.5638 27.1715 57.56 28.7348 57.5751 30.2755C57.5826 30.7741 57.4014 31.0853 56.952 31.344C52.8964 33.702 49.5432 35.6701 46.4014 37.537C46.1673 37.6757 45.9558 37.747 45.7406 37.747C45.5254 37.747 45.2875 37.672 45.0307 37.5183C41.4735 35.4077 37.9428 33.3383 34.5405 31.3664C34.0572 31.0853 33.8721 30.7554 33.8759 30.1781C33.8948 26.2418 33.8948 22.1856 33.8759 17.7807L33.8721 17.7769ZM8.29244 17.7769C8.29244 17.3121 8.3944 16.9372 8.91551 16.6373C12.4236 14.6054 15.9731 12.5211 19.4661 10.448C19.9532 10.1593 20.3346 10.1631 20.8368 10.4592C24.2052 12.4536 27.7548 14.538 31.3912 16.6485C31.8217 16.8997 31.9954 17.2146 31.9916 17.732C31.9765 19.2727 31.9765 20.8397 31.9803 22.3543V24V25.6532C31.9803 27.1678 31.9765 28.731 31.9916 30.268C31.9954 30.7704 31.8179 31.0778 31.3685 31.3402C27.2865 33.7132 23.9333 35.6814 20.818 37.5295C20.5801 37.672 20.3686 37.7395 20.1534 37.7395C19.9381 37.7395 19.704 37.6645 19.4472 37.5108C15.9014 35.4077 12.3745 33.3383 8.95705 31.359C8.4737 31.0778 8.28489 30.7479 8.28867 30.1743C8.30755 26.2943 8.30755 22.2418 8.28867 17.7769H8.29244Z" fill="#1C7F3C"/>
<path d="M46.3931 13.6533L45.4453 15.2616L53.194 19.8051L54.1494 18.2007L46.3931 13.6533Z" fill="#1C7F3C"/>
<path d="M29.1899 19.3777H27.3887V28.6073H29.1899V19.3777Z" fill="#1C7F3C"/>
<path d="M20.4285 15.2576L19.4656 13.6606L11.7207 18.2117L12.6874 19.8087L20.4285 15.2576Z" fill="#1C7F3C"/>
<path d="M12.6856 28.161L11.7285 29.7637L19.4724 34.3211L20.4295 32.7184L12.6856 28.161Z" fill="#1C7F3C"/>
</g>
<defs>
<clipPath id="clip0_193_84">
<rect width="59.4783" height="48" fill="white"/>
</clipPath>
</defs>
</svg>
