<svg width="37" height="49" viewBox="0 0 37 49" fill="none" xmlns="http://www.w3.org/2000/svg">
<g clip-path="url(#clip0_2014_84)">
<path d="M9.3503 17.0882C10.5507 15.3021 11.5541 13.3302 12.3345 11.2525C13.5684 7.96471 14.2373 4.5712 14.2373 1.0574C14.2373 0.11334 14.9694 -0.276677 15.8056 0.204466C21.4507 3.44853 25.2674 8.12509 27.2594 14.2414C27.2928 14.3471 27.3263 14.4565 27.3672 14.5622C27.3783 14.595 27.4155 14.6205 27.4712 14.6861C28.0398 12.9912 27.9692 11.3619 27.2706 9.76171C27.0996 9.37169 27.0178 9.01448 27.2966 8.64633C27.6756 8.15425 28.3037 8.13967 28.7905 8.63175C31.4329 11.3072 33.4806 14.369 34.9002 17.8281C36.4202 21.5242 37.2192 25.3879 36.9442 29.3464C36.3087 38.4772 31.6893 44.9653 23.1008 48.6577C22.9076 48.7416 22.7069 48.8108 22.5136 48.891C22.0788 49.0696 21.6774 49.0332 21.3653 48.6687C21.0531 48.3041 21.0717 47.8995 21.3244 47.5168C22.9967 44.9617 23.8738 42.1623 23.9779 39.1296C24.1079 35.2623 23.0228 31.7485 20.7372 28.5919C20.6852 28.519 20.622 28.457 20.5291 28.3513C20.4733 29.3573 20.4696 30.3087 20.3619 31.2527C20.0943 33.5965 19.1466 35.6814 17.7121 37.5623C17.4334 37.9268 17.058 38.1017 16.6009 37.9086C16.1178 37.7008 15.9245 37.3181 16.0026 36.8078C16.1772 35.6268 15.9728 34.4859 15.6495 33.3778C15.1627 34.7921 14.7613 36.2318 14.1816 37.5987C13.1484 40.0482 13.0035 42.5086 13.9028 44.9981C14.2076 45.8401 14.6907 46.6311 15.1441 47.4111C15.3857 47.8267 15.5083 48.2057 15.2147 48.6176C14.9323 49.0113 14.5197 49.0587 14.0775 48.9384C7.26915 47.0612 2.66459 42.8986 0.702351 36.1845C-0.672699 31.486 0.0222589 26.9443 2.38214 22.6505C3.917 19.8584 4.87953 16.895 5.21029 13.7384C5.25488 13.2937 5.46671 12.9766 5.89038 12.849C6.34749 12.7105 6.73399 12.8818 6.98299 13.2755C7.77457 14.5367 8.555 15.8052 9.3503 17.0882ZM6.91238 16.3337C6.8492 16.3446 6.7823 16.3519 6.71913 16.3628C6.68568 16.4503 6.64108 16.5342 6.6225 16.6216C6.11708 18.9617 5.29948 21.1961 4.13254 23.2957C3.02136 25.2895 2.24464 27.389 1.99936 29.6489C1.2598 36.4396 4.67513 42.658 10.8629 45.8219C11.3571 46.0734 11.8774 46.2775 12.4646 46.54C12.4126 46.3504 12.4051 46.2921 12.3828 46.2411C11.1564 43.2048 11.1044 40.1539 12.3903 37.1358C13.3677 34.8431 13.992 32.4957 13.9957 30.0025C13.9957 29.5687 14.2224 29.2771 14.6275 29.1569C15.0772 29.0256 15.46 29.1641 15.735 29.5542C16.508 30.6477 17.1398 31.8068 17.4928 33.1008C17.5597 33.345 17.6378 33.5856 17.7493 33.9428C18.879 31.0887 18.9571 28.344 17.8979 25.5884C17.7047 25.089 17.7121 24.6625 18.1655 24.3236C18.5594 24.0283 19.0091 24.1012 19.4625 24.5095C25.6131 30.0244 27.4861 38.1856 24.3532 45.7927C24.3161 45.8802 24.3123 45.9823 24.2789 46.1317C24.4796 46.0297 24.6171 45.9677 24.7471 45.8911C31.4812 41.98 34.9671 36.1589 35.1121 28.508C35.2198 22.8437 33.4806 17.686 30.1507 13.0495C30.0467 12.9037 29.924 12.7652 29.7531 12.5538C29.7085 12.9001 29.6713 13.1552 29.6453 13.4104C29.4892 15.0324 28.8574 16.4722 27.9098 17.7917C27.631 18.1781 27.2371 18.4004 26.8283 18.2109C26.5347 18.076 26.2225 17.7115 26.1631 17.4053C24.933 11.278 21.7369 6.40464 16.5377 2.80336C16.4077 2.71588 16.2664 2.65027 16.1103 2.56279C15.958 3.75107 15.8539 4.88103 15.6644 5.9964C14.8208 10.9791 12.8734 15.5135 9.84829 19.6033C9.55099 20.0042 9.26111 20.3869 8.69251 20.2667C8.13877 20.15 8.01242 19.698 7.87119 19.2205C7.58875 18.2473 7.23941 17.296 6.91609 16.3337H6.91238Z" fill="#1C7F3C"/>
</g>
<defs>
<clipPath id="clip0_2014_84">
<rect width="37" height="49" fill="white" transform="translate(0 0.000244141)"/>
</clipPath>
</defs>
</svg>
