<svg width="53" height="46" viewBox="0 0 53 46" fill="none" xmlns="http://www.w3.org/2000/svg">
<g clip-path="url(#clip0_193_72)">
<path d="M52.4793 34.0203C51.7433 28.5891 47.2939 24.6812 41.9384 24.7526H41.9088C41.2208 24.7526 40.8029 24.4818 40.4737 23.8199C38.4728 19.7953 35.2033 17.5988 30.7576 17.2903C30.1806 17.249 29.8219 17.0082 29.563 16.4854C27.4881 12.2653 23.3716 9.69263 18.9481 9.69263C18.3341 9.69263 17.7128 9.74152 17.0877 9.84308C12.176 10.648 8.814 13.5742 7.36786 18.3059C5.91062 23.0751 7.04238 27.3291 10.7299 30.9549C11.0553 31.2746 11.4215 31.5605 11.8061 31.8614C11.9874 32.0043 12.1686 32.1435 12.3461 32.2902L12.5532 32.4594V32.7302C12.5532 32.7302 12.568 32.892 12.4867 33.0499L12.2574 33.4712C11.2957 35.2841 10.9962 37.1685 11.3734 39.0642C12.2093 43.2655 15.4788 45.9811 19.6989 45.9886C27.2181 46.0037 34.8075 45.9961 41.5019 45.9886C42.1048 45.9886 42.8149 45.9736 43.5177 45.8833C47.612 45.353 51.0886 42.265 52.1723 38.1991C52.2833 37.7891 52.3646 37.3716 52.4497 36.9315C52.4867 36.7435 52.5237 36.5554 52.5606 36.3674L52.5533 34.3513C52.5237 34.2573 52.4904 34.1445 52.4719 34.0128L52.4793 34.0203ZM8.83989 22.0521C8.7992 18.5842 10.4673 15.3721 13.2967 13.4689C15.5824 11.9306 18.3193 11.4153 21.0045 12.0208C23.6527 12.6189 25.8829 14.2287 27.2809 16.5494C27.3216 16.6171 27.3586 16.6848 27.403 16.775L27.7987 17.5235L27.1552 17.7266C25.0655 18.3886 23.3753 19.4719 21.992 21.0403C20.2352 23.0338 19.2661 25.4146 19.1108 28.119C19.0627 28.9652 18.5449 29.1533 18.1011 29.221C16.9471 29.3978 15.8968 29.8266 14.9721 30.4961C14.6947 30.6954 14.4432 30.7706 14.2176 30.7706C13.9291 30.7706 13.6813 30.6465 13.4779 30.5186C10.6115 28.6831 8.87687 25.5199 8.83619 22.0558L8.83989 22.0521ZM50.5264 35.8145C50.3341 40.2527 46.6466 43.8823 42.3119 43.9011C39.6785 43.9124 37.0489 43.9087 34.4155 43.9087C33.4428 43.9087 32.4663 43.9087 31.4899 43.9087L30.9388 43.9275C29.7923 43.9275 28.6457 43.9275 27.4992 43.9275C26.3711 43.9275 25.2245 43.9275 24.0743 43.9275C22.5727 43.9275 21.0637 43.9275 19.5657 43.9162C17.8348 43.9049 16.2296 43.2203 15.0498 41.9904C13.8625 40.753 13.2301 39.0905 13.2634 37.3152C13.3263 34.0354 16.1076 31.222 19.3327 31.1656C19.4992 31.1656 19.6656 31.1656 19.832 31.1693H20.0318C20.3276 31.1844 20.7308 31.1242 20.9786 30.8421C21.2301 30.5562 21.2375 30.135 21.2005 29.8341C21.0526 28.6643 21.1339 27.472 21.4409 26.2948C22.4802 22.3003 25.9901 19.4418 29.9735 19.344C34.1751 19.2424 37.8367 21.8602 39.0905 25.8547C39.4159 26.8965 39.5972 27.0809 40.888 26.8966C43.4141 26.5355 45.9254 27.314 47.7821 29.0292C49.6388 30.7443 50.6374 33.2154 50.5227 35.8107L50.5264 35.8145Z" fill="#1C7F3C"/>
<path d="M4.23882 29.8792C4.09457 29.7927 3.93183 29.7476 3.7617 29.7476C3.59157 29.7476 3.40664 29.7965 3.23281 29.8905C2.43022 30.3343 1.57215 30.8383 0.532852 31.474C0.0150523 31.7899 -0.147685 32.3691 0.137105 32.8844C0.414498 33.3847 1.00997 33.5502 1.52037 33.2643C2.45241 32.749 3.39184 32.1848 4.2684 31.6545C4.60128 31.4514 4.75662 31.1655 4.76401 30.97C4.76401 30.481 4.57169 30.0823 4.23512 29.8792H4.23882Z" fill="#1C7F3C"/>
<path d="M0.407463 12.2879C1.51703 13.0063 2.45277 13.5554 3.35152 14.0218C3.64001 14.1723 3.95809 14.1647 4.24658 14.0068C4.56095 13.8338 4.78657 13.5141 4.87163 13.1304C4.82725 13.0477 4.78657 12.9611 4.74588 12.8746C4.64232 12.6602 4.52397 12.4158 4.41301 12.3368C3.54015 11.735 2.53784 11.1407 1.3543 10.5201C1.24334 10.4599 1.12498 10.4336 1.00663 10.4336C0.658965 10.4336 0.3113 10.663 0.141166 10.9639C-0.125131 11.4378 -0.0104751 12.0171 0.407463 12.2879Z" fill="#1C7F3C"/>
<path d="M17.8089 4.23148C17.8237 4.82951 18.2194 5.26206 18.7705 5.2771C19.3438 5.28462 19.7913 4.90098 19.8172 4.34055C19.869 3.19713 19.869 2.05372 19.8172 0.932866C19.7913 0.383724 19.3364 -0.0300126 18.7705 7.73844e-05C18.2194 0.0226448 17.8237 0.458949 17.8089 1.06075C17.8015 1.42183 17.8015 1.78291 17.8052 2.14022V2.64423V3.14448C17.8052 3.50556 17.8015 3.86663 17.8089 4.22771V4.23148Z" fill="#1C7F3C"/>
<path d="M33.5653 14.0784C33.8205 14.1574 34.0979 14.1273 34.342 13.9919C35.1742 13.5368 36.047 13.0252 37.1751 12.3332C37.471 12.1526 37.6152 11.8705 37.6152 11.4718C37.6152 11.0957 37.4377 10.776 37.1381 10.5955C36.9828 10.5014 36.8126 10.4563 36.6388 10.4563C36.465 10.4563 36.2874 10.5014 36.1173 10.5955C35.1409 11.1296 34.1829 11.705 33.373 12.2015C32.881 12.5024 32.7146 13.0854 32.9772 13.5819C33.1067 13.8264 33.3175 14.0032 33.569 14.0821L33.5653 14.0784Z" fill="#1C7F3C"/>
</g>
<defs>
<clipPath id="clip0_193_72">
<rect width="52.5714" height="46" fill="white"/>
</clipPath>
</defs>
</svg>
