<svg width="60" height="42" viewBox="0 0 60 42" fill="none" xmlns="http://www.w3.org/2000/svg">
<g clip-path="url(#clip0_193_78)">
<path d="M56.8532 28.4227C56.4703 28.1336 56.437 27.8527 56.5161 27.4851C57.1404 24.5358 56.3496 21.5618 54.3395 19.3271C52.3294 17.0966 49.4494 15.9772 46.4322 16.2622C46.1658 16.287 45.8995 16.3201 45.6498 16.349L45.1628 16.4068L45.1129 16.2374C43.1777 9.41782 38.9701 5.64657 32.611 5.03111C24.9659 4.2876 19.6763 7.88536 16.892 15.7253L16.8255 15.9111L16.634 15.8533C12.9092 14.7339 9.67973 15.432 7.02453 17.9269C4.36933 20.4259 3.50369 23.6271 4.46089 27.4438L4.50251 27.6049L4.35684 27.6792C2.28845 28.7243 0.919237 30.3352 0.290812 32.4707C0.2159 32.7186 0.153474 32.9747 0.0910476 33.2266L0.0078125 33.5571L0.0202978 35.3869C0.0452683 35.4406 0.0744006 35.5067 0.0910476 35.5769C1.00663 39.7819 3.77836 42.0042 8.11075 42.0042H24.1418H24.2958C24.454 42.0042 24.6121 42.0042 24.7702 41.9918C25.253 41.9463 25.6109 41.5828 25.6442 41.112C25.6775 40.6576 25.3903 40.2569 24.9492 40.1413C24.7286 40.0834 24.4831 40.0793 24.2459 40.0793C22.3564 40.0793 20.467 40.0793 18.5734 40.0793C14.8986 40.0793 11.2237 40.0793 7.55307 40.0669C4.69395 40.0545 2.45909 38.1131 1.99297 35.2382C1.57679 32.6896 3.21236 30.0956 5.79265 29.2034C6.30871 29.0258 6.60003 28.8275 6.7124 28.5838C6.8206 28.3401 6.78315 28.0014 6.58338 27.5181C6.02571 26.155 5.87589 24.763 6.14224 23.3834C6.60419 21.0083 8.08578 19.0545 10.2083 18.026C12.3391 16.9933 14.8112 17.0429 16.9919 18.1499C17.4539 18.3854 17.8534 18.4267 18.1531 18.278C18.4319 18.1375 18.615 17.8236 18.6858 17.3692C19.593 11.5038 24.2167 7.26577 30.193 6.83206C36.6146 6.35704 42.491 11.1444 43.2817 17.4973C43.3483 18.0467 43.5065 18.3936 43.7603 18.5547C44.01 18.7158 44.3888 18.7117 44.9131 18.5506C47.8721 17.6253 50.4483 18.2201 52.5708 20.3144C54.6808 22.3962 55.2925 24.953 54.3853 27.9064C54.1023 28.8275 54.2146 29.1084 55.0553 29.5669C57.1445 30.7111 58.3473 33.0531 57.9727 35.2671C57.4816 38.1792 55.2426 40.0628 52.2711 40.071C49.0249 40.0793 45.7788 40.0793 42.5368 40.0793C40.2769 40.0793 38.0171 40.0793 35.7573 40.0793C35.4992 40.0793 35.2038 40.0917 34.9499 40.1702C34.5462 40.2941 34.2882 40.703 34.334 41.1409C34.3797 41.5911 34.7293 41.9422 35.183 41.9918C35.3161 42.0083 35.4493 42.0042 35.5825 42.0042H36.9559C42.0207 42.0042 47.0814 42.0042 52.1463 42.0042H52.2919C52.6623 42.0042 53.0452 42.0042 53.4031 41.9463C56.7034 41.3804 58.83 39.5134 59.7207 36.3948C60.5613 33.4373 59.4626 30.3889 56.8532 28.4351V28.4227Z" fill="#1C7F3C"/>
<path d="M28.4116 17.6418C28.4116 17.6418 28.3742 17.6418 28.3533 17.6418C26.3183 17.6418 24.4038 18.4267 22.9472 19.8559C21.4823 21.2933 20.6666 23.2058 20.6583 25.238C20.6499 27.2744 21.4448 29.191 22.8973 30.6409C24.3497 32.0907 26.285 32.8962 28.3367 32.9003H28.3658C32.5775 32.9003 36.0193 29.5132 36.0401 25.333C36.0651 21.1198 32.64 17.6708 28.4033 17.6418H28.4116ZM28.3908 30.9713H28.3533C26.8343 30.9713 25.4027 30.3848 24.3123 29.3108C23.2136 28.2327 22.6101 26.7994 22.606 25.2835C22.6018 23.7717 23.1969 22.3425 24.2832 21.2603C25.3735 20.1739 26.826 19.575 28.3617 19.575C31.508 19.575 34.0841 22.1112 34.1007 25.2298C34.1174 28.3773 31.5537 30.9507 28.3866 30.9713H28.3908Z" fill="#1C7F3C"/>
<path d="M11.4083 0C10.064 0 8.79886 0.520456 7.84998 1.46636C6.9011 2.41227 6.37672 3.66385 6.38088 4.99803C6.38088 6.32809 6.91775 7.58792 7.8916 8.54209C8.84464 9.47561 10.0848 9.9878 11.3916 9.9878C11.4083 9.9878 11.4249 9.9878 11.4374 9.9878C14.1883 9.96302 16.4357 7.72836 16.4482 5.00216C16.4523 3.67624 15.9363 2.42467 14.9874 1.47876C14.0219 0.524587 12.7567 0 11.4083 0ZM11.4166 8.05881H11.4C10.5926 8.05881 9.82265 7.74075 9.24001 7.16247C8.64488 6.57592 8.32026 5.79937 8.32026 4.98151C8.32026 4.16365 8.64488 3.39949 9.22752 2.82533C9.81017 2.25118 10.5884 1.93312 11.4166 1.93312H11.4333C12.2614 1.93312 13.0397 2.26357 13.6223 2.85425C14.205 3.44079 14.5171 4.21322 14.5046 5.02695C14.4797 6.69158 13.098 8.05468 11.4208 8.06294L11.4166 8.05881Z" fill="#1C7F3C"/>
<path d="M43.8393 30.7773C44.1722 30.0048 44.168 29.1581 43.8309 28.3939C43.4772 27.5884 42.778 26.9523 41.9165 26.6425C41.1008 26.3534 40.1811 26.4195 39.3945 26.8201C38.6079 27.2208 38.0211 27.9271 37.7839 28.7491C37.6591 29.1911 37.734 29.6166 37.9837 29.8933C38.1959 30.1246 38.4997 30.2155 38.8452 30.1535C39.2405 30.0792 39.4778 29.8355 39.6567 29.3068C39.7857 28.9268 40.0396 28.6335 40.3684 28.4889C40.5182 28.4228 40.6805 28.3898 40.8428 28.3898C41.0051 28.3898 41.1716 28.4228 41.3297 28.4889C41.671 28.6335 41.9249 28.8896 42.0497 29.2076C42.1704 29.5257 42.1538 29.8892 41.9915 30.2238C41.7584 30.7112 41.4587 31.1655 41.2174 31.5043C40.3268 32.7723 39.3945 34.0859 38.3582 35.5192C38.0295 35.9777 37.9712 36.3371 38.1668 36.7212C38.3499 37.0806 38.662 37.2375 39.2031 37.2375H39.2156C39.8315 37.2375 40.4474 37.2375 41.0634 37.2375C41.8042 37.2375 42.545 37.2375 43.2858 37.2375C43.7103 37.2375 44.4219 37.1095 44.4469 36.3123C44.4552 36.0355 44.3761 35.8083 44.218 35.639C44.0224 35.4366 43.7061 35.3251 43.3024 35.3127C42.8946 35.3044 42.4867 35.3044 42.0247 35.3085H40.9177L41.1466 34.9864C41.2798 34.7963 41.4088 34.6187 41.5295 34.4494C41.7792 34.1024 41.9915 33.805 42.1912 33.4911C42.3494 33.2432 42.5117 32.9995 42.6781 32.7558C43.1068 32.1238 43.5479 31.4671 43.8434 30.7773H43.8393Z" fill="#1C7F3C"/>
<path d="M30.0223 40.0752C30.0223 40.0752 30.0015 40.0752 29.989 40.0752C29.7559 40.0752 29.5187 40.1743 29.3356 40.3437C29.14 40.5295 29.0276 40.7774 29.0235 41.0293C29.0193 41.5498 29.4272 41.9711 29.9557 41.9876C30.2262 41.9959 30.4759 41.9009 30.6674 41.7192C30.8546 41.5415 30.9545 41.302 30.9587 41.0459C30.9628 40.5378 30.5342 40.0917 30.0223 40.071V40.0752Z" fill="#1C7F3C"/>
</g>
<defs>
<clipPath id="clip0_193_78">
<rect width="60" height="42" fill="white"/>
</clipPath>
</defs>
</svg>
