<svg width="50" height="43" viewBox="0 0 50 43" fill="none" xmlns="http://www.w3.org/2000/svg">
<path d="M0.00129408 24.0642C0.171946 23.2931 0.265027 22.4935 0.524882 21.7536C2.11634 17.2261 5.28632 14.6022 10.0374 13.9313C10.0852 13.9248 10.1305 13.9092 10.2559 13.8792C10.2559 13.5139 10.2546 13.1316 10.2559 12.7493C10.2662 10.6143 11.6146 9.26723 13.7452 9.26463C14.5041 9.26463 15.2643 9.25422 16.0218 9.26983C17.7503 9.30493 19.1479 10.7027 19.1957 12.436C19.2086 12.8871 19.197 13.3383 19.197 13.8259H21.6895C21.7051 13.6361 21.7076 13.4606 21.7348 13.2876C21.8667 12.4815 22.5144 11.8261 23.3469 11.7832C24.3618 11.7312 25.3818 11.7286 26.3967 11.778C27.3055 11.8235 27.9274 12.4789 28.0567 13.393C28.0773 13.5347 28.0954 13.6777 28.1174 13.8389H29.8937C29.8937 13.5464 29.8937 13.2616 29.8937 12.9782C29.8937 12.0212 29.8937 11.0642 29.8937 10.1085C29.8937 9.1177 30.0941 8.87585 31.118 8.70161C31.118 8.52868 31.1129 8.34144 31.118 8.1555C31.1555 6.95796 31.0844 5.74482 31.2564 4.56678C31.6054 2.17431 33.4373 0.498272 35.9428 0.127698C36.4677 0.049682 37.0029 0.0158748 37.5343 0.0145746C41.1516 0.00547276 44.7702 0.0184758 48.3874 0.000272141C48.9718 -0.00232838 49.3868 0.175807 49.6428 0.703713V5.27933C49.3247 5.80723 48.8516 5.95286 48.2543 5.94506C46.2827 5.92296 44.3112 5.93986 42.341 5.94246C40.8542 5.94376 39.3675 5.93856 37.8807 5.95936C37.7179 5.96196 37.4205 6.1167 37.4166 6.21161C37.3804 7.04508 37.3946 7.87985 37.3946 8.68731C37.67 8.76012 37.8859 8.78093 38.0682 8.87065C38.4806 9.07219 38.5957 9.44536 38.5931 9.88355C38.5853 11.1929 38.5905 12.5023 38.5905 13.8636H40.9033C42.4702 13.8636 42.6331 14.0262 42.6331 15.5813C42.6331 16.6644 42.6331 17.7475 42.6331 18.8905C42.8581 18.8905 43.0313 18.8905 43.2046 18.8905C44.933 18.8905 46.6628 18.9074 48.3913 18.8814C48.977 18.8722 49.3907 19.0608 49.6428 19.59V30.6877C49.3506 31.2065 48.9162 31.3873 48.3202 31.3768C46.6085 31.3469 44.8943 31.3664 43.1826 31.3664H42.6344C42.6344 32.5484 42.6344 33.6666 42.6344 34.7835C42.6344 36.1709 42.4263 36.3764 41.0262 36.3764C36.9215 36.3764 32.8181 36.3764 28.7134 36.3764H28.1265C28.1045 36.5155 28.0877 36.6091 28.076 36.7027C27.9261 37.8808 27.2499 38.4815 26.0618 38.4867C25.206 38.4906 24.3489 38.4997 23.493 38.4802C22.588 38.4594 21.8486 37.7858 21.7296 36.9069C21.7076 36.7482 21.7038 36.5883 21.6908 36.4076H18.4756V40.532H19.1311C28.8427 40.532 38.553 40.5359 48.2646 40.5229C48.8645 40.5229 49.3351 40.6646 49.6441 41.2003V41.7841C49.3713 42.3263 48.9304 42.4876 48.3344 42.4863C32.641 42.4746 16.9475 42.4746 1.25532 42.4863C0.673555 42.4863 0.254684 42.3146 0 41.7841V41.2003C0.316739 40.675 0.783447 40.5177 1.38331 40.5216C4.14476 40.5424 6.90492 40.5307 9.66637 40.5307H10.2158V36.3581C10.0077 36.3217 9.81763 36.284 9.62759 36.2567C5.09757 35.5975 1.42468 32.2688 0.325788 27.8154C0.195213 27.2862 0.107304 26.7453 0 26.2096C0 25.4958 0 24.7819 0 24.0681L0.00129408 24.0642ZM21.6882 15.8075H21.0897C17.8913 15.8075 14.6915 15.8049 11.4931 15.8101C11.0898 15.8101 10.6851 15.8309 10.2843 15.8699C4.72653 16.4057 0.884286 21.8199 2.1952 27.2628C3.23204 31.5641 6.89199 34.4039 11.4492 34.4221C14.6967 34.4351 17.9443 34.4247 21.1918 34.4234C21.3495 34.4234 21.5073 34.4091 21.6895 34.4013V15.8075H21.6882ZM23.6856 13.7219V36.4973H26.1433C26.1433 36.2827 26.1433 36.1059 26.1433 35.9304C26.1433 33.9514 26.1433 31.9724 26.1433 29.9934C26.1433 29.7671 26.1381 29.537 26.1704 29.3133C26.2338 28.8725 26.5906 28.5592 27.0289 28.5293C27.502 28.4981 27.908 28.762 28.0204 29.208C28.0709 29.4096 28.0786 29.6254 28.0786 29.8347C28.0838 31.1805 28.0799 32.5276 28.0825 33.8733C28.0825 34.045 28.098 34.2166 28.1058 34.3909H40.6577V15.8374H28.0812C28.0812 16.0403 28.0812 16.2145 28.0812 16.3888C28.0812 17.7189 28.0825 19.0491 28.0799 20.3793C28.0799 20.573 28.0747 20.7706 28.036 20.9592C27.9416 21.4117 27.5408 21.7237 27.0961 21.7185C26.6294 21.712 26.2325 21.3661 26.1666 20.8903C26.142 20.7147 26.1446 20.534 26.1446 20.3558C26.1433 18.3287 26.1446 16.3003 26.1446 14.2732C26.1446 14.1003 26.1446 13.9261 26.1446 13.7219H23.6869H23.6856ZM47.6751 29.3953V20.8655H42.6706V29.3953H47.6751ZM47.688 1.95456C46.9304 1.95456 46.2091 1.95456 45.4864 1.95456C42.6293 1.95716 39.7708 1.93506 36.9137 1.97407C34.9577 2.00137 33.5188 2.98957 33.2344 4.6487C33.0081 5.97107 33.065 7.34414 32.9952 8.70811H35.4658C35.4658 7.76152 35.4347 6.85524 35.4735 5.95286C35.5239 4.79173 36.2609 4.08309 37.4218 4.01548C37.6959 3.99987 37.9699 4.00117 38.2453 4.00117C40.8607 3.99857 43.476 3.99727 46.0914 3.99467C46.6189 3.99467 47.1463 3.99467 47.6893 3.99467V1.95586L47.688 1.95456ZM16.4627 40.506V36.4037H12.2171V40.506H16.4627ZM36.6215 13.8363V10.7352H31.864V13.8363H36.6215ZM12.2158 13.8246H17.2591C17.2591 13.3526 17.2772 12.9171 17.2552 12.4828C17.2203 11.7676 16.6902 11.2358 15.9753 11.2189C15.1376 11.1981 14.2972 11.1981 13.4595 11.2189C12.8208 11.2345 12.2817 11.7013 12.2261 12.3085C12.1809 12.8026 12.2171 13.3032 12.2171 13.8233L12.2158 13.8246Z" fill="#1C7F3C"/>
</svg>
