<svg width="46" height="46" viewBox="0 0 46 46" fill="none" xmlns="http://www.w3.org/2000/svg">
<g clip-path="url(#clip0_193_94)">
<path d="M31.0859 42.6427C30.7676 42.4143 30.3533 42.3609 29.9593 42.5018C27.7767 43.2646 25.8013 43.6678 23.9118 43.7261C18.1928 43.9059 13.272 42.0354 9.28075 38.168C7.77015 36.7056 6.56269 35.0003 5.59772 32.9646L4.97125 31.6431L6.62836 31.9881C6.76477 32.0124 6.88097 32.0366 6.99212 32.0658L8.14907 32.367C8.96752 32.5808 9.78597 32.7946 10.6095 32.9938C10.7105 33.0181 11.0187 33.0958 11.2359 33.0715C11.8068 33.0132 12.2312 32.6002 12.2666 32.0755C12.307 31.4779 11.9635 31.0261 11.3471 30.8658C9.71019 30.4382 8.06823 30.0155 6.43133 29.5928L4.19827 29.0195C3.43539 28.8203 2.93523 28.8009 2.66746 28.9515C2.3997 29.1021 2.17235 29.5248 1.97532 30.2536L1.39432 32.3184C0.939622 33.9509 0.484926 35.5833 0.0403355 37.2206C-0.11123 37.7891 0.196953 38.3429 0.7729 38.5421C1.07603 38.649 1.39937 38.6296 1.67724 38.4984C1.96521 38.3624 2.1774 38.1097 2.27845 37.7939C2.42496 37.3372 2.55126 36.8757 2.68767 36.3898C2.75335 36.1566 2.81903 35.9186 2.88976 35.6708L3.34445 34.0772L4.58224 35.9769C7.84088 41.0685 12.5798 44.2994 18.6727 45.5675C19.3346 45.7084 20.0065 45.791 20.7189 45.8833C21.0321 45.9222 21.3403 45.9659 21.6535 46.0096L24.412 45.995C24.5585 45.9659 24.705 45.9416 24.8515 45.9319C26.837 45.7764 28.8074 45.3391 30.7121 44.6298C31.2476 44.4306 31.5002 44.1099 31.5305 43.5949C31.5507 43.216 31.389 42.871 31.0809 42.6524L31.0859 42.6427Z" fill="#1C7F3C"/>
<path d="M44.3529 36.4336C43.9184 36.5454 43.4839 36.6571 43.0191 36.7786L40.6598 37.3907L41.6904 35.4862C45.3583 28.8787 45.3987 22.1449 41.8116 15.4693C40.5739 13.1615 38.7753 11.087 36.4664 9.30392C35.8956 8.8618 35.2135 8.91039 34.774 9.42052C34.3445 9.92581 34.4304 10.5768 34.9912 11.0481C35.067 11.1113 35.1428 11.1696 35.2186 11.2327L35.3903 11.3736C41.7712 16.5965 43.8729 25.3757 40.4981 32.7217C40.1394 33.5088 39.6998 34.257 39.2755 34.9809C39.0835 35.3113 38.8915 35.6417 38.7046 35.9721L38.2094 36.8563L37.487 36.1324C37.2041 35.8457 37.1081 35.6125 37.0525 35.4036L36.7241 34.2182C36.4917 33.3776 36.2593 32.542 36.0118 31.7063C35.8551 31.167 35.4055 30.8318 34.8902 30.8318C34.7891 30.8318 34.6881 30.8464 34.587 30.8707C33.9404 31.031 33.5968 31.6335 33.7686 32.2991C33.9303 32.9112 34.102 33.5234 34.2738 34.1307L34.8548 36.215C35.1781 37.3762 35.5015 38.5422 35.8299 39.7034C36.0269 40.3981 36.6433 40.7771 37.29 40.6119C39.139 40.1309 40.9881 39.6451 42.8372 39.1641L44.944 38.6102C45.7321 38.4062 46.1262 37.8572 45.9494 37.2158C45.7624 36.5308 45.1461 36.2296 44.3478 36.4336H44.3529Z" fill="#1C7F3C"/>
<path d="M2.78444 23.5247C3.43617 23.6316 3.96665 23.2186 4.098 22.5044C4.50218 20.2889 5.1438 18.4427 6.05824 16.8589C9.47856 10.9121 14.7682 7.59862 21.7856 7.02047C22.4727 6.96216 23.1548 6.97674 23.8166 6.99131C24.1096 6.99617 24.4077 7.00589 24.7007 7.00589H25.7668L25.4182 7.97273C25.2868 8.34197 25.1049 8.54603 24.9331 8.71121L24.0288 9.57602C23.4074 10.1688 22.791 10.7615 22.1797 11.3591C21.7099 11.8255 21.7048 12.5105 22.1747 12.9575C22.6395 13.3996 23.3367 13.4045 23.7964 12.9672C25.7718 11.0967 27.7068 9.23593 29.5458 7.43829C29.7984 7.19051 29.9297 6.899 29.9146 6.59292C29.9045 6.27226 29.7327 5.95646 29.4397 5.70868C29.2831 5.5775 29.1315 5.44146 28.985 5.29571L27.2723 3.64383C26.1406 2.55553 25.0089 1.46723 23.8722 0.383795C23.5994 0.126296 23.2811 -0.00488281 22.9679 -0.00488281C22.6849 -0.00488281 22.4071 0.102004 22.1747 0.320635C21.9473 0.534407 21.8261 0.801623 21.821 1.08827C21.821 1.40407 21.9625 1.71987 22.2302 1.97737C22.5536 2.29317 22.887 2.59926 23.2508 2.93935L25.0342 4.61066L23.0891 4.71755C22.983 4.72241 22.9173 4.72727 22.8517 4.72727C18.628 4.75642 14.7581 5.87387 11.3479 8.04074C6.06835 11.3979 2.85517 16.1495 1.80937 22.1643C1.68307 22.8834 2.05693 23.4032 2.78949 23.5198L2.78444 23.5247Z" fill="#1C7F3C"/>
</g>
<defs>
<clipPath id="clip0_193_94">
<rect width="46" height="46" fill="white"/>
</clipPath>
</defs>
</svg>
