<svg width="47" height="47" viewBox="0 0 47 47" fill="none" xmlns="http://www.w3.org/2000/svg">
<path d="M2.87864 45.5619C2.78641 44.8525 2.63549 44.2269 2.63549 43.6014C2.62152 33.7121 2.62431 23.82 2.62431 13.9307V13.252C2.45942 13.2213 2.31409 13.1962 2.17435 13.1654C0.82167 12.8694 -0.120175 11.6378 0.0111805 10.3419C0.153715 8.92597 1.24648 7.91498 2.67462 7.87867C3.09383 7.8675 3.51026 7.87867 4.00214 7.87867C4.00214 7.61057 3.99935 7.38156 4.00214 7.15255C4.03847 5.12218 5.51971 3.61966 7.55153 3.59452C9.38491 3.56939 11.2183 3.58894 13.0545 3.58894C13.1858 3.58894 13.32 3.58894 13.5436 3.58894C13.5436 3.15885 13.5408 2.76227 13.5436 2.36848C13.5575 0.882715 14.4267 0.00856891 15.9024 0.00577611C18.2248 0.000190515 20.5473 0.000190515 22.867 0.00577611C24.3482 0.00856891 25.2174 0.882715 25.223 2.35731C25.223 2.73993 25.223 3.12254 25.223 3.56101C25.5416 3.56101 25.8071 3.56101 26.0698 3.56101C27.6181 3.56101 29.1664 3.61128 30.712 3.54984C33.4453 3.44092 34.9321 5.41822 34.7896 7.54075C34.784 7.62453 34.8007 7.70831 34.8091 7.86471C35.1221 7.86471 35.4352 7.86471 35.7482 7.86471C37.4223 7.86471 38.6184 8.81426 38.747 10.2386C38.8895 11.8109 37.9309 12.9476 36.1786 13.2464V18.8237C36.3435 18.832 36.5195 18.846 36.6956 18.8488C38.5458 18.8488 40.3959 18.8488 42.2489 18.8488C43.9062 18.8488 44.9179 19.857 44.9179 21.5243C44.9207 29.2966 44.9179 37.0662 44.9179 44.8386C44.9179 45.0564 44.9179 45.2714 44.9179 45.5703C45.3483 45.5703 45.7451 45.5619 46.142 45.5703C46.6758 45.5814 47.0028 45.8663 46.9916 46.2908C46.9804 46.7014 46.6646 46.9695 46.1616 46.9946C46.0442 47.0002 45.9268 46.9946 45.8094 46.9946C30.9355 46.9946 16.0617 46.9946 1.18779 46.9946C1.00333 46.9946 0.813285 47.0086 0.634419 46.9751C0.234764 46.9024 -0.00558825 46.6427 0.0111805 46.2406C0.0279492 45.8384 0.27948 45.5842 0.69311 45.5703C1.26325 45.5507 1.83618 45.5591 2.40911 45.5563C2.58798 45.5563 2.76964 45.5563 2.87025 45.5563L2.87864 45.5619ZM4.0804 22.8788C4.49961 22.8788 4.85176 22.8732 5.2039 22.8788C5.76286 22.8872 6.05352 23.1357 6.04513 23.591C6.03954 24.0294 5.72932 24.2892 5.18154 24.3003C4.81822 24.3087 4.4549 24.3003 4.08599 24.3003V28.6599C4.29001 28.6599 4.45769 28.6599 4.62538 28.6599C5.24862 28.6599 5.87186 28.6599 6.4923 28.6599C7.13231 28.6627 7.45091 28.8973 7.46209 29.3609C7.47327 29.8384 7.16585 30.0786 6.52584 30.0814C6.03675 30.0842 5.55046 30.0814 5.06137 30.0814C4.73438 30.0814 4.40739 30.0814 4.09158 30.0814V34.4717C4.70643 34.4717 5.27657 34.4661 5.8467 34.4717C6.45317 34.4773 6.75222 34.7147 6.75222 35.1755C6.75222 35.6279 6.43082 35.8876 5.8467 35.8932C5.26259 35.8988 4.68128 35.8932 4.08319 35.8932V40.2584C4.30118 40.2584 4.48285 40.2584 4.6673 40.2584C5.35762 40.2584 6.04793 40.2444 6.73545 40.264C7.19379 40.2779 7.48725 40.5879 7.46209 40.9957C7.43415 41.4369 7.17423 41.6576 6.73824 41.6715C6.52025 41.6799 6.29946 41.6743 6.08147 41.6743C5.41631 41.6743 4.75115 41.6743 4.04965 41.6743C4.04965 42.3781 4.04965 42.9981 4.04965 43.6181C4.04965 45.0508 4.55831 45.5591 5.99762 45.5591C14.9326 45.5591 23.8675 45.5591 32.8025 45.5591C33.0708 45.5591 33.3446 45.5535 33.6046 45.4977C34.1831 45.3692 34.6191 44.9866 34.6722 44.4196C34.7532 43.526 34.6945 42.6211 34.6945 41.6799C34.457 41.6799 34.2585 41.6799 34.0601 41.6799C33.353 41.6799 32.646 41.6883 31.9389 41.6715C31.5224 41.6604 31.2821 41.4202 31.2653 41.0041C31.2458 40.5851 31.4917 40.3477 31.8858 40.2751C32.0646 40.2416 32.2547 40.2612 32.4391 40.2612C33.1909 40.2612 33.9399 40.2612 34.6973 40.2612V35.896C34.0266 35.896 33.3894 35.91 32.7549 35.8904C32.1429 35.8709 31.7544 35.3319 32.059 34.8767C32.1988 34.67 32.537 34.5136 32.7997 34.4885C33.4285 34.4326 34.0629 34.4717 34.6917 34.4717V30.0814C34.4765 30.0814 34.2949 30.0814 34.1132 30.0814C33.3894 30.0814 32.6655 30.087 31.9417 30.073C31.5532 30.0647 31.31 29.8552 31.2625 29.4642C31.2178 29.1039 31.3771 28.833 31.7237 28.7185C31.8942 28.6627 32.087 28.6599 32.2687 28.6599C33.0708 28.6543 33.8729 28.6599 34.6945 28.6599V24.2975C34.2502 24.2975 33.8309 24.3143 33.4173 24.292C32.9534 24.2696 32.6739 23.9764 32.6795 23.5658C32.6851 23.1441 32.9562 22.8928 33.4425 22.8788C33.8561 22.8676 34.2725 22.8788 34.6973 22.8788V18.5025C34.5101 18.4941 34.3452 18.4801 34.1803 18.4801C33.4564 18.4801 32.7326 18.4885 32.0087 18.4746C31.5308 18.4662 31.2514 18.1953 31.2514 17.7819C31.2514 17.3714 31.5336 17.0865 31.9976 17.0642C32.4 17.0474 32.8053 17.0586 33.2077 17.0586C33.7052 17.0586 34.1999 17.0586 34.6806 17.0586V13.2241H4.0804V17.0586C4.28721 17.0586 4.46608 17.0586 4.64774 17.0586C5.35482 17.0586 6.0619 17.0418 6.76619 17.0698C7.18541 17.0865 7.46209 17.3323 7.4565 17.7819C7.45091 18.226 7.191 18.4522 6.75501 18.4746C6.55379 18.4857 6.35256 18.4801 6.14854 18.4801C5.46661 18.4801 4.78189 18.4801 4.0776 18.4801V22.8788H4.0804ZM19.3958 11.7942C24.8289 11.7942 30.262 11.7942 35.6923 11.7942C35.8767 11.7942 36.064 11.8026 36.2456 11.783C36.8437 11.7132 37.2993 11.23 37.3412 10.6463C37.3831 10.0347 37.0338 9.51246 36.4413 9.35886C36.187 9.29462 35.9103 9.28904 35.642 9.28904C24.8094 9.28624 13.9795 9.28624 3.14694 9.28904C2.94571 9.28904 2.74169 9.28066 2.54326 9.30859C1.94797 9.39237 1.52596 9.82246 1.4505 10.3978C1.3443 11.2105 1.94238 11.797 2.89261 11.797C8.39276 11.797 13.8929 11.797 19.3931 11.797L19.3958 11.7942ZM39.9068 45.5479V23.8507H36.145V24.4763C36.145 29.0146 36.1814 33.5529 36.1311 38.0912C36.1031 40.574 36.3994 43.0735 35.8907 45.5479H39.9068ZM33.3055 7.83958C33.5794 6.11083 32.6571 4.9993 30.9719 4.9993C23.2666 4.99651 15.5614 4.99651 7.85616 4.9993C6.12339 4.9993 5.22067 6.07732 5.48897 7.83958H33.3055ZM36.1758 20.2703V22.3984C36.3994 22.3984 36.5838 22.3984 36.7655 22.3984C37.8079 22.3984 38.8532 22.3873 39.8956 22.404C40.7984 22.418 41.2902 22.8928 41.3601 23.7976C41.3797 24.049 41.3713 24.3031 41.3713 24.5545C41.3713 31.3494 41.3713 38.147 41.3713 44.9419C41.3713 45.1346 41.3713 45.3301 41.3713 45.5172H43.5009V45.0704C43.5009 37.231 43.5009 29.3944 43.5009 21.555C43.5009 21.4545 43.5009 21.3539 43.4953 21.2534C43.445 20.7116 43.0566 20.2843 42.52 20.2787C40.4183 20.2619 38.3166 20.2731 36.1786 20.2731L36.1758 20.2703ZM23.8088 3.55263C23.8088 3.1393 23.8088 2.75668 23.8088 2.37407C23.8032 1.67587 23.5741 1.43569 22.8698 1.4329C21.7099 1.42731 20.5501 1.4329 19.3903 1.4329C18.2137 1.4329 17.037 1.4329 15.8604 1.4329C15.4552 1.4329 15.0807 1.55019 15.0304 1.99425C14.9745 2.50254 15.0164 3.022 15.0164 3.55542H23.8116L23.8088 3.55263Z" fill="#1C7F3C"/>
</svg>
