<svg width="20" height="17" viewBox="0 0 20 17" fill="none" xmlns="http://www.w3.org/2000/svg">
<path d="M0.959641 14.552C0.511443 14.8747 0.409708 15.4996 0.732411 15.9478C1.05511 16.396 1.68005 16.4978 2.12825 16.1751L0.959641 14.552ZM19.1976 3.5242C19.2864 2.97909 18.9164 2.46526 18.3713 2.37652L9.48822 0.930438C8.94311 0.841699 8.42928 1.21166 8.34054 1.75677C8.2518 2.30188 8.62176 2.81571 9.16687 2.90445L17.0629 4.18986L15.7775 12.0859C15.6888 12.631 16.0587 13.1449 16.6039 13.2336C17.149 13.3223 17.6628 12.9524 17.7515 12.4073L19.1976 3.5242ZM2.12825 16.1751L18.7949 4.17506L17.6263 2.55199L0.959641 14.552L2.12825 16.1751Z" fill="white"/>
</svg>
