<svg width="49" height="43" viewBox="0 0 49 43" fill="none" xmlns="http://www.w3.org/2000/svg">
<path d="M0.0040423 16.258C0.407877 15.2 1.17113 14.7355 2.30187 14.8203C2.87127 14.8648 3.44876 14.8203 4.01817 14.8284C4.88641 14.8365 5.54062 15.3009 5.81927 16.1247C6.00907 16.6941 6.1383 17.2878 6.34022 17.8572C6.41695 18.0672 6.59464 18.2933 6.78444 18.4064C7.51538 18.8264 8.27055 19.1979 9.0136 19.5937C9.52244 19.8643 9.67994 20.2317 9.47398 20.6315C9.26399 21.0475 8.85612 21.1283 8.32709 20.8617C7.94345 20.6679 7.56384 20.47 7.1802 20.2802C7.16001 20.2681 7.12366 20.2842 7.03886 20.2964C7.30539 21.2292 7.56384 22.154 7.83037 23.0788C9.04188 27.2706 10.2493 31.4624 11.4608 35.6502C11.788 36.7849 12.3129 37.1767 13.4921 37.1767C21.064 37.1767 28.64 37.1767 36.2119 37.1767C36.9105 37.1767 36.9711 37.1322 37.169 36.4498C38.6955 31.1636 40.226 25.8733 41.7525 20.5871C41.7808 20.4862 41.7969 20.3771 41.8414 20.1833C41.3972 20.4054 41.0175 20.5831 40.646 20.7769C38.8974 21.6855 37.1448 21.6896 35.3962 20.789C34.116 20.1308 32.8358 20.1267 31.5597 20.785C29.8071 21.6855 28.0585 21.6896 26.3058 20.785C25.0257 20.1267 23.7496 20.1308 22.4694 20.789C20.7369 21.6815 18.9924 21.6896 17.2599 20.7971C15.9636 20.1308 14.6754 20.1267 13.3791 20.7931C13.0681 20.9506 12.7491 21.104 12.4139 21.1969C12.0383 21.3019 11.7193 21.1686 11.5537 20.789C11.3962 20.4296 11.4932 20.0783 11.8203 19.9208C12.9348 19.3918 14.0333 18.8022 15.3336 18.8425C16.2221 18.8708 17.0661 19.0606 17.8495 19.4806C19.1862 20.1914 20.5189 20.1752 21.8636 19.4846C23.5517 18.6164 25.2559 18.6204 26.9399 19.4846C28.2685 20.1712 29.5809 20.1792 30.9095 19.4927C32.6299 18.6083 34.3543 18.6204 36.0706 19.5089C37.3467 20.1671 38.6268 20.1792 39.907 19.525C40.642 19.1495 41.3891 18.7941 42.1119 18.3943C42.2937 18.2933 42.4592 18.0793 42.5319 17.8814C42.7217 17.3443 42.8469 16.783 43.0206 16.2418C43.3154 15.309 43.9615 14.8325 44.9307 14.8284C45.6293 14.8284 46.332 14.8203 47.0307 14.8284C48.2624 14.8446 49.1548 15.9632 48.8196 17.1424C47.7252 21.0031 46.6026 24.8557 45.484 28.7123C45.3426 29.205 44.963 29.4271 44.5592 29.31C44.1392 29.1848 43.9615 28.793 44.1109 28.264C45.177 24.5609 46.2513 20.8577 47.3214 17.1545C47.5354 16.4115 47.4143 16.254 46.6268 16.2499C46.1341 16.2499 45.6374 16.2742 45.1488 16.2418C44.6844 16.2136 44.4663 16.3993 44.3411 16.8476C43.1579 20.995 41.9544 25.1383 40.7551 29.2857C40.0201 31.8299 39.2891 34.3781 38.5501 36.9223C38.2109 38.0974 37.5486 38.6103 36.333 38.6103C28.6642 38.6103 20.9954 38.6143 13.3266 38.6103C11.6708 38.6103 10.5765 37.7622 10.1161 36.1671C8.27055 29.7824 6.42503 23.3978 4.5795 17.0132C4.36547 16.2661 4.34931 16.254 3.56183 16.254C3.10146 16.254 2.63705 16.254 2.17668 16.254C1.49016 16.254 1.34478 16.4397 1.53458 17.0859C3.25896 23.0586 4.98737 29.0353 6.71578 35.0081C7.20846 36.7163 7.70518 38.4205 8.19786 40.1287C8.49266 41.1383 9.054 41.5623 10.108 41.5623C19.6708 41.5623 29.2336 41.5623 38.7964 41.5623C39.8181 41.5623 40.3956 41.1302 40.6783 40.1529C41.4739 37.4109 42.2614 34.6648 43.065 31.9268C43.1377 31.6845 43.2709 31.3736 43.4688 31.2726C43.6748 31.1676 44.0786 31.1716 44.2402 31.313C44.4219 31.4664 44.5471 31.8582 44.4865 32.0924C44.0907 33.6108 43.6425 35.1171 43.2104 36.6275C42.8429 37.9076 42.4673 39.1878 42.0998 40.4679C41.6112 42.1762 40.5289 43 38.7561 43C29.2094 43 19.6627 43 10.1161 43C8.35132 43 7.27712 42.1721 6.78444 40.4558C4.55931 32.7466 2.33013 25.0333 0.100959 17.3241C0.080767 17.2514 0.0363452 17.1828 0 17.1141C0 16.8274 0 16.5407 0 16.254L0.0040423 16.258Z" fill="#1C7F3C"/>
<path d="M20.0625 11.2262C19.8323 11.0445 19.5496 10.9273 19.485 10.7375C19.4043 10.5033 19.4204 10.152 19.5496 9.95006C20.0302 9.19488 20.3533 8.39528 20.1352 7.51896C19.9858 6.92128 19.6991 6.33169 19.3598 5.81075C18.2412 4.07829 18.2453 1.99854 19.4285 0.407429C19.6506 0.104553 19.9171 -0.0448638 20.2887 0.04398C20.7571 0.157054 20.9267 0.690108 20.6763 1.15856C20.4542 1.57451 20.1958 1.99046 20.0706 2.43872C19.8 3.38773 20.0585 4.26406 20.6198 5.05153C21.1327 5.7744 21.5082 6.54977 21.6173 7.44224C21.7748 8.69413 21.4194 9.80064 20.6844 10.7941C20.5592 10.9677 20.3169 11.0566 20.0665 11.2262H20.0625Z" fill="#1C7F3C"/>
<path d="M30.3645 8.11651C30.3645 8.99687 30.0374 9.90954 29.4518 10.7334C29.1691 11.1251 28.7653 11.226 28.422 11.012C28.0424 10.7697 27.9657 10.3618 28.2564 9.93377C29.1974 8.54862 29.0964 7.21596 28.1434 5.87119C26.8995 4.11047 26.9319 1.94188 28.1757 0.362884C28.4664 -0.00460642 28.8864 -0.0934536 29.2176 0.144809C29.5527 0.383072 29.6053 0.790944 29.3508 1.20286C29.3266 1.24324 29.2983 1.28362 29.2701 1.324C28.4705 2.55974 28.4826 3.85201 29.3347 5.06352C29.9566 5.94388 30.3604 6.88482 30.3604 8.11651H30.3645Z" fill="#1C7F3C"/>
<path d="M12.1797 0.641715C12.0585 0.908246 12.006 1.07787 11.9091 1.21921C10.9924 2.56802 11.0691 3.88451 11.9979 5.20102C13.2337 6.9577 13.2498 8.989 12.0666 10.673C11.7556 11.1132 11.3397 11.2384 10.9722 10.9961C10.6087 10.7578 10.5684 10.3297 10.8632 9.86532C11.7314 8.5044 11.7031 7.31308 10.7703 5.96427C9.51031 4.14297 9.4982 2.00264 10.7339 0.36711C10.9641 0.0601952 11.271 -0.0932538 11.5981 0.0602036C11.8364 0.173277 11.9979 0.447882 12.1797 0.637685V0.641715Z" fill="#1C7F3C"/>
<path d="M37.5365 11.2424C37.278 11.0485 36.9873 10.9435 36.9186 10.7537C36.8338 10.5236 36.8782 10.2086 36.959 9.96223C37.1528 9.35244 37.4961 8.77495 37.6011 8.15304C37.7465 7.29691 37.3265 6.5579 36.8459 5.85926C35.6506 4.13489 35.6546 2.07129 36.854 0.431716C36.9752 0.266144 37.1892 0.0561523 37.3588 0.0561523C37.6092 0.0561523 37.9726 0.161146 38.0817 0.342872C38.2028 0.548828 38.1544 0.912287 38.0736 1.17074C37.8878 1.76842 37.5486 2.32975 37.4396 2.9355C37.2821 3.81182 37.694 4.56295 38.1907 5.27774C39.382 6.99808 39.3739 9.06975 38.1786 10.7053C38.0332 10.9032 37.7909 11.0324 37.5365 11.2424Z" fill="#1C7F3C"/>
</svg>
