<svg width="25" height="43" viewBox="0 0 25 43" fill="none" xmlns="http://www.w3.org/2000/svg">
<path d="M16.3409 25.6424C15.9306 25.2629 15.7528 24.8663 15.7563 24.3159C15.7665 18.8147 15.7699 12.8725 15.7631 6.14734C15.7631 3.22411 14.0912 0.943641 11.4107 0.198301C11.2295 0.147017 11.0517 0.10257 10.8705 0.0547038L10.6688 0H9.1747C9.13367 0.0205139 9.08239 0.0444469 9.02084 0.0547038C5.76255 0.748759 3.96758 2.9711 3.96758 6.30804V9.00904C3.96758 14.1649 3.96758 19.3207 3.97442 24.4765C3.97442 24.9244 3.8274 25.2595 3.49234 25.5569C0.671671 28.0665 -0.449758 31.2017 0.162242 34.8737C0.593034 37.4619 2.13842 39.8141 4.39837 41.3287C6.63439 42.8263 9.36274 43.3494 11.8791 42.7681C15.8657 41.8484 18.3991 39.4312 19.4077 35.5848C20.4061 31.7761 19.377 28.4289 16.3477 25.6424H16.3409ZM17.9854 34.7814C17.2948 38.1183 15.1374 40.3304 11.7526 41.1852C11.1167 41.3458 10.4671 41.4245 9.81747 41.4245C8.15926 41.4245 6.50789 40.9082 5.09926 39.9167C3.11967 38.5286 1.8478 36.3781 1.61189 34.0155C1.29393 30.8598 2.43929 28.2819 5.01379 26.3467C5.40013 26.0561 5.55741 25.7416 5.55741 25.2629C5.55399 22.1448 5.55399 19.0301 5.55399 15.912C5.55399 12.64 5.55399 9.37145 5.55057 6.09948C5.55057 4.11988 6.41899 2.71468 8.13533 1.93173C9.44138 1.33341 10.9594 1.44623 12.1902 2.22918C13.4142 3.00871 14.1527 4.3216 14.1664 5.7439C14.1869 8.02437 14.1835 10.3424 14.1801 12.5853C14.1801 13.4093 14.1767 14.2298 14.1767 15.0538V15.5461L14.1835 18.0659C14.1835 20.4627 14.1835 22.8628 14.1767 25.2595C14.1767 25.7416 14.3271 26.0459 14.7169 26.3433C17.5546 28.5007 18.6863 31.4171 17.9889 34.778L17.9854 34.7814Z" fill="#1C7F3C"/>
<path d="M20.3104 6.68078C20.7309 6.68761 21.1514 6.6842 21.5754 6.68078H22.1498C22.3276 6.68078 22.5088 6.68078 22.6866 6.68419C23.1139 6.69103 23.514 6.69445 23.9174 6.6671C24.1875 6.65001 24.4405 6.57821 24.6149 6.47564C24.8576 6.33204 24.9704 5.99014 24.8713 5.67901C24.7482 5.28583 24.4747 5.09437 24.0302 5.09095C22.7891 5.08069 21.548 5.08411 20.3035 5.09095C19.7257 5.09095 19.3462 5.39866 19.336 5.87389C19.3325 6.07562 19.3975 6.24998 19.5308 6.38674C19.7052 6.56795 19.9821 6.67052 20.3069 6.67394L20.3104 6.68078Z" fill="#1C7F3C"/>
<path d="M20.2795 11.8367C20.7103 11.8435 21.1411 11.8401 21.5719 11.8367H22.16H22.7378C23.1583 11.8367 23.5788 11.8401 23.996 11.8332C24.5464 11.823 24.9054 11.5153 24.9088 11.0469C24.9088 10.8383 24.8405 10.6537 24.7037 10.5135C24.5362 10.3426 24.2797 10.2502 23.9789 10.2468C22.7515 10.24 21.524 10.24 20.2966 10.2468C19.7291 10.2468 19.3461 10.5682 19.3393 11.0366C19.3359 11.505 19.712 11.8264 20.2829 11.8332L20.2795 11.8367Z" fill="#1C7F3C"/>
<path d="M20.2523 16.9925C21.5822 17.0027 22.8131 17.0027 24.0166 16.9925C24.5533 16.9856 24.9089 16.6677 24.9055 16.1993C24.9055 15.7377 24.5362 15.4197 23.996 15.4095C23.5755 15.4026 23.1516 15.4026 22.731 15.4061H22.16H21.5857C21.3874 15.4061 21.1891 15.4061 20.9908 15.4061C20.7548 15.4061 20.5155 15.4061 20.2796 15.4095C19.7223 15.4163 19.3325 15.7445 19.336 16.2061C19.3394 16.6642 19.7155 16.989 20.2488 16.9925H20.2523Z" fill="#1C7F3C"/>
<path d="M23.9721 20.5654C23.3909 20.562 22.796 20.5586 22.1771 20.5586C21.5583 20.5586 20.9463 20.5586 20.2899 20.5654C19.7223 20.5689 19.3394 20.8868 19.336 21.3552C19.3325 21.8168 19.7189 22.1416 20.2796 22.1484C20.7036 22.1518 21.1241 22.1484 21.5481 22.1484H22.119H22.6866C23.1105 22.1484 23.5345 22.1484 23.9584 22.1484C24.5328 22.1416 24.9021 21.8339 24.9055 21.3621C24.9055 20.8902 24.5328 20.5689 23.9721 20.5654Z" fill="#1C7F3C"/>
<path d="M11.0073 28.4835L10.6415 28.3741V19.3548C10.6415 16.5957 10.6415 13.8365 10.6415 11.074C10.6415 10.6227 10.3679 10.2945 9.94399 10.2363C9.91664 10.2329 9.88587 10.2295 9.85852 10.2295C9.54055 10.2295 9.21575 10.4688 9.12686 10.7868C9.08925 10.9201 9.08925 11.0979 9.08925 11.286V11.327C9.08925 15.8366 9.08925 20.3463 9.08925 24.8594V28.3672L8.72 28.4732C5.88565 29.3006 4.81209 31.8854 5.21553 34.0154C5.59504 36.0224 7.51651 37.725 9.49611 37.8139C11.8518 37.9199 13.8314 36.5284 14.4263 34.3573C14.7203 33.2803 14.6451 32.2239 14.2006 31.2187C13.5955 29.8408 12.5493 28.945 11.0073 28.4835ZM12.098 35.3215C11.4928 35.93 10.6996 36.2651 9.86536 36.2651H9.85852C8.14219 36.2651 6.69254 34.8154 6.68912 33.0991C6.68912 32.2649 7.01734 31.4717 7.6225 30.8665C8.22766 30.2614 9.01745 29.9263 9.8551 29.9263H9.86194C11.5749 29.9263 13.0279 31.3725 13.0313 33.0923C13.0313 33.9265 12.7031 34.7197 12.098 35.3249V35.3215Z" fill="#1C7F3C"/>
</svg>
