<svg width="43" height="43" viewBox="0 0 43 43" fill="none" xmlns="http://www.w3.org/2000/svg">
<path d="M0.427647 42.9915C0.0804517 42.7036 0 42.3352 0 41.8864C0.0127023 36.3736 0.0127023 30.8609 0 25.3523C0 24.8527 0.182067 24.5521 0.597007 24.3065C2.8326 22.9812 5.05551 21.639 7.28687 20.3053C8.08288 19.8268 8.61213 20.1275 8.61636 21.0717C8.6206 22.3419 8.61636 23.6163 8.61636 24.9924C8.81536 24.84 8.9551 24.7384 9.08635 24.6325C10.8223 23.2437 12.5583 21.855 14.2943 20.4662C14.3578 20.4154 14.4298 20.3646 14.4933 20.3095C14.7431 20.0893 15.0268 19.9962 15.3443 20.1402C15.6746 20.2926 15.7804 20.589 15.7804 20.9362C15.7804 22.1259 15.7804 23.3157 15.7804 24.5055C15.7804 24.641 15.7804 24.7723 15.7804 25.0051C16.5129 24.4208 17.1777 23.8916 17.8382 23.3665C19.0957 22.3631 20.349 21.3596 21.6023 20.3519C21.8818 20.1275 22.1654 19.9835 22.5211 20.1529C22.8768 20.3265 22.9318 20.6398 22.9276 20.9997C22.9191 22.2995 22.9276 23.5994 22.9276 24.9797C23.0673 24.8823 23.1689 24.8273 23.2578 24.7553C25.0615 23.3157 26.861 21.8719 28.6648 20.4323C28.7833 20.3349 28.9061 20.2375 29.0374 20.1656C29.4608 19.9412 29.9434 20.1529 30.0535 20.6186C30.0959 20.8049 30.1043 21.0081 30.1043 21.1987C30.1043 22.4689 30.1043 23.7391 30.1043 25.0432H31.5524C31.6117 24.2726 31.6794 23.502 31.7302 22.7272C31.9504 19.5347 32.1748 16.338 32.3907 13.1455C32.5686 10.5246 32.7464 7.89942 32.9158 5.27852C32.9624 4.55449 33.2079 4.30469 33.932 4.30469C35.2064 4.30469 36.4766 4.30469 37.7511 4.30469C38.4158 4.30469 38.6572 4.55026 38.6995 5.20231C38.9112 8.25509 39.1314 11.3121 39.3431 14.3649C39.4955 16.5962 39.6395 18.8276 39.7919 21.059C39.8766 22.2995 39.9655 23.5401 40.0417 24.785C40.0544 25.0305 40.1688 25.0856 40.3847 25.0813C40.9013 25.0729 41.4221 25.0898 41.9386 25.0771C42.3663 25.0644 42.7346 25.1575 42.9844 25.5386V43H0.431885L0.427647 42.9915ZM22.9233 41.5519C22.9233 41.3614 22.9233 41.209 22.9233 41.0608C22.9233 38.2366 22.9233 35.4083 22.9233 32.5841C22.9233 31.7458 23.152 31.5171 23.9903 31.5171C25.6416 31.5171 27.2929 31.5171 28.94 31.5171C29.8926 31.5171 30.1001 31.7246 30.1001 32.6731C30.1001 35.4548 30.1001 38.2409 30.1001 41.0227V41.5308H41.5237V26.5336C41.3374 26.5336 41.1722 26.5336 41.0071 26.5336C37.37 26.5336 33.733 26.5336 30.0959 26.5336C28.7156 26.5336 28.6309 26.4489 28.6309 25.0559V22.3207C28.4234 22.4816 28.2795 22.5832 28.1397 22.6933C26.3614 24.116 24.5789 25.5386 22.8005 26.9655C22.5169 27.1941 22.2289 27.3169 21.8775 27.1476C21.5388 26.9824 21.4753 26.6818 21.4795 26.3389C21.488 25.2634 21.4795 24.1837 21.4795 23.1082C21.4795 22.8627 21.4795 22.6213 21.4795 22.3122C21.3144 22.435 21.2128 22.5028 21.1154 22.579C19.3032 24.027 17.4868 25.4751 15.6788 26.9316C15.3867 27.1645 15.0903 27.3296 14.7219 27.1603C14.3409 26.9909 14.3027 26.6352 14.3027 26.2711C14.3027 25.1237 14.3027 23.9762 14.3027 22.8288C14.3027 22.6806 14.3027 22.5324 14.3027 22.3122C14.1207 22.452 14.0064 22.5282 13.9005 22.6129C12.0883 24.0609 10.2761 25.5132 8.46817 26.9655C8.19719 27.1814 7.90503 27.3085 7.57901 27.1645C7.23181 27.0121 7.13443 26.6903 7.13443 26.3304C7.13443 25.8689 7.13443 25.4074 7.13443 24.9458C7.13443 24.0143 7.13443 23.0786 7.13443 22.0921C6.96084 22.1852 6.84229 22.2487 6.72797 22.3165C5.07244 23.3073 3.42538 24.3023 1.76562 25.2803C1.50311 25.437 1.41418 25.6064 1.41418 25.907C1.42265 30.9709 1.42266 36.0349 1.42266 41.0989C1.42266 41.2471 1.42266 41.391 1.42266 41.5477H22.9064L22.9233 41.5519ZM38.6233 25.0517C38.1787 18.6117 37.7342 12.1928 37.2896 5.77815H34.3427C33.8981 12.214 33.4577 18.6201 33.0132 25.0517H38.6233ZM24.3926 32.9991V41.535H28.6139V32.9991H24.3926Z" fill="#1C7F3C"/>
<path d="M26.6662 1.48055C26.9795 1.20533 27.2463 0.980925 27.5003 0.743816C28.525 -0.221555 29.4099 -0.170744 30.4473 0.739584C30.659 0.92165 30.8453 1.14182 31.0739 1.29425C31.1755 1.36199 31.3999 1.36623 31.4973 1.29425C31.7598 1.11218 31.9885 0.883542 32.2171 0.659136C33.1698 -0.268129 34.4569 -0.170744 35.2656 0.892012C35.4731 1.16299 35.6425 1.4382 36.0532 1.51018C36.4215 1.5737 36.574 1.91666 36.5062 2.29349C36.4385 2.65339 36.2014 2.85239 35.833 2.86086C35.2656 2.87779 34.8084 2.63645 34.44 2.21304C34.4146 2.18341 34.3934 2.1453 34.368 2.11142C33.7371 1.2519 33.699 1.24767 32.9284 1.9971C32.7972 2.12412 32.6659 2.25115 32.522 2.357C31.5269 3.07256 30.6759 2.98788 29.791 2.13683C28.8849 1.26884 29.0627 1.26461 28.1439 2.1453C27.1955 3.05986 26.1497 3.05139 25.1885 2.1453C24.8625 1.84044 24.4603 1.60757 24.0707 1.37893C23.7447 1.18839 23.5753 0.866601 23.6812 0.50247C23.7828 0.159509 24.1512 -0.098766 24.4984 0.0367247C24.9684 0.21879 25.4172 0.472832 25.8448 0.748048C26.1327 0.934347 26.3698 1.2011 26.6705 1.47208L26.6662 1.48055Z" fill="#1C7F3C"/>
<path d="M10.0136 35.7681C10.0136 35.1542 10.0136 34.5403 10.0136 33.9263C10.0178 33.2319 10.2846 32.9525 10.9705 32.9482C11.7792 32.9398 12.5921 32.9398 13.4008 32.9482C14.0698 32.9567 14.3408 33.2319 14.3451 33.8967C14.3493 35.1838 14.3493 36.4668 14.3451 37.7539C14.3451 38.4314 14.0741 38.7024 13.4135 38.7066C12.5879 38.7108 11.7665 38.7108 10.9408 38.7066C10.3015 38.7066 10.0263 38.4314 10.0178 37.7878C10.0094 37.1188 10.0178 36.4456 10.0178 35.7766L10.0136 35.7681ZM12.8547 34.4471H11.5167V37.2289H12.8547V34.4471Z" fill="#1C7F3C"/>
<path d="M4.29347 35.8062C4.29347 35.1499 4.28923 34.4936 4.29347 33.8373C4.2977 33.2573 4.55174 32.9651 5.11911 32.9524C5.99979 32.9312 6.88049 32.9312 7.75694 32.9524C8.32855 32.9651 8.59953 33.2403 8.608 33.8162C8.6207 35.1584 8.62494 36.4963 8.608 37.8385C8.59953 38.4398 8.31585 38.6981 7.71884 38.7023C6.86779 38.7065 6.01673 38.7108 5.16145 38.7023C4.56868 38.6981 4.2977 38.4186 4.29347 37.8174C4.285 37.1484 4.29347 36.4752 4.29347 35.8062ZM5.74152 34.4259C5.74152 35.3235 5.73729 36.1745 5.74999 37.0256C5.74999 37.1018 5.86431 37.2373 5.92782 37.2415C6.32582 37.2627 6.72806 37.25 7.12183 37.25V34.4259H5.74152Z" fill="#1C7F3C"/>
<path d="M20.0611 35.8526C20.0611 36.5216 20.0653 37.1948 20.0611 37.8638C20.0569 38.41 19.7816 38.6937 19.2354 38.6979C18.3547 38.7106 17.4741 38.7064 16.5976 38.6979C16.0472 38.6937 15.772 38.4269 15.7677 37.8722C15.755 36.5046 15.755 35.137 15.7677 33.7652C15.772 33.2317 16.0302 32.9649 16.568 32.948C17.4614 32.9268 18.3548 32.9268 19.2482 32.948C19.8155 32.9607 20.0611 33.2529 20.0611 33.8372C20.0611 34.5062 20.0611 35.1794 20.0611 35.8484V35.8526ZM17.237 34.4299V37.2244H18.6046V34.4299H17.237Z" fill="#1C7F3C"/>
</svg>
