<svg width="43" height="43" viewBox="0 0 43 43" fill="none" xmlns="http://www.w3.org/2000/svg">
<path d="M1.53394 42.4025C1.4779 42.371 1.42537 42.3289 1.36583 42.3079C0.196036 41.8491 -0.294296 40.7564 0.178525 39.5901C0.987572 37.5867 1.81763 35.5939 2.64069 33.594C2.84033 33.1107 3.03296 32.6239 3.2431 32.1476C3.60034 31.342 4.22376 30.9042 5.11336 30.8902C5.88739 30.8797 6.65791 30.8797 7.43193 30.8902C7.90475 30.8937 8.16393 31.1354 8.16042 31.5451C8.16042 31.9514 7.89074 32.2071 7.43543 32.2141C6.71745 32.2211 5.99946 32.2316 5.28498 32.2141C4.83317 32.2036 4.581 32.3892 4.40938 32.806C3.43572 35.2051 2.44456 37.5937 1.46389 39.9859C1.1767 40.6863 1.44288 41.0856 2.20639 41.0856C6.44076 41.0856 10.6751 41.0856 14.913 41.0856C23.2171 41.0856 31.5212 41.0856 39.8289 41.0856C39.9514 41.0856 40.0775 41.0856 40.2001 41.0856C40.8516 41.0646 41.1282 40.6653 40.8831 40.0594C40.2631 38.5289 39.6327 37.0018 39.0058 35.4748C38.6346 34.5712 38.2563 33.6711 37.8955 32.764C37.7414 32.3787 37.4893 32.2071 37.076 32.2141C36.372 32.2281 35.668 32.2211 34.9641 32.2141C34.4352 32.2141 34.148 31.9794 34.1375 31.5592C34.127 31.1284 34.4037 30.8902 34.9361 30.8867C35.654 30.8832 36.372 30.8867 37.0865 30.8867C38.0847 30.8832 38.7501 31.3525 39.1284 32.2701C40.004 34.4101 40.8866 36.5465 41.7657 38.6865C41.9688 39.1803 42.1579 39.6777 42.3541 40.1715V40.6688C42.1299 41.5199 41.6046 42.1013 40.7815 42.4095H1.53394V42.4025Z" fill="#1C7F3C"/>
<path d="M11.2636 38.3258H15.1652C15.1652 38.1612 15.1652 38.0001 15.1652 37.839C15.1652 35.5484 15.1652 33.2579 15.1652 30.9673C15.1652 29.4788 15.9812 28.6593 17.4592 28.6593C19.9424 28.6593 22.4256 28.6593 24.9088 28.6593C26.2887 28.6593 27.1328 29.4928 27.1363 30.8658C27.1433 33.1843 27.1363 35.5029 27.1363 37.8215C27.1363 37.9826 27.1363 38.1437 27.1363 38.3258H31.0554V37.7759C31.0554 33.0407 31.0554 28.309 31.0554 23.5738C31.0554 23.4092 31.0555 23.2411 31.0695 23.0765C31.108 22.7052 31.3461 22.4951 31.6964 22.4776C32.0536 22.4601 32.2918 22.6737 32.3723 23.024C32.4039 23.157 32.3969 23.2971 32.3969 23.4337C32.3969 28.5262 32.3969 33.6186 32.3969 38.7111C32.3969 39.4571 32.1867 39.6602 31.4372 39.6602C24.5796 39.6602 17.7219 39.6602 10.8643 39.6602C10.1148 39.6602 9.90463 39.4536 9.90463 38.7076C9.90463 29.2267 9.90463 19.7457 9.90463 10.2648C9.90463 8.89189 10.7312 8.00579 12.0936 7.99878C15.5014 7.98127 18.9092 7.98828 22.317 7.99528C22.8319 7.99528 23.1331 8.26496 23.1261 8.67824C23.1191 9.08802 22.8039 9.34369 22.296 9.34369C18.9723 9.34369 15.645 9.34369 12.3213 9.34369C11.4317 9.34369 11.2565 9.51881 11.2565 10.4049C11.2565 19.5426 11.2565 28.6768 11.2565 37.8145V38.3188L11.2636 38.3258ZM20.4748 29.9797C19.4381 29.9797 18.4224 29.9727 17.4032 29.9797C16.7693 29.9832 16.5066 30.2598 16.5066 30.8903C16.5066 33.2369 16.5066 35.5835 16.5066 37.9265C16.5066 38.0596 16.5206 38.1892 16.5276 38.3118H20.4748V29.9762V29.9797ZM25.7599 38.3293C25.7774 38.2698 25.7949 38.2453 25.7949 38.2172C25.7949 35.706 25.8019 33.1948 25.7949 30.6836C25.7949 30.2949 25.5357 30.0077 25.1119 29.9972C24.0262 29.9692 22.9405 29.9867 21.8372 29.9867V38.3293H25.7564H25.7599Z" fill="#1C7F3C"/>
<path d="M38.9007 7.01104C38.9042 8.45752 38.575 9.68335 37.9096 10.8111C36.0813 13.9107 34.2496 17.0068 32.4178 20.1029C31.9835 20.8384 31.4582 20.8349 31.0204 20.0924C29.1922 16.9963 27.3534 13.9037 25.5392 10.7971C22.9614 6.38411 25.6618 0.787326 30.7017 0.0728421C34.6769 -0.487537 38.2948 2.24431 38.8482 6.23701C38.8902 6.53822 38.8867 6.84292 38.8972 7.01104H38.9007ZM31.7209 18.6389C31.7874 18.5443 31.8224 18.5023 31.8505 18.4568C33.5106 15.6479 35.1742 12.839 36.8238 10.0266C37.4577 8.94435 37.6819 7.75704 37.5383 6.52421C37.1565 3.23198 34.2461 0.986961 30.9293 1.39324C27.6511 1.79601 25.3325 5.05672 25.9945 8.29641C26.1976 9.29108 26.695 10.1387 27.2028 10.9932C28.7053 13.5289 30.2008 16.0647 31.7244 18.6424L31.7209 18.6389Z" fill="#1C7F3C"/>
<path d="M16.7903 11.7568C17.4662 11.7568 18.1387 11.7568 18.8146 11.7568C19.389 11.7568 19.6167 11.974 19.6202 12.5554C19.6272 13.8092 19.6307 15.0631 19.6202 16.3169C19.6167 16.8668 19.3785 17.1085 18.8391 17.112C17.4767 17.1225 16.1108 17.1225 14.7484 17.112C14.209 17.1085 13.9673 16.8528 13.9638 16.3204C13.9603 15.0526 13.9568 13.7847 13.9638 12.5169C13.9638 11.9985 14.2055 11.7638 14.7239 11.7603C15.4138 11.7533 16.1003 11.7603 16.7903 11.7603V11.7568ZM15.3158 15.732H18.2542V13.1088H15.3158V15.732Z" fill="#1C7F3C"/>
<path d="M25.5356 19.7702C26.2116 19.7702 26.884 19.7632 27.56 19.7702C28.1309 19.7772 28.355 20.0084 28.355 20.5828C28.355 21.8226 28.355 23.0624 28.355 24.3023C28.355 24.8732 28.1309 25.1113 27.56 25.1148C26.1976 25.1218 24.8317 25.1218 23.4692 25.1148C22.9264 25.1113 22.6917 24.8732 22.6882 24.3233C22.6777 23.0694 22.6777 21.8156 22.6882 20.5617C22.6917 19.9944 22.9299 19.7772 23.5113 19.7702C24.1872 19.7632 24.8597 19.7702 25.5356 19.7702ZM24.0681 21.1221V23.7489H27.0031V21.1221H24.0681Z" fill="#1C7F3C"/>
<path d="M16.7693 25.1149C16.0933 25.1149 15.4174 25.1219 14.7414 25.1149C14.1915 25.1079 13.9639 24.8733 13.9639 24.3269C13.9604 23.0695 13.9604 21.8157 13.9639 20.5583C13.9639 20.012 14.195 19.7738 14.7449 19.7738C16.1108 19.7668 17.4768 19.7668 18.8427 19.7738C19.3891 19.7738 19.6167 20.005 19.6202 20.5618C19.6307 21.8192 19.6307 23.073 19.6202 24.3304C19.6167 24.9013 19.3891 25.1114 18.8007 25.1184C18.1247 25.1254 17.4487 25.1184 16.7728 25.1184L16.7693 25.1149ZM18.2578 21.1292H15.3158V23.7455H18.2578V21.1292Z" fill="#1C7F3C"/>
<path d="M24.0366 15.7633C24.5129 15.7633 24.9367 15.7598 25.3605 15.7633C25.8684 15.7703 26.1871 16.0259 26.1941 16.4287C26.2011 16.828 25.8824 17.1047 25.378 17.1117C24.7441 17.1187 24.1102 17.1222 23.4762 17.1117C22.9404 17.1012 22.6917 16.856 22.6882 16.3166C22.6777 15.0628 22.6777 13.8054 22.6882 12.5516C22.6917 12.0297 22.9509 11.7495 23.3817 11.7601C23.802 11.7671 24.0366 12.0578 24.0366 12.5901C24.0401 13.6233 24.0366 14.6565 24.0366 15.7633Z" fill="#1C7F3C"/>
<path d="M35.5595 7.18269C35.556 9.29112 33.8188 11.0143 31.7069 11.0038C29.616 10.9933 27.9068 9.28061 27.8963 7.17919C27.8858 5.08127 29.6335 3.32658 31.7314 3.33008C33.8328 3.33008 35.563 5.07426 35.5595 7.18269ZM29.2482 7.16868C29.2482 8.56262 30.3585 9.67638 31.7384 9.66937C33.0868 9.65887 34.2146 8.53811 34.2321 7.1897C34.2496 5.82727 33.1148 4.689 31.7384 4.682C30.3375 4.6785 29.2482 5.76423 29.2482 7.16868Z" fill="#1C7F3C"/>
</svg>
