<svg width="44" height="24" viewBox="0 0 44 24" fill="none" xmlns="http://www.w3.org/2000/svg">
<path d="M43.383 22.2562C41.7466 18.9761 40.1103 15.6922 38.4776 12.4084C38.2921 12.0336 38.0286 11.874 37.6056 11.874H36.9748C35.9581 11.874 34.9414 11.8703 33.9248 11.874C33.3645 11.874 32.9897 12.1932 32.9934 12.657C32.9934 13.1208 33.3719 13.4362 33.9285 13.4399H34.0509C34.8561 13.4473 35.6873 13.4548 36.4999 13.4362C37.0194 13.4214 37.3719 13.6403 37.6093 14.1152C38.4925 15.9037 39.3867 17.6922 40.281 19.477L41.1641 21.2395C41.2086 21.3286 41.2531 21.4214 41.2977 21.5178L41.7281 22.4381H2.13625L2.44423 21.618C2.4665 21.5512 2.48876 21.4956 2.51473 21.4473L3.0305 20.4158C4.09544 18.2785 5.16408 16.1375 6.24386 14.0039C6.41826 13.6588 6.84497 13.4622 7.15666 13.4548C7.81343 13.4399 8.47762 13.4399 9.11955 13.4399H9.88765C10.3181 13.4399 10.4999 13.2655 10.6001 13.1356C10.8004 12.8722 10.8338 12.631 10.704 12.3527C10.5518 12.0262 10.3032 11.8815 9.89878 11.8778C9.39414 11.8778 8.88579 11.8778 8.38115 11.8778C7.68728 11.8778 6.9934 11.8778 6.29952 11.8703C5.75407 11.8629 5.47206 12.0447 5.242 12.5197C4.58894 13.8629 3.9062 15.2173 3.24943 16.5271L1.77633 19.4659C1.21603 20.5828 0.659446 21.6959 0.10657 22.8165C-0.0195896 23.0763 -0.0344321 23.3546 0.0657534 23.5772C0.128833 23.7108 0.258703 23.8889 0.540707 23.9594C0.666866 23.9928 0.837552 23.9891 1.01566 23.9891H1.14182H11.101C21.6131 23.9891 32.1214 23.9891 42.6335 24.0002H42.6372C43.3459 24.0002 43.6168 23.7998 43.7949 23.4548V23.0614L43.3941 22.2562H43.383Z" fill="#1C7F3C"/>
<path d="M15.2829 14.3786C15.4499 14.6569 15.6874 14.7793 16.0065 14.7459C16.3367 14.7125 16.5408 14.553 16.6484 14.2487C16.7374 13.9927 16.6966 13.7441 16.5074 13.4138C15.7541 12.0966 15.5315 10.9018 15.8284 9.76633C16.0139 9.06132 16.3144 8.32663 16.7523 7.51401C18.0473 5.11698 18.0065 2.80158 16.6336 0.437944C16.4777 0.167072 16.2885 0.0372025 16.0213 0.014939C15.9879 0.014939 15.9508 0.0112305 15.9211 0.0112305C15.6465 0.0112305 15.4499 0.118836 15.3015 0.352603C15.1233 0.630896 15.1159 0.883211 15.2866 1.18377C15.6057 1.74035 16.0361 2.60121 16.1289 3.62162C16.2291 4.74221 15.9545 5.83312 15.294 6.95743C14.5371 8.23758 14.1772 9.44351 14.1883 10.6457V10.6606C14.166 11.8999 14.5222 13.117 15.2829 14.386V14.3786Z" fill="#1C7F3C"/>
<path d="M21.7021 7.26921C20.4219 9.67367 20.4776 11.9891 21.8653 14.3453C22.036 14.6384 22.3588 14.798 22.6483 14.7423C22.8746 14.6978 23.2642 14.5531 23.2865 14.1041C23.2976 13.9149 23.2234 13.6477 23.0972 13.4102C22.6186 12.5197 22.1102 11.3212 22.4108 9.96309C22.5666 9.25437 22.8561 8.4937 23.3013 7.64398C23.9804 6.33044 24.3032 5.19129 24.3143 4.05585C24.2995 2.78313 23.9358 1.5809 23.2049 0.378672C23.0601 0.137485 22.819 0.00390625 22.5518 0.00390625C22.4924 0.00390625 22.4293 0.0113265 22.37 0.0261688C22.0954 0.0892486 21.806 0.334147 21.7985 0.675519C21.7985 0.857338 21.869 1.10966 21.9989 1.35085C22.485 2.25994 23.0008 3.48071 22.6742 4.84992C22.4961 5.59203 22.1807 6.3861 21.7058 7.27664L21.7021 7.26921Z" fill="#1C7F3C"/>
<path d="M28.3032 7.28385C27.0305 9.66604 27.0787 11.9703 28.4553 14.3228C28.6409 14.6382 28.9563 14.8015 29.2605 14.7384C29.5388 14.679 29.7466 14.5269 29.8468 14.3043C29.9507 14.0779 29.9284 13.8108 29.7874 13.551C29.4164 12.8757 29.0268 12.0519 28.9525 11.0686C28.8672 9.97773 29.1381 8.91651 29.78 7.8256C30.5592 6.50464 30.9117 5.32096 30.8969 4.09647V4.08163C30.9154 2.83488 30.5555 1.61781 29.7949 0.359921C29.6538 0.129865 29.4164 0 29.1603 0C29.0787 0 28.9971 0.0111283 28.9154 0.0371024C28.5481 0.155841 28.3551 0.448974 28.3997 0.823742C28.4219 1.0204 28.5333 1.24304 28.6149 1.39517C29.075 2.24861 29.6427 3.55844 29.2383 5.04267C29.0564 5.71428 28.767 6.40445 28.2995 7.28385H28.3032Z" fill="#1C7F3C"/>
</svg>
