<svg width="28" height="42" viewBox="0 0 28 42" fill="none" xmlns="http://www.w3.org/2000/svg">
<g clip-path="url(#clip0_118_590)">
<path d="M13.9963 42.0004C7.09632 41.9671 1.19632 36.9037 0.140762 30.1403C-0.24072 27.7084 0.196317 25.3948 0.907428 23.0996C2.40743 18.2765 4.54817 13.7306 6.94447 9.3029C8.26298 6.87101 9.65928 4.47978 11.3667 2.29551C11.8852 1.63395 12.4704 1.01304 13.0889 0.447571C13.7593 -0.165945 14.2037 -0.136378 14.9037 0.440179C15.9852 1.33089 16.8 2.45443 17.5778 3.60016C20.4297 7.78759 22.7371 12.2744 24.7556 16.909C25.9445 19.644 27.0259 22.4159 27.663 25.343C28.6111 29.7005 27.5037 33.5664 24.7148 36.9592C22.4297 39.7385 19.4259 41.3314 15.863 41.8488C15.2445 41.9375 14.6148 41.9523 13.9889 42.0004H13.9963ZM14.0111 40.6033C14.6185 40.5405 15.2334 40.5035 15.8371 40.4148C21.9074 39.5241 26.4334 34.4349 26.6 28.3182C26.6408 26.7881 26.3111 25.3098 25.8482 23.8647C23.5297 16.6097 20.0445 9.92012 15.8556 3.58168C15.4259 2.9312 14.8741 2.35834 14.3815 1.74483C14.1148 1.4122 13.863 1.44176 13.6 1.75591C13.3222 2.09224 13.0074 2.399 12.7445 2.74641C10.8074 5.31135 9.24076 8.10544 7.73335 10.9328C5.60372 14.928 3.66669 19.012 2.29632 23.3399C1.62595 25.4613 1.19261 27.5975 1.52965 29.8594C2.44076 35.9539 7.78891 40.5812 14.0111 40.6033Z" fill="#1C7F3C"/>
<path d="M10.4852 30.2543C10.4518 31.5294 9.98518 32.8155 9.03333 33.9169C8.68148 34.3271 8.25926 34.3937 7.92963 34.1128C7.61111 33.8393 7.61851 33.4512 7.92963 33.0299C8.96666 31.6291 9.47037 30.1175 8.73703 28.4211C8.52222 27.9222 8.18148 27.4676 7.83333 27.0426C7.15555 26.2073 6.55555 25.3498 6.34444 24.2706C6.07777 22.9032 6.8 21.1735 7.97777 20.4195C8.3 20.2126 8.69259 20.2606 8.92963 20.5341C9.17777 20.8224 9.15185 21.2289 8.85926 21.5172C8.78518 21.5874 8.7 21.6429 8.62222 21.7094C7.73703 22.4744 7.44814 23.5684 7.95185 24.6218C8.21851 25.1761 8.59259 25.6973 8.98889 26.1703C9.93333 27.2865 10.4852 28.6614 10.4852 30.2543Z" fill="#1C7F3C"/>
<path d="M16.0963 30.0847C16.0556 31.5372 15.5889 32.8233 14.637 33.9247C14.2963 34.3165 13.8963 34.3904 13.5667 34.1391C13.2222 33.8693 13.2148 33.4627 13.5444 33.0266C15.0111 31.09 15.1741 28.8798 13.3889 26.9654C13.2815 26.8471 13.1815 26.7214 13.0815 26.5958C12.3556 25.6533 11.8148 24.6296 11.9037 23.3952C11.9926 22.1459 12.5963 21.1628 13.5926 20.42C13.8963 20.1945 14.3074 20.2647 14.537 20.5419C14.7667 20.8191 14.7519 21.2183 14.4889 21.4918C14.4 21.5842 14.2852 21.6581 14.1889 21.7431C13.3445 22.4934 13.0593 23.5726 13.5407 24.5889C13.8111 25.1581 14.1926 25.6903 14.6 26.1745C15.5593 27.3128 16.0593 28.6063 16.0926 30.081L16.0963 30.0847Z" fill="#1C7F3C"/>
<path d="M19.5963 34.4013C19.3519 34.198 19.0593 34.0724 19 33.8765C18.9296 33.6399 18.9741 33.2851 19.1148 33.0856C19.6444 32.3538 20.0556 31.585 20.2185 30.6943C20.4741 29.3121 20.0148 28.1442 19.1222 27.1167C18.3889 26.2703 17.7667 25.3759 17.5481 24.245C17.2852 22.8886 18.037 21.122 19.2074 20.405C19.5296 20.2054 19.9259 20.2682 20.1519 20.5491C20.3778 20.83 20.3519 21.2292 20.0852 21.499C20.0037 21.5803 19.9037 21.6468 19.8148 21.7207C18.9481 22.4747 18.6593 23.565 19.1519 24.5998C19.4222 25.169 19.8 25.7049 20.2148 26.1853C22.1407 28.4066 22.1889 31.6405 20.2852 33.8617C20.1185 34.0576 19.8704 34.1869 19.5963 34.4013Z" fill="#1C7F3C"/>
</g>
<defs>
<clipPath id="clip0_118_590">
<rect width="28" height="42" fill="white"/>
</clipPath>
</defs>
</svg>
