<svg width="148" height="48" viewBox="0 0 148 48" fill="none" xmlns="http://www.w3.org/2000/svg">
<path d="M62.5184 31.884L68.8168 27.093C68.2396 25.8826 67.5504 24.986 66.7323 24.4089C65.6788 23.6916 64.5301 23.333 63.2861 23.333C61.5434 23.333 60.0865 23.9214 58.9154 25.1037C57.7443 26.2861 57.1559 27.7542 57.1559 29.5081C57.1559 31.234 57.7387 32.6685 58.9042 33.8172C60.0697 34.9659 61.5042 35.5431 63.2133 35.5431C64.6366 35.5431 65.8974 35.1284 66.9957 34.2991C67.5392 33.8676 68.0491 33.2624 68.531 32.4779L66.2784 31.1835C65.4155 32.3491 64.3844 32.9318 63.1909 32.9318C62.7258 32.9318 62.2999 32.8422 61.9077 32.6685C61.5154 32.4948 61.1456 32.237 60.7926 31.9008C60.1033 31.2003 59.7615 30.399 59.7615 29.5081C59.7615 28.5667 60.1314 27.7262 60.8654 26.9921C61.5995 26.258 62.4456 25.8882 63.4038 25.8882C64.2667 25.8882 65.0008 26.2412 65.606 26.9417L61.224 30.2702L62.5184 31.884Z" fill="black"/>
<path d="M106.814 23.2432C105.088 23.2432 103.615 23.8483 102.382 25.0643C101.155 26.2803 100.538 27.7596 100.538 29.5191C100.538 31.2282 101.127 32.6627 102.298 33.8282C103.469 34.9937 104.92 35.5765 106.646 35.5765C107.223 35.5765 107.985 35.4252 108.944 35.1226V32.2984C108.254 32.6683 107.61 32.8476 107.005 32.8476C105.985 32.8476 105.128 32.5114 104.433 31.8277C103.738 31.1497 103.391 30.3316 103.391 29.3734C103.391 28.8803 103.469 28.4376 103.631 28.0566C103.788 27.6755 104.029 27.3113 104.349 26.9807C105.004 26.3251 105.794 26.0001 106.719 26.0001C107.711 26.0001 108.512 26.3699 109.123 27.104C109.739 27.838 110.047 28.7738 110.047 29.9057V35.3636H112.849V29.8105C112.849 27.8605 112.283 26.2803 111.151 25.0699C110.014 23.8483 108.574 23.2432 106.814 23.2432Z" fill="black"/>
<path d="M69.6965 25.9946H73.5517V35.3581H76.3311V25.9946H79.9454V23.4058H69.6965V25.9946Z" fill="black"/>
<path d="M113.09 25.9946H116.945V35.3581H119.725V25.9946H123.345V23.4058H113.09V25.9946Z" fill="black"/>
<path d="M147.944 33.6824C147.944 32.8362 147.787 32.0966 147.479 31.4578C147.165 30.819 146.7 30.2362 146.078 29.7095C145.887 29.5638 145.725 29.4517 145.585 29.3733C145.45 29.2948 145.26 29.1884 145.025 29.0595C145.949 28.6112 146.655 28.0677 147.143 27.4176C147.63 26.7732 147.871 26.0336 147.871 25.2043L147.966 23.6017H145.142L145.069 24.8232C145.069 25.6245 144.649 26.3362 143.814 26.9638C142.974 27.597 142.038 27.9108 141.001 27.9108L140.525 27.8883L140.514 23.4111H137.723V35.3578H140.502V30.3763L140.912 30.3539C142.139 30.3539 143.147 30.6733 143.926 31.3121C144.711 31.9509 145.097 32.7634 145.097 33.7552L145.148 35.3578H148L147.944 33.6824Z" fill="black"/>
<path d="M90.0317 28.1743L84.7587 17.8022H81.6488V35.3581H84.7587V24.0053L88.7428 31.8447H91.3205L95.299 24.0053V35.3581H98.4145V17.8022H95.299L90.0317 28.1743Z" fill="black"/>
<path d="M128.393 31.9791C127.872 31.4524 127.614 30.7912 127.614 29.9899V23.4058H124.835V30.0627C124.835 31.6093 125.356 32.8813 126.393 33.8675C127.43 34.8593 128.763 35.3525 130.394 35.3525C130.982 35.3525 131.537 35.2852 132.047 35.1563V32.2761C131.587 32.6011 131.033 32.7636 130.371 32.7636C129.57 32.7692 128.914 32.5059 128.393 31.9791Z" fill="black"/>
<path d="M133.145 26.7455V29.9955V34.7529V35.3581H135.924V30.0627V23.4058H133.145V26.7455Z" fill="black"/>
<path d="M55.9791 30.3038C55.9791 30.287 55.9791 30.2646 55.9791 30.2478C55.9791 30.1357 55.9735 30.0236 55.9623 29.9172C55.8838 28.7124 55.4244 27.6645 54.5782 26.7736C53.648 25.793 52.5217 25.2999 51.2161 25.2999H48.4144V27.984H50.7846C50.8015 27.984 50.8183 27.984 50.8351 27.9896C50.9303 27.9896 51.02 28.0008 51.1096 28.0176C51.1769 28.0288 51.2441 28.0456 51.3058 28.068C51.345 28.0792 51.3786 28.0904 51.4178 28.1072C51.7148 28.2249 51.9894 28.421 52.2472 28.7012C52.6674 29.1719 52.8804 29.7098 52.8916 30.3206C52.886 30.937 52.673 31.4861 52.2472 31.9568C51.8157 32.4387 51.3282 32.6741 50.7846 32.6741H47.3105V31.0155V27.984V25.2999V21.9266V20.7778H47.8316H50.0786H50.7118H54.8248V18.0938H51.2385H50.0786H44.1781V35.3582H51.2161C52.5273 35.3582 53.648 34.8651 54.5782 33.8845C55.514 32.9038 55.9791 31.7271 55.9791 30.3542C55.9791 30.343 55.9791 30.3262 55.9791 30.315V30.3038Z" fill="black"/>
<path d="M45.5117 2.48236L38.328 6.62896L44.0156 9.91262V16.4743L51.2049 12.3277V5.76602L45.5117 2.48236ZM49.4902 11.3359L45.7303 13.4989V8.91519L44.8729 8.42208L41.7574 6.62896L45.5061 4.466L49.4846 6.75784V11.3359H49.4902ZM34.9995 14.1377L25.171 8.46691L24.3136 7.9738L23.4507 8.46691L13.9471 13.9528L11.3303 15.4713L13.9752 16.9394L23.1201 22.005V35.3133L25.6865 33.8284L34.9995 28.449L35.8569 27.9559V14.6364L34.9995 14.1377ZM34.1422 26.9697L24.8292 32.3491V21.002L14.8045 15.4377L24.3193 9.95184L34.1478 15.6226V26.9697H34.1422ZM34.9995 14.1377L25.171 8.46691L24.3136 7.9738L23.4507 8.46691L13.9471 13.9528L11.3303 15.4713L13.9752 16.9394L23.1201 22.005V35.3133L25.6865 33.8284L34.9995 28.449L35.8569 27.9559V14.6364L34.9995 14.1377ZM34.1422 26.9697L24.8292 32.3491V21.002L14.8045 15.4377L24.3193 9.95184L34.1478 15.6226V26.9697H34.1422ZM34.9995 14.1377L25.171 8.46691L24.3136 7.9738L23.4507 8.46691L13.9471 13.9528L11.3303 15.4713L13.9752 16.9394L23.1201 22.005V35.3133L25.6865 33.8284L34.9995 28.449L35.8569 27.9559V14.6364L34.9995 14.1377ZM34.1422 26.9697L24.8292 32.3491V21.002L14.8045 15.4377L24.3193 9.95184L34.1478 15.6226V26.9697H34.1422ZM34.9995 14.1377L25.171 8.46691L24.3136 7.9738L23.4507 8.46691L13.9471 13.9528L11.3303 15.4713L13.9752 16.9394L23.1201 22.005V35.3133L25.6865 33.8284L34.9995 28.449L35.8569 27.9559V14.6364L34.9995 14.1377ZM34.1422 26.9697L24.8292 32.3491V21.002L14.8045 15.4377L24.3193 9.95184L34.1478 15.6226V26.9697H34.1422ZM20.408 0L0 11.7786V35.3414L20.408 47.1256L40.816 35.347V11.7786L20.408 0ZM39.1013 34.3551L20.408 45.1419L1.72028 34.3551V12.7704L20.408 1.97804L39.1013 12.7704V34.3551ZM11.3303 15.4713L13.9752 16.9394L23.1201 22.005V35.3133L25.6865 33.8284L34.9995 28.449L35.8569 27.9559V14.6364L34.9995 14.1433L25.171 8.46691L24.3136 7.9738L23.4507 8.46691L13.9471 13.9528L11.3303 15.4713ZM24.3193 9.95184L34.1478 15.6226V26.9697L24.8348 32.3491V21.002L14.8101 15.4377L24.3193 9.95184Z" fill="black"/>
<path d="M49.4903 6.75222V11.3359L45.7303 13.4989V8.91518L44.873 8.42207L41.7575 6.62894L45.5062 4.46599L49.4903 6.75222ZM39.1014 12.7704V34.3551L20.4081 45.1419L1.72034 34.3551V12.7704L20.4081 1.97803L39.1014 12.7704ZM35.857 14.6364L34.9996 14.1433L25.171 8.4669L24.3137 7.97379L23.4508 8.4669L13.9472 13.9527L11.3304 15.4713L13.9752 16.9394L23.1202 22.005V35.3133L25.6866 33.8284L34.9996 28.449L35.857 27.9559V14.6364Z" fill="black"/>
</svg>
