<svg width="45" height="43" viewBox="0 0 45 43" fill="none" xmlns="http://www.w3.org/2000/svg">
<path d="M13.7623 8.70348C14.0108 8.61553 14.2594 8.52758 14.508 8.43581C14.7871 8.33256 15.3072 8.14136 15.1236 7.53718C15.028 7.21215 14.8177 7.1089 14.6571 7.07831C14.4697 7.0439 14.2709 7.08978 14.0988 7.14332L13.9803 7.17773C13.7164 7.25804 13.4449 7.33834 13.1811 7.43394C6.30182 9.98067 1.98462 15.0588 0.359449 22.5308C0.244731 23.0661 0.172076 23.613 0.103246 24.1445C0.0688306 24.393 0.0382392 24.6416 0 24.8863V27.8651L0.0382392 28.0143C0.0573588 28.0678 0.0764783 28.1213 0.0841262 28.1787L0.313561 29.5668C0.412983 30.1863 0.516229 30.8019 0.619475 31.4214C0.665362 31.6852 0.768608 31.8764 0.925389 31.9873C1.02481 32.06 1.14335 32.0944 1.27337 32.0944C1.31925 32.0944 1.36514 32.0906 1.41485 32.0829C1.60987 32.0485 1.75518 31.9644 1.84695 31.8267C1.95785 31.6623 1.98844 31.4405 1.93108 31.1499C1.92343 31.104 1.90814 31.0543 1.89666 31.0084L1.87755 30.9319C1.34984 28.6758 1.20454 26.5727 1.43397 24.4963C1.77812 21.3798 2.76852 18.531 4.37457 16.0301C6.24446 13.1201 8.68412 10.9328 11.6247 9.53327C12.313 9.20441 13.051 8.94439 13.7661 8.69201L13.7623 8.70348Z" fill="#1C7F3C"/>
<path d="M38.2889 35.4169L38.0671 35.6273C34.5223 38.9923 30.274 40.6136 24.7102 40.7322C24.5037 40.7016 24.2475 40.671 23.953 40.6404C23.1615 40.5486 22.0793 40.4263 21.0468 40.1662C15.4142 38.7361 11.4603 35.5622 9.2921 30.7288C8.10669 28.0827 7.80842 25.1956 8.40878 22.1518C8.84471 19.9377 9.78539 17.8919 11.2002 16.0717C13.3722 13.2803 16.1522 11.7163 19.4599 11.4218C22.7714 11.1312 25.7082 12.0987 28.1899 14.2974C31.8609 17.5516 32.358 22.928 29.3562 26.8055C27.1995 29.5893 23.6203 30.4382 20.4541 28.9201C17.8003 27.6467 16.4658 24.9623 17.135 22.2397C17.7659 19.6662 19.9991 18.1022 22.4464 18.519C24.2092 18.8211 25.9185 20.3316 25.6164 22.5456C25.452 23.754 24.4654 25.0503 23.1041 25.1191C22.3584 25.1574 21.716 24.9279 21.1424 24.4193C20.9704 24.2664 20.783 24.1899 20.6033 24.2052C20.4847 24.2128 20.3088 24.2664 20.1444 24.4576C19.9991 24.6297 19.8194 24.9853 20.2438 25.4059C21.3375 26.4881 23.1959 26.7863 24.5648 26.0942C25.6508 25.5474 26.4462 24.5876 26.8057 23.3945C27.1728 22.1823 27.0275 20.8593 26.4042 19.7618C25.062 17.3986 21.8919 16.4159 19.3414 17.5745C17.655 18.3393 16.3893 19.8803 15.8692 21.8C15.3224 23.819 15.6704 25.9221 16.8291 27.5626C18.1407 29.4172 20.2362 30.6485 22.5841 30.9353C24.9664 31.2259 27.3487 30.5185 29.1115 28.9889C31.4594 26.9584 32.748 23.9872 32.6524 20.844C32.553 17.6663 31.0579 14.741 28.5494 12.8252C25.6164 10.5844 22.3164 9.6896 18.7372 10.1561C16.1943 10.4888 13.9994 11.4754 12.2098 13.0852C8.01492 16.8671 6.24444 21.6202 6.94422 27.2223C7.39162 30.8168 8.98619 33.9485 11.6821 36.5335C15.3798 40.0783 19.85 41.9329 24.974 42.04C25.1231 42.04 25.2723 42.0438 25.4214 42.0438C30.0063 42.0438 34.1858 40.5563 37.8491 37.6157C38.1933 37.3404 38.5183 37.0345 38.8319 36.74C38.9581 36.6215 39.0843 36.5029 39.2105 36.3882C39.4055 36.2085 39.5087 36.0211 39.5164 35.8337C39.5202 35.6655 39.4514 35.5087 39.3099 35.3634C39.1378 35.1875 38.7745 34.9581 38.2813 35.4208L38.2889 35.4169Z" fill="#1C7F3C"/>
<path d="M40.2008 18.3894C40.132 17.6093 40.0632 16.8024 39.9102 16.0185C38.8433 10.5236 35.9448 6.15663 31.3026 3.04013C29.1535 1.59852 26.6718 0.611945 23.9186 0.107187C23.7044 0.0689477 23.0582 -0.0495927 22.9358 0.604298C22.8135 1.25436 23.4253 1.38055 23.6585 1.42644L23.7427 1.44173C24.3239 1.56027 24.9243 1.67882 25.4979 1.84707C30.534 3.33075 34.3426 6.45107 36.8205 11.1201C37.9791 13.3074 38.6598 15.6858 38.8395 18.1905C39.0766 21.4944 38.568 24.2667 37.2832 26.6681C34.4994 31.8725 30.0827 34.576 24.1633 34.7022C23.6815 34.7137 23.1882 34.6601 22.7102 34.6104C22.4655 34.5837 22.2246 34.5607 21.9798 34.5416C21.3374 34.4957 21.1998 34.8819 21.1768 35.119C21.1348 35.5435 21.3642 35.7958 21.8613 35.8723C22.6682 35.9947 23.475 36.0559 24.2742 36.0559C24.8899 36.0559 25.4979 36.0215 26.102 35.9488C29.3447 35.5626 32.2165 34.2969 34.637 32.1937C38.3042 29.0046 40.2085 24.7332 40.3003 19.4945V19.483V19.4715C40.262 19.1121 40.2314 18.7488 40.197 18.3855L40.2008 18.3894Z" fill="#1C7F3C"/>
<path d="M14.8636 2.73792C14.9897 2.73792 15.1389 2.70734 15.3148 2.63468L15.4983 2.5582C15.8119 2.42436 16.1407 2.2867 16.4658 2.19493C17.1923 1.98844 17.938 1.79724 18.6607 1.6137L19.1349 1.49133C19.8155 1.31543 19.7849 0.883324 19.7391 0.7036C19.6932 0.520052 19.544 0.386213 19.414 0.271495C19.3643 0.229432 19.3184 0.183546 19.2764 0.141483L19.1502 0L18.9666 0.164426H18.9513C18.8863 0.16825 18.8098 0.175896 18.7334 0.19884C17.4256 0.596527 16.1178 0.994215 14.81 1.39955C14.5462 1.47985 14.3626 1.62134 14.2785 1.80489C14.2288 1.91578 14.1867 2.09933 14.29 2.34024C14.3779 2.53908 14.5423 2.74175 14.8636 2.74175V2.73792Z" fill="#1C7F3C"/>
<path d="M6.37443 38.415C6.34383 38.3844 6.31324 38.3538 6.28648 38.3232L5.78554 37.7573C5.34579 37.264 4.89457 36.7554 4.46247 36.243C4.34392 36.1015 4.24068 35.9447 4.12978 35.7765C4.00742 35.5891 3.87741 35.3979 3.72445 35.222C3.56384 35.0423 3.24263 34.9276 3.00173 34.9696C2.822 35.0002 2.70729 35.157 2.61551 35.2832C2.58874 35.3214 2.56198 35.3558 2.53903 35.3826L2.46255 35.4629L2.49697 35.57C2.51227 35.6235 2.52374 35.6694 2.53521 35.7038C2.55433 35.7765 2.57345 35.8415 2.61169 35.9027C3.45677 37.2449 4.45864 38.4532 5.59817 39.4933C5.72436 39.608 5.86967 39.6654 6.01498 39.6654C6.17558 39.6654 6.34001 39.5966 6.4815 39.4551C6.7377 39.2065 6.75682 38.8777 6.53503 38.5794C6.48914 38.5182 6.43178 38.4609 6.37825 38.4035L6.37443 38.415Z" fill="#1C7F3C"/>
<path d="M43.6652 28.5418C43.5543 28.4118 43.4205 28.2474 43.2293 28.2397C42.9999 28.2397 42.6328 28.4004 42.5142 28.6413C42.0515 29.5552 41.6003 30.4997 41.1682 31.406L40.7246 32.3313C40.5411 32.7176 40.6482 33.0541 41.0191 33.2376C41.1262 33.2911 41.2332 33.3179 41.3365 33.3179C41.4015 33.3179 41.4627 33.3064 41.5238 33.2873C41.6921 33.23 41.8298 33.0999 41.9254 32.9088C42.4492 31.8419 42.9616 30.7712 43.474 29.6967L43.7073 29.211C43.7417 29.1422 43.7532 29.0734 43.7723 28.9854C43.78 28.9395 43.7914 28.886 43.8067 28.821L43.8335 28.7139L43.7532 28.6374C43.7264 28.6107 43.6958 28.5763 43.6652 28.538V28.5418Z" fill="#1C7F3C"/>
<path d="M9.73563 6.27897C9.88477 6.27897 10.0568 6.22161 10.2595 6.05336C10.5425 5.81628 10.8255 5.57919 11.1084 5.34593C11.5367 4.99031 11.9612 4.63468 12.3856 4.27523C12.485 4.19111 12.5577 4.08786 12.638 3.98079C12.6724 3.93108 12.7106 3.87754 12.7565 3.82019L12.8483 3.70547L12.7604 3.58693C12.7259 3.53722 12.6915 3.48368 12.6648 3.43397C12.5845 3.29631 12.4965 3.15482 12.3435 3.10894C12.1332 3.04393 11.8044 3.05923 11.617 3.20453C10.8216 3.82783 10.0186 4.50467 9.37618 5.05149C9.20411 5.1968 9.10469 5.3727 9.09321 5.55625C9.08174 5.72833 9.14675 5.9004 9.27676 6.04571C9.35324 6.13366 9.51385 6.27514 9.74328 6.27514L9.73563 6.27897Z" fill="#1C7F3C"/>
<path d="M11.3685 41.6654C10.8905 41.4245 10.4163 41.1798 9.94214 40.9312L9.06264 40.4762C8.98616 40.4379 8.90586 40.4035 8.79879 40.3615L8.48905 40.2314L8.39728 40.3232C8.36286 40.3576 8.3208 40.392 8.27873 40.4265C8.13725 40.5412 7.97665 40.6674 7.96517 40.8547C7.94988 41.1148 8.1296 41.4627 8.34374 41.5813C9.0397 41.9752 9.76242 42.3461 10.4622 42.6979L10.7987 42.8699C10.967 42.9541 11.1237 43 11.2614 43C11.3302 43 11.3991 42.9885 11.4602 42.9694C11.6208 42.9158 11.747 42.7935 11.8312 42.6099C12.1027 42.0325 11.5711 41.7648 11.3685 41.6616V41.6654Z" fill="#1C7F3C"/>
<path d="M44.8355 23.2264H44.8164V23.1997C44.8164 23.0467 44.8164 22.8938 44.8164 22.7408C44.8087 22.5228 44.7284 22.3393 44.5869 22.2207C44.4646 22.1175 44.304 22.0754 44.1395 22.0984C43.891 22.1366 43.5468 22.4119 43.5162 22.6681C43.4321 23.3832 43.39 24.1174 43.348 24.821L43.3174 25.3066C43.2944 25.6967 43.5315 25.9835 43.9101 26.0179C43.9369 26.0179 43.9636 26.0179 43.9866 26.0179C44.346 26.0179 44.5984 25.777 44.6405 25.3908C44.6902 24.9204 44.7399 24.4501 44.7858 23.9836L44.8431 23.4138L44.8355 23.2226V23.2264Z" fill="#1C7F3C"/>
</svg>
