<?xml version="1.0" encoding="utf-8"?><svg viewBox="0 0 800 800" xmlns="http://www.w3.org/2000/svg" xmlns:xlink="http://www.w3.org/1999/xlink"><style>:root>svg{display:none}:root>svg:target{display:block}</style><svg viewBox="0 0 30 30" id="check-green" xmlns="http://www.w3.org/2000/svg"><rect width="30" height="30" rx="15"/><path d="M8.572 14.143l5.51 5.143 7.347-8.572"/></svg><svg viewBox="0 0 502.664 502.664" id="icon" xmlns="http://www.w3.org/2000/svg"><path d="M153.821 358.226L0 274.337v-46.463l153.821-83.414v54.574L46.636 250.523l107.185 53.431v54.272zm26.273 29.358L282.103 115.08h32.227L212.084 387.584h-31.99zm168.749-29.358v-54.272l107.164-52.999-107.164-52.59v-53.927l153.821 83.522v46.183l-153.821 84.083z"/></svg><svg viewBox="0 0 20 20" id="mute" xmlns="http://www.w3.org/2000/svg"><path fill-rule="evenodd" clip-rule="evenodd" d="M12 15.583c.584.416 1.334.083 1.334-.667v-3.75l-3.084 3.083L12 15.583zm5.25-11.167a.805.805 0 00-1.166 0l-2.75 2.75V5.083c0-.667-.834-1.084-1.334-.667L9.667 6.333c-.333.166-.667.333-1.083.333H6.667C5.75 6.666 5 7.416 5 8.333v3.333c0 .917.75 1.667 1.667 1.667h.5l-2.75 2.75a.806.806 0 000 1.166.806.806 0 001.167 0L17.25 5.583a.805.805 0 000-1.167z"/></svg><svg viewBox="0 0 19 22" id="play" xmlns="http://www.w3.org/2000/svg"><path d="M18.5 10.134a1 1 0 010 1.732L2 21.392a1 1 0 01-1.5-.866V1.474A1 1 0 012 .608l16.5 9.526z"/></svg><svg viewBox="0 0 19 22" id="player-play" xmlns="http://www.w3.org/2000/svg"><path d="M18.5 10.134a1 1 0 010 1.732L2 21.392a1 1 0 01-1.5-.866V1.474A1 1 0 012 .608l16.5 9.526z"/></svg><svg viewBox="0 0 512 512" id="tiktok" xmlns="http://www.w3.org/2000/svg"><path d="M412.19 118.66a109.27 109.27 0 01-9.45-5.5 132.87 132.87 0 01-24.27-20.62c-18.1-20.71-24.86-41.72-27.35-56.43h.1C349.14 23.9 350 16 350.13 16h-82.44v318.78c0 4.28 0 8.51-.18 12.69 0 .52-.05 1-.08 1.56 0 .23 0 .47-.05.71v.18a70 70 0 01-35.22 55.56 68.8 68.8 0 01-34.11 9c-38.41 0-69.54-31.32-69.54-70s31.13-70 69.54-70a68.9 68.9 0 0121.41 3.39l.1-83.94a153.14 153.14 0 00-118 34.52 161.79 161.79 0 00-35.3 43.53c-3.48 6-16.61 30.11-18.2 69.24-1 22.21 5.67 45.22 8.85 54.73v.2c2 5.6 9.75 24.71 22.38 40.82A167.53 167.53 0 00115 470.66v-.2l.2.2c39.91 27.12 84.16 25.34 84.16 25.34 7.66-.31 33.32 0 62.46-13.81 32.32-15.31 50.72-38.12 50.72-38.12a158.46 158.46 0 0027.64-45.93c7.46-19.61 9.95-43.13 9.95-52.53V176.49c1 .6 14.32 9.41 14.32 9.41s19.19 12.3 49.13 20.31c21.48 5.7 50.42 6.9 50.42 6.9v-81.84c-10.14 1.1-30.73-2.1-51.81-12.61z"/></svg><svg viewBox="0 0 448 512" id="vk" xmlns="http://www.w3.org/2000/svg"><!--! Font Awesome Pro 6.3.0 by @fontawesome - https://fontawesome.com License - https://fontawesome.com/license (Commercial License) Copyright 2023 Fonticons, Inc.--><path d="M31.49 63.49C0 94.982 0 145.672 0 247.04v17.92c0 101.369 0 152.059 31.49 183.549C62.982 480 113.672 480 215.04 480h17.92c101.369 0 152.059 0 183.549-31.491C448 417.019 448 366.329 448 264.96v-17.92c0-101.369 0-152.059-31.491-183.55C385.019 32 334.329 32 232.96 32h-17.92C113.671 32 62.981 32 31.49 63.49zM75.6 168.268h51.147c1.68 85.493 39.386 121.706 69.253 129.173V168.267h48.16V242c29.493-3.173 60.48-36.773 70.933-73.733h48.16a142.258 142.258 0 01-65.52 92.96 147.348 147.348 0 0176.72 93.52H321.44a92.154 92.154 0 00-77.28-66.64v66.64h-5.787c-102.106 0-160.346-70-162.773-186.48z"/></svg></svg>